<svg width="173" height="38" viewBox="0 0 173 38" fill="none" xmlns="http://www.w3.org/2000/svg">
<path d="M63.9545 13.2985H58.5209V27.1429H54.6008V13.2985H49.1921V9.55212H63.9545V13.2985Z" fill="white"/>
<path d="M65.3436 19.5025H70.2811C70.2481 18.9402 70.0244 18.4523 69.6108 18.0388C69.214 17.6252 68.6103 17.4184 67.7999 17.4184C67.0721 17.4184 66.4932 17.6335 66.0631 18.0635C65.633 18.4935 65.3932 18.9733 65.3436 19.5025ZM70.5539 22.7031L73.7049 23.5963C73.3903 24.7376 72.7374 25.6804 71.745 26.4247C70.7521 27.1525 69.5117 27.5164 68.0231 27.5164C66.2368 27.5164 64.7151 26.9209 63.458 25.7301C62.2175 24.5391 61.5972 22.9429 61.5972 20.9415C61.5972 19.0229 62.2009 17.4598 63.4084 16.2524C64.6323 15.0449 66.0797 14.4412 67.7503 14.4412C69.6687 14.4412 71.1744 15.0036 72.2658 16.1283C73.3741 17.2364 73.9279 18.783 73.9279 20.7679C73.9279 21.3964 73.903 21.7851 73.8538 21.934H65.2691C65.3022 22.6121 65.5917 23.1828 66.1375 23.646C66.6833 24.0925 67.3284 24.3158 68.0728 24.3158C69.3466 24.3158 70.1733 23.7783 70.5539 22.7031Z" fill="white"/>
<path d="M80.7936 17.9147C79.9831 17.9147 79.3047 18.1875 78.759 18.7334C78.2295 19.2793 77.9647 20.0319 77.9647 20.9912C77.9647 21.934 78.2382 22.6783 78.7839 23.2241C79.3458 23.7699 80.0323 24.0429 80.8428 24.0429C81.5212 24.0429 82.075 23.8692 82.5055 23.5219C82.9521 23.158 83.2499 22.7197 83.3982 22.2069L86.7229 23.2241C86.4252 24.3985 85.7555 25.4075 84.7133 26.251C83.6879 27.0947 82.3977 27.5164 80.8428 27.5164C78.9907 27.5164 77.419 26.9043 76.1289 25.6804C74.8555 24.4398 74.2183 22.8768 74.2183 20.9912C74.2183 19.089 74.8387 17.526 76.0796 16.3019C77.3362 15.0614 78.883 14.4412 80.7188 14.4412C82.3236 14.4412 83.6386 14.8547 84.664 15.6817C85.6894 16.5087 86.351 17.526 86.6488 18.7334L83.2742 19.7506C83.1253 19.2213 82.8444 18.783 82.4307 18.4357C82.0177 18.0883 81.4714 17.9147 80.7936 17.9147Z" fill="white"/>
<path d="M91.5467 19.9006V27.1454H87.7759V9.18237H91.5467V15.6083C92.2911 14.864 93.3414 14.4919 94.6976 14.4919C96.2363 14.4919 97.3938 14.955 98.1712 15.8813C98.9655 16.791 99.3629 17.9654 99.3629 19.4044V27.1454H95.5909V20.0495C95.5909 19.4044 95.4171 18.8916 95.0701 18.5112C94.7393 18.1142 94.2428 17.9158 93.5813 17.9158C93.0025 17.9158 92.5228 18.1059 92.1422 18.4864C91.7784 18.8503 91.5797 19.3216 91.5467 19.9006Z" fill="white"/>
<path d="M106.947 24.0429C107.724 24.0429 108.378 23.7783 108.907 23.2489C109.452 22.7197 109.726 21.9588 109.726 20.9664C109.726 19.974 109.452 19.2213 108.907 18.7086C108.378 18.1793 107.724 17.9147 106.947 17.9147C106.186 17.9147 105.533 18.1793 104.987 18.7086C104.442 19.2379 104.168 19.9904 104.168 20.9664C104.168 21.9422 104.442 22.7031 104.987 23.2489C105.533 23.7783 106.186 24.0429 106.947 24.0429ZM106.947 14.4412C108.816 14.4412 110.371 15.0531 111.611 16.2771C112.869 17.5012 113.497 19.0642 113.497 20.9664C113.497 22.8685 112.869 24.4398 111.611 25.6804C110.371 26.9043 108.816 27.5164 106.947 27.5164C105.095 27.5164 103.539 26.8961 102.283 25.6556C101.026 24.415 100.397 22.852 100.397 20.9664C100.397 19.0807 101.026 17.526 102.283 16.3019C103.539 15.0614 105.095 14.4412 106.947 14.4412Z" fill="white"/>
<path d="M118.46 31.8558H114.689V14.8108H118.336V16.0762C118.617 15.6462 119.081 15.2822 119.726 14.9845C120.387 14.6703 121.132 14.5132 121.958 14.5132C123.712 14.5132 125.102 15.1168 126.126 16.3243C127.169 17.5152 127.69 19.0534 127.69 20.939C127.69 22.8247 127.136 24.3795 126.027 25.6035C124.936 26.811 123.53 27.4146 121.81 27.4146C120.254 27.4146 119.138 27.0012 118.46 26.1741V31.8558ZM123.174 23.2465C123.721 22.7006 123.993 21.9397 123.993 20.9639C123.993 19.988 123.721 19.2354 123.174 18.7061C122.645 18.1768 121.984 17.9122 121.189 17.9122C120.413 17.9122 119.75 18.1768 119.205 18.7061C118.675 19.2354 118.41 19.988 118.41 20.9639C118.41 21.9397 118.675 22.7006 119.205 23.2465C119.75 23.7758 120.413 24.0404 121.189 24.0404C121.984 24.0404 122.645 23.7758 123.174 23.2465Z" fill="white"/>
<path d="M131.729 19.5025H136.667C136.635 18.9402 136.411 18.4523 135.997 18.0388C135.6 17.6252 134.996 17.4184 134.186 17.4184C133.459 17.4184 132.879 17.6335 132.449 18.0635C132.019 18.4935 131.779 18.9733 131.729 19.5025ZM136.94 22.7031L140.091 23.5963C139.777 24.7376 139.124 25.6804 138.131 26.4247C137.139 27.1525 135.898 27.5164 134.409 27.5164C132.623 27.5164 131.101 26.9209 129.844 25.7301C128.603 24.5391 127.983 22.9429 127.983 20.9415C127.983 19.0229 128.587 17.4598 129.794 16.2524C131.019 15.0449 132.466 14.4412 134.136 14.4412C136.055 14.4412 137.56 15.0036 138.652 16.1283C139.76 17.2364 140.314 18.783 140.314 20.7679C140.314 21.3964 140.29 21.7851 140.24 21.934H131.655C131.688 22.6121 131.977 23.1828 132.524 23.646C133.069 24.0925 133.715 24.3158 134.459 24.3158C135.732 24.3158 136.56 23.7783 136.94 22.7031Z" fill="white"/>
<path d="M153.625 9.18237V24.9371C153.625 25.6815 153.658 26.4175 153.724 27.1454H150.101C150.036 26.7483 150.002 26.3514 150.002 25.9544C149.705 26.3844 149.258 26.7401 148.663 27.0213C148.084 27.2859 147.43 27.4182 146.703 27.4182C144.949 27.4182 143.493 26.8145 142.337 25.6071C141.178 24.383 140.599 22.8282 140.599 20.9426C140.599 19.0901 141.161 17.5601 142.286 16.3526C143.411 15.1286 144.842 14.5167 146.578 14.5167C148.266 14.5167 149.374 14.9385 149.903 15.782V9.18237H153.625ZM145.189 18.7097C144.66 19.2389 144.395 19.9915 144.395 20.9674C144.395 21.9433 144.66 22.7042 145.189 23.25C145.735 23.7793 146.397 24.044 147.174 24.044C147.951 24.044 148.605 23.7793 149.134 23.25C149.679 22.7042 149.953 21.9433 149.953 20.9674C149.953 19.9915 149.679 19.2389 149.134 18.7097C148.605 18.1803 147.951 17.9158 147.174 17.9158C146.397 17.9158 145.735 18.1803 145.189 18.7097Z" fill="white"/>
<path d="M159.562 27.1421H155.791V14.8111H159.562V27.1421ZM156.113 12.603C155.683 12.173 155.468 11.6519 155.468 11.0399C155.468 10.4279 155.683 9.90689 156.113 9.47686C156.543 9.04683 157.056 8.83179 157.651 8.83179C158.264 8.83179 158.785 9.04683 159.215 9.47686C159.661 9.90689 159.885 10.4279 159.885 11.0399C159.885 11.6519 159.661 12.173 159.215 12.603C158.785 13.033 158.264 13.2481 157.651 13.2481C157.056 13.2481 156.543 13.033 156.113 12.603Z" fill="white"/>
<path d="M160.88 23.7451C160.88 22.7031 161.22 21.8678 161.898 21.2393C162.575 20.5942 163.452 20.189 164.527 20.0236L167.43 19.5769C168.026 19.4942 168.324 19.213 168.324 18.7334C168.324 18.353 168.158 18.0388 167.828 17.7906C167.512 17.526 167.075 17.3936 166.513 17.3936C165.883 17.3936 165.379 17.5756 164.999 17.9395C164.635 18.2868 164.437 18.7086 164.404 19.2048L161.129 18.5349C161.211 17.5094 161.716 16.5749 162.642 15.7313C163.585 14.8712 164.883 14.4412 166.537 14.4412C168.406 14.4412 169.779 14.8878 170.656 15.781C171.549 16.6741 171.996 17.8154 171.996 19.2048V25.2338C171.996 26.0111 172.045 26.648 172.144 27.1442H168.745C168.663 26.8134 168.621 26.3503 168.621 25.7549C167.91 26.9127 166.752 27.4915 165.148 27.4915C163.841 27.4915 162.799 27.1277 162.022 26.3999C161.261 25.6556 160.88 24.7706 160.88 23.7451ZM166.066 24.7624C166.711 24.7624 167.249 24.5722 167.678 24.1918C168.109 23.8113 168.324 23.1828 168.324 22.3061V21.7603L165.991 22.1325C165.065 22.2813 164.602 22.7362 164.602 23.4971C164.602 23.8444 164.717 24.1421 164.949 24.3902C165.197 24.6383 165.569 24.7624 166.066 24.7624Z" fill="white"/>
<path d="M28.6205 21.641C28.6207 21.9214 28.6947 22.1968 28.8348 22.4397C28.9752 22.6823 29.1767 22.884 29.4196 23.0241L34.4493 25.9276C34.692 26.0675 34.9673 26.1411 35.2475 26.141C35.5276 26.1409 35.8028 26.0669 36.0454 25.9269C36.288 25.7867 36.4894 25.5851 36.6294 25.3425C36.7694 25.0999 36.8432 24.8245 36.8432 24.5444V9.24183C36.8432 8.96191 36.7696 8.68677 36.6296 8.44433C36.4897 8.20181 36.2883 8.0004 36.0458 7.86044L22.7934 0.213406C22.5508 0.0735374 22.2757 -5.30724e-05 21.9957 2.8717e-08C21.7157 6.07157e-05 21.4407 0.073765 21.1981 0.213724C20.9556 0.353691 20.7541 0.554975 20.614 0.797389C20.4738 1.0398 20.3999 1.31483 20.3997 1.59485V7.40332C20.3997 7.68354 20.4735 7.95876 20.6134 8.20151C20.7534 8.44418 20.9546 8.64596 21.197 8.78645L27.8215 12.6075C28.0642 12.7472 28.2658 12.9484 28.4057 13.1911C28.5457 13.4337 28.6193 13.7088 28.6189 13.9889L28.6205 21.641Z" fill="#83C7FF"/>
<path d="M18.7964 19.6574V27.3095C18.7962 27.5898 18.8698 27.8651 19.0098 28.1079C19.1497 28.3507 19.3511 28.5524 19.5937 28.6926L24.6235 31.5961C24.8662 31.736 25.1415 31.8096 25.4216 31.8095C25.7018 31.8093 25.977 31.7355 26.2196 31.5953C26.4622 31.4552 26.6636 31.2536 26.8036 31.011C26.9436 30.7684 27.0173 30.4931 27.0173 30.2129V14.9104C27.0172 14.63 26.9433 14.3546 26.8029 14.1118C26.6628 13.869 26.4611 13.6674 26.2182 13.5272L12.9676 5.87684C12.725 5.73642 12.4498 5.66238 12.1696 5.66223C11.8894 5.662 11.6141 5.73566 11.3714 5.8757C11.1287 6.01573 10.9272 6.21729 10.7871 6.46004C10.6471 6.70271 10.5735 6.97808 10.5737 7.2583V13.0668C10.5734 13.3469 10.6469 13.6221 10.7869 13.8647C10.9269 14.1071 11.1284 14.3085 11.3711 14.4483L17.9989 18.2743C18.2415 18.4147 18.4429 18.6164 18.5828 18.8591C18.7228 19.1019 18.7964 19.3772 18.7964 19.6574Z" fill="#D5ECFF"/>
<path d="M16.3986 19.2024L3.14628 11.5571C2.90356 11.4171 2.62829 11.3436 2.34814 11.3436C2.06797 11.3438 1.79278 11.4176 1.5502 11.5578C1.30763 11.698 1.10621 11.8994 0.966173 12.1422C0.82614 12.3848 0.752426 12.66 0.752441 12.9402V28.2444C0.752381 28.5244 0.82604 28.7995 0.966012 29.042C1.10598 29.2845 1.30733 29.4859 1.54982 29.6258L9.77243 34.3661L14.8022 37.2695C15.0448 37.4099 15.32 37.484 15.6 37.4841C15.8803 37.4843 16.1556 37.4107 16.3984 37.2707C16.6411 37.1306 16.8426 36.9291 16.9827 36.6864C17.1226 36.4437 17.1962 36.1682 17.196 35.8881V20.5856C17.1959 20.3054 17.1222 20.0301 16.9822 19.7874C16.8422 19.5446 16.641 19.3429 16.3986 19.2024Z" fill="white"/>
</svg>
