<svg width="159" height="37" viewBox="0 0 159 37" fill="none" xmlns="http://www.w3.org/2000/svg">
<path d="M27.4175 18.2773L18.2773 27.4175H36.5577L27.4175 18.2773Z" fill="#B9B9B9"/>
<path d="M9.14018 18.2808L0 9.14062V27.421L9.14018 18.2808Z" fill="#E7E7E7"/>
<path d="M27.4175 18.2808L36.5577 9.14062H18.2773L27.4175 18.2808Z" fill="#B9B9B9"/>
<path d="M18.2808 9.14018L27.421 0H9.14062L18.2808 9.14018Z" fill="#CCCCCC"/>
<path d="M27.4175 36.5621L36.5577 27.4219H18.2773L27.4175 36.5621Z" fill="#C3C3C3"/>
<path d="M9.14018 36.5621L18.2804 27.4219H0L9.14018 36.5621Z" fill="#D3D3D3"/>
<path d="M27.4175 0L18.2773 9.14018H36.5577L27.4175 0Z" fill="#C3C3C3"/>
<path d="M0 9.14018H18.2804L9.14018 0L0 9.14018Z" fill="#D3D3D3"/>
<path d="M18.2808 27.4219L9.14062 36.5621H27.421L18.2808 27.4219Z" fill="#CCCCCC"/>
<path d="M9.14018 18.2773L0 27.4175H18.2804L9.14018 18.2773Z" fill="#DDDDDD"/>
<path d="M18.2804 9.14062H0L9.14018 18.2808L18.2804 9.14062Z" fill="#DDDDDD"/>
<path d="M47.0848 21.5763C47.5867 21.5763 47.9608 21.4394 48.2071 21.1657C48.4444 20.892 48.5721 20.4905 48.5721 19.9613H51.9847L52.0121 20.0252C52.0456 20.6261 51.9403 21.2266 51.7046 21.7804C51.4688 22.3342 51.1089 22.8263 50.6525 23.2187C49.6618 24.0593 48.3923 24.4988 47.0939 24.4505C45.2691 24.4505 43.873 23.8848 42.8967 22.7533C41.8729 21.5259 41.3428 19.9614 41.4094 18.3645V18.109C41.4094 16.3206 41.9022 14.8607 42.8876 13.7292C43.8639 12.5978 45.26 12.0321 47.0574 12.0321C48.5721 12.0321 49.7857 12.4519 50.689 13.3004C51.1499 13.7462 51.5073 14.2879 51.7359 14.887C51.9645 15.4861 52.0588 16.1282 52.0121 16.7677L51.9847 16.8315H48.5721C48.5929 16.3377 48.459 15.8496 48.1889 15.4355C47.9425 15.0796 47.5593 14.9063 47.0574 14.9063C46.3457 14.9063 45.853 15.1983 45.5702 15.7732C45.2551 16.5101 45.1086 17.3081 45.1413 18.109V18.3645C45.1413 19.3681 45.2782 20.1528 45.5702 20.7186C45.8439 21.2843 46.3549 21.5763 47.0848 21.5763ZM60.3062 15.545L58.9375 15.5359C58.5178 15.5359 58.1619 15.6089 57.8882 15.7458C57.6145 15.8917 57.4137 16.0925 57.286 16.3662V24.2133H53.545V12.2511H57.067L57.1948 14.003C57.4043 13.4413 57.749 12.9399 58.1984 12.543C58.602 12.205 59.1137 12.0236 59.6401 12.0321C59.9878 12.0308 60.3343 12.0738 60.6711 12.1599L60.3062 15.545ZM67.405 18.9393V19.0306H67.478L69.458 12.2511H73.4363L68.6733 25.9926C68.3083 26.8776 67.8247 27.6076 67.2499 28.1824C66.6659 28.7572 65.7352 29.0492 64.4669 29.0492C64.1476 29.0492 63.883 29.031 63.6731 28.9853C63.4724 28.9488 63.1439 28.8758 62.7059 28.7663L63.1621 26.102L63.3902 26.1567L63.5819 26.175C64.1749 26.175 64.6038 26.0837 64.8775 25.9104C65.1513 25.7371 65.352 25.4724 65.4889 25.1257L65.79 24.3501L61.6475 12.2511H65.6167L67.405 18.9393ZM81.776 18.255C81.776 17.2513 81.6213 16.4301 81.3197 15.8188C81.0277 15.2074 80.5627 14.9063 79.9144 14.9063C79.4859 14.9063 79.1297 14.9793 78.8472 15.1344C78.5551 15.2895 78.3178 15.5177 78.1536 15.8097V20.8099C78.3361 21.0653 78.5642 21.266 78.8559 21.3847C79.1995 21.5172 79.5653 21.5792 79.9327 21.5672C80.5897 21.5672 81.0555 21.2934 81.338 20.7551C81.6625 20.0436 81.8101 19.2639 81.7673 18.4831V18.255H81.776ZM85.4991 18.4831C85.4991 20.2897 85.0881 21.7314 84.2763 22.8172C83.8836 23.3496 83.3662 23.7773 82.7695 24.0621C82.1728 24.347 81.5149 24.4804 80.8547 24.4505C80.3334 24.4648 79.8168 24.3548 79.3471 24.1295C78.8773 23.9041 78.4684 23.57 78.1536 23.1548V28.812H74.4126V12.2511H77.9073L78.0441 13.565C78.3296 13.085 78.7385 12.6899 79.2273 12.4204C79.7169 12.151 80.2691 12.0169 80.827 12.0321C82.314 12.0321 83.4551 12.5978 84.2763 13.7384C85.146 15.0792 85.5729 16.6586 85.4991 18.255V18.4831ZM91.5663 9.27649V12.2511H93.5921V14.8333H91.5663V20.3262C91.5663 20.746 91.6575 21.0562 91.8218 21.2387C91.9114 21.335 92.0202 21.411 92.1416 21.4614C92.263 21.5118 92.3931 21.5354 92.5248 21.5307C92.8922 21.5308 93.2588 21.4942 93.6199 21.4212L93.8754 24.1859C93.1247 24.3662 92.3566 24.4581 91.5845 24.4596C90.353 24.4505 89.4222 24.122 88.793 23.456C88.1542 22.8081 87.8344 21.7679 87.8344 20.3536V14.8333H86.1562V12.2511H87.8344V9.27649H91.5663ZM98.2547 18.3554C98.2547 19.359 98.4103 20.1437 98.7293 20.7186C99.0395 21.2843 99.5688 21.5672 100.326 21.5672C101.056 21.5672 101.576 21.2843 101.895 20.7095C102.215 20.1346 102.37 19.3408 102.37 18.3554V18.1181C102.406 17.3124 102.242 16.5103 101.895 15.7823C101.576 15.1983 101.047 14.9063 100.299 14.9063C99.5688 14.9063 99.0395 15.1983 98.7293 15.7914C98.4103 16.3754 98.2547 17.16 98.2547 18.1181V18.3554ZM94.5142 18.1181C94.4459 16.5132 94.9942 14.9431 96.0464 13.7292C97.0597 12.5978 98.4833 12.023 100.308 12.023C102.133 12.023 103.556 12.5978 104.569 13.7292C105.618 14.9445 106.167 16.5136 106.102 18.1181V18.3554C106.102 20.162 105.591 21.6311 104.569 22.7533C103.556 23.8848 102.142 24.4505 100.326 24.4505C98.492 24.4505 97.0597 23.8848 96.0377 22.7533C94.991 21.5335 94.4499 19.9606 94.5229 18.3554V18.1181H94.5142ZM111.184 12.2511L111.33 13.93C111.723 13.3369 112.206 12.8624 112.781 12.5339C113.363 12.1975 114.025 12.0242 114.697 12.0321C115.874 12.0321 116.796 12.4062 117.453 13.1636C118.11 13.93 118.438 15.1344 118.438 16.795V24.2133H114.697V16.7859C114.697 16.1016 114.56 15.6089 114.277 15.326C113.995 15.0523 113.575 14.9063 113.018 14.9063C112.713 14.8967 112.409 14.9557 112.13 15.0788C111.851 15.202 111.602 15.3862 111.403 15.618V24.2133H107.69V12.2511H111.194H111.184ZM125.674 14.9063C125.136 14.9063 124.734 15.0888 124.46 15.4811C124.186 15.8643 124.032 16.3754 123.968 17.014L124.004 17.0688H127.225V16.7859C127.225 16.1746 127.097 15.7184 126.851 15.3899C126.596 15.0614 126.212 14.9063 125.674 14.9063ZM125.947 24.4505C124.178 24.4505 122.772 23.903 121.723 22.7898C121.199 22.2346 120.79 21.5811 120.518 20.8671C120.248 20.153 120.121 19.3924 120.144 18.6291V18.2094C120.144 16.3845 120.619 14.8972 121.577 13.7475C122.535 12.5978 123.894 12.0138 125.674 12.0321C127.298 12.0321 128.567 12.5157 129.488 13.492C130.45 14.5762 130.948 15.995 130.875 17.4429V19.4046H124.032L124.014 19.4685C124.105 20.0799 124.342 20.5909 124.771 20.9832C125.19 21.3755 125.747 21.5763 126.45 21.5763C127.595 21.6022 128.729 21.3452 129.752 20.8281L130.638 23.1092C130.02 23.5391 129.336 23.863 128.612 24.0673C127.782 24.3227 126.888 24.4505 125.939 24.4505M142.728 19.1857H142.791L144.087 12.2511H147.536L144.726 24.2133H141.568L139.616 17.8717H139.552L137.599 24.2133H134.443L131.623 12.2511H135.072L136.386 19.2405H136.459L138.402 12.2511H140.756L142.728 19.1857ZM155.109 20.8555C155.109 20.5635 154.945 20.2988 154.607 20.0617C154.041 19.7474 153.423 19.5373 152.783 19.4411C151.643 19.2747 150.56 18.8366 149.626 18.1638C149.278 17.881 149.001 17.5209 148.817 17.1122C148.634 16.7035 148.548 16.2574 148.567 15.8097C148.567 15.2909 148.686 14.7791 148.915 14.3138C149.145 13.8486 149.479 13.4425 149.89 13.1271C150.775 12.3971 151.98 12.0321 153.485 12.0321C155.082 12.0321 156.35 12.388 157.29 13.0997C157.732 13.405 158.088 13.8187 158.325 14.3012C158.561 14.7837 158.67 15.3187 158.641 15.8552L158.622 15.9191H154.99C154.99 15.4538 154.872 15.0979 154.625 14.8516C154.388 14.6052 154.005 14.4866 153.476 14.4866C153.084 14.4866 152.755 14.5869 152.491 14.806C152.364 14.9028 152.263 15.0286 152.195 15.1729C152.127 15.3171 152.096 15.4754 152.101 15.6345C152.108 15.7937 152.152 15.9491 152.231 16.0875C152.31 16.2259 152.421 16.3435 152.554 16.4301C153.129 16.7425 153.757 16.9437 154.406 17.0232C155.577 17.1924 156.69 17.6364 157.655 18.3189C158.007 18.6138 158.285 18.9867 158.468 19.4081C158.649 19.8295 158.73 20.2877 158.704 20.746C158.704 21.8226 158.229 22.7077 157.272 23.4012C156.154 24.1471 154.827 24.515 153.485 24.4505C151.861 24.4505 150.565 24.0308 149.626 23.2096C148.676 22.3884 148.22 21.4577 148.266 20.4448L148.293 20.381H151.67C151.688 20.9467 151.852 21.3573 152.189 21.6037C152.518 21.8591 152.984 21.9777 153.586 21.9777C154.087 21.9777 154.471 21.8865 154.726 21.6858C154.982 21.4942 155.109 21.2113 155.109 20.8555Z" fill="white"/>
<g style="mix-blend-mode:color">
<path d="M27.4175 18.2773L18.2773 27.4175H36.5577L27.4175 18.2773Z" fill="#017EE4"/>
<path d="M9.14018 18.2808L0 9.14062V27.421L9.14018 18.2808Z" fill="#017EE4"/>
<path d="M27.4175 18.2808L36.5577 9.14062H18.2773L27.4175 18.2808Z" fill="#017EE4"/>
<path d="M18.2808 9.14018L27.421 0H9.14062L18.2808 9.14018Z" fill="#017EE4"/>
<path d="M27.4175 36.5621L36.5577 27.4219H18.2773L27.4175 36.5621Z" fill="#017EE4"/>
<path d="M9.14018 36.5621L18.2804 27.4219H0L9.14018 36.5621Z" fill="#017EE4"/>
<path d="M27.4175 0L18.2773 9.14018H36.5577L27.4175 0Z" fill="#017EE4"/>
<path d="M0 9.14018H18.2804L9.14018 0L0 9.14018Z" fill="#017EE4"/>
<path d="M18.2808 27.4219L9.14062 36.5621H27.421L18.2808 27.4219Z" fill="#017EE4"/>
<path d="M9.14018 18.2773L0 27.4175H18.2804L9.14018 18.2773Z" fill="#017EE4"/>
<path d="M18.2804 9.14062H0L9.14018 18.2808L18.2804 9.14062Z" fill="#017EE4"/>
</g>
</svg>
