<svg width="189" height="46" viewBox="0 0 189 46" fill="none" xmlns="http://www.w3.org/2000/svg">
<path d="M30.002 34.3187L21.6092 37.9704V37.6052C19.9895 37.9704 18.1489 38.2626 16.4556 38.3356C8.50448 38.3356 2.24663 34.0996 2.09939 29.2063V27.3804C4.67615 31.1052 10.0505 33.6614 16.4556 33.5884C18.5907 33.6614 20.8729 33.3693 22.7135 32.858L23.4497 31.0322C21.2411 31.6895 18.8115 32.1277 16.4556 32.1277C8.50448 32.1277 2.24663 28.0378 2.09939 22.9984V21.5377C4.67615 25.0434 10.0505 27.5265 16.4556 27.3804C19.3269 27.5265 22.1245 26.9422 24.554 25.9198L24.9221 24.0939C22.5662 25.2625 19.6214 25.9928 16.5293 25.9198C8.57811 25.9928 2.32025 21.9029 2.17301 16.7905V15.3298C4.74977 18.9085 10.1242 21.3916 16.5293 21.5377C20.1367 21.4647 23.597 20.4422 26.4682 18.9815L26.8363 16.7905C24.2595 18.6894 20.5048 19.931 16.5293 20.077C8.57811 19.931 2.32025 15.768 2.17301 10.5826C2.17301 5.68927 8.57811 1.52632 16.5293 1.52632C21.2411 1.52632 25.6584 3.20611 28.2351 5.90838L28.5296 6.34658H30.3702L30.0757 5.90838C27.4989 2.47577 22.2718 0.138672 16.4556 0.138672C7.62102 0.138672 0.626953 4.8859 0.626953 10.6556V11.0208V29.5715C0.92144 35.1951 7.76827 39.7963 16.382 39.7963C22.0509 39.7963 27.2044 37.6052 30.002 34.3187Z" fill="white"/>
<path d="M27.2455 45.7445L30.2961 33.7207L21.4494 37.2364L26.8642 16.3529H16.4922L19.1615 6.08691H52.184L49.5148 16.3529H38.7615L36.4735 22.0484L48.3708 17.4779L27.2455 45.7445ZM32.6603 31.2596L31.135 38.3615L43.7949 20.7124L33.4229 24.9313L37.9988 15.0169H48.3708L50.2774 7.56353H20.3054L18.3988 15.0169H28.7708L23.7373 34.8457L32.584 31.33L32.6603 31.2596Z" fill="#94CFFF"/>
<path d="M65.9353 26.1183C65.9353 26.7138 65.7652 27.2668 65.5525 27.7772C65.2973 28.2877 64.957 28.7556 64.5316 29.1384C63.5532 29.9041 62.3622 30.3295 61.1286 30.2444C60.448 30.2869 59.7675 30.1593 59.1294 29.9041C58.4914 29.6489 57.9384 29.2235 57.4705 28.7131C56.5772 27.6922 56.1518 26.2459 56.1518 24.4168V23.6937C56.1093 22.6303 56.322 21.6094 56.7473 20.6311C57.1302 19.7803 57.7257 19.0997 58.4914 18.5893C59.4272 18.0788 60.4906 17.8236 61.554 17.9087C62.6174 17.9938 63.6383 18.3766 64.4891 19.0147C65.3823 19.8229 65.8928 20.9714 65.9778 22.1624H63.5107C63.5107 21.5243 63.298 20.9288 62.8726 20.4609C62.4047 20.0781 61.7667 19.9079 61.1712 19.9505C60.8309 19.9079 60.448 19.993 60.1078 20.1632C59.7675 20.3333 59.5122 20.546 59.2996 20.8437C58.8742 21.4393 58.6615 22.3751 58.6615 23.6086V24.5019C58.6615 25.8206 58.8742 26.7564 59.257 27.3519C59.4697 27.6496 59.7249 27.9049 60.0652 28.0325C60.4055 28.2026 60.7458 28.2452 61.1286 28.2452C61.7667 28.2877 62.3622 28.1175 62.8301 27.7347C63.2555 27.3093 63.4682 26.7138 63.4682 26.1183H65.9353Z" fill="white"/>
<path d="M77.4572 24.3748C77.4997 25.4382 77.287 26.5016 76.8191 27.48C76.4363 28.3307 75.7982 29.0538 75.0326 29.5643C74.2244 30.0322 73.2885 30.2874 72.3527 30.2874C71.4169 30.2874 70.4811 30.0322 69.6729 29.5643C68.8647 29.0538 68.2267 28.3732 67.8438 27.5225C67.4185 26.5442 67.1632 25.5233 67.2058 24.4599V23.8643C67.1632 22.8009 67.4185 21.7375 67.8438 20.7166C68.2267 19.8659 68.8647 19.1427 69.6729 18.6323C70.4811 18.1644 71.4169 17.9092 72.3527 17.9092C73.2885 17.9092 74.2244 18.1644 75.0326 18.6323C75.8408 19.1427 76.4363 19.8659 76.8616 20.7166C77.287 21.695 77.5422 22.7584 77.4997 23.8218V24.3748H77.4572ZM74.9475 23.8218C74.9475 22.5457 74.7348 21.6099 74.2669 20.9293C74.0542 20.6315 73.7564 20.3763 73.4162 20.2062C73.0759 20.036 72.693 19.9509 72.3527 19.9509C71.9699 19.9509 71.5871 20.036 71.2893 20.2062C70.949 20.3763 70.6513 20.6315 70.4386 20.9293C69.9707 21.5673 69.758 22.5457 69.758 23.7793V24.3748C69.7155 25.3531 69.9281 26.374 70.4386 27.2247C70.6513 27.5225 70.949 27.7777 71.2893 27.9479C71.6296 28.118 72.0124 28.2031 72.3953 28.2031C72.7781 28.2031 73.1609 28.118 73.5012 27.9479C73.8415 27.7777 74.1393 27.5225 74.352 27.2247C74.7773 26.5867 75.0326 25.6083 75.0326 24.3748V23.8218H74.9475Z" fill="white"/>
<path d="M81.889 30.0741H79.4219V18.0361H81.889V30.0741Z" fill="white"/>
<path d="M93.9734 30.0741H91.5062L86.6996 22.1622V30.0741H84.2324V18.0361H86.6996L91.5488 25.948V18.0361H94.0159V30.0741H93.9734Z" fill="white"/>
<path d="M104.93 20.0783H101.23V30.117H98.8051V20.0783H95.1895V18.0791H104.973V20.0783H104.93Z" fill="white"/>
<path d="M113.635 24.885H108.871V28.1178H114.443V30.117H106.361V18.0791H114.401V20.0783H108.828V22.9283H113.593V24.885H113.635Z" fill="white"/>
<path d="M118.385 28.0748H123.66V30.0741H115.918V18.0361H118.385V28.0748Z" fill="white"/>
<path d="M132.297 24.885H127.533V28.1178H133.105V30.117H125.023V18.0791H133.063V20.0783H127.491V22.9283H132.255V24.885H132.297Z" fill="white"/>
<path d="M144.105 28.5856C143.595 29.1811 142.957 29.6065 142.234 29.8192C141.383 30.117 140.447 30.2871 139.511 30.2446C138.533 30.2871 137.597 30.0319 136.789 29.564C135.981 29.0961 135.343 28.4155 134.96 27.5647C134.492 26.6289 134.279 25.5655 134.322 24.5021V23.6939C134.279 22.6305 134.492 21.5671 134.917 20.5887C135.3 19.738 135.896 19.0574 136.661 18.5895C137.469 18.1216 138.405 17.8663 139.341 17.9089C140.787 17.9089 141.893 18.2492 142.702 18.9298C143.552 19.6954 144.063 20.7589 144.148 21.9073H141.723C141.681 21.3118 141.425 20.8014 141 20.376C140.575 20.0357 140.022 19.8656 139.426 19.9081C139.043 19.9081 138.661 19.9507 138.32 20.1208C137.98 20.2909 137.682 20.5462 137.469 20.8439C137.044 21.482 136.789 22.4178 136.789 23.6514V24.417C136.789 25.6931 137.044 26.6289 137.512 27.267C137.767 27.6073 138.065 27.8625 138.448 28.0327C138.831 28.2028 139.213 28.2879 139.639 28.2453C140.575 28.2453 141.213 28.0327 141.638 27.6498V25.5655H139.384V23.7364H144.105V28.5856Z" fill="white"/>
<path d="M150.535 25.6932H148.578V30.117H146.111V18.0791H150.578C151.981 18.0791 153.087 18.3769 153.853 19.0149C154.236 19.3552 154.534 19.738 154.746 20.2059C154.959 20.6738 155.044 21.1843 155.002 21.6947C155.044 22.4179 154.831 23.141 154.449 23.7365C154.066 24.332 153.47 24.7574 152.832 25.0551L155.427 29.9894V30.117H152.747L150.535 25.6932ZM148.578 23.6514H150.578C151.088 23.694 151.641 23.5238 152.024 23.1835C152.194 23.0134 152.322 22.8007 152.407 22.588C152.492 22.3753 152.534 22.1201 152.534 21.8649C152.534 21.6097 152.492 21.397 152.449 21.1418C152.364 20.9291 152.237 20.7164 152.066 20.5037C151.854 20.3336 151.641 20.2059 151.386 20.1209C151.131 20.0358 150.875 19.9933 150.578 20.0358H148.578V23.6514Z" fill="white"/>
<path d="M163.694 27.6069H159.356L158.547 30.0741H155.91L160.377 18.0361H162.674L167.182 30.0741H164.545L163.694 27.6069ZM160.036 25.6077H163.056L161.525 21.0988L160.036 25.6077Z" fill="white"/>
<path d="M170.786 25.8633V30.117H168.318V18.0791H172.997C173.806 18.0791 174.614 18.2492 175.379 18.5895C176.018 18.8873 176.571 19.3977 176.953 19.9933C177.336 20.6313 177.506 21.3544 177.506 22.0776C177.549 22.588 177.421 23.141 177.209 23.6089C176.996 24.0768 176.698 24.5022 176.273 24.8425C175.465 25.5231 174.359 25.8633 172.912 25.8633H170.786ZM170.786 23.8216H172.997C173.55 23.8641 174.061 23.694 174.486 23.3537C174.656 23.1835 174.784 22.9708 174.912 22.7582C174.997 22.5455 175.039 22.2903 175.039 22.035C175.039 21.7798 174.997 21.5246 174.912 21.2694C174.826 21.0141 174.699 20.8015 174.529 20.5888C174.359 20.4186 174.103 20.2485 173.848 20.1634C173.593 20.0783 173.338 20.0358 173.082 20.0358H170.828V23.8216H170.786Z" fill="white"/>
<path d="M189.002 30.0741H186.535V24.9271H181.686V30.0741H179.219V18.0361H181.686V22.9279H186.535V18.0361H189.002V30.0741Z" fill="white"/>
</svg>
