<svg width="359" height="55" viewBox="0 0 359 55" fill="none" xmlns="http://www.w3.org/2000/svg">
<mask id="mask0_26_2022" style="mask-type:alpha" maskUnits="userSpaceOnUse" x="0" y="0" width="359" height="55">
<path d="M358.301 27.0195C358.301 12.1078 346.212 0.0195312 331.301 0.0195312H27.8722C12.9605 0.0195312 0.872181 12.1078 0.872181 27.0195V27.0195C0.872181 41.9312 12.9605 54.0195 27.8722 54.0195H331.301C346.212 54.0195 358.301 41.9312 358.301 27.0195V27.0195Z" fill="#D9D9D9"/>
</mask>
<g mask="url(#mask0_26_2022)">
<path d="M333.695 90.1585C354.338 72.6641 358.417 42.9804 344.117 21.0387C344.113 21.0197 344.107 20.9936 344.1 20.961C344.083 20.8841 344.06 20.7708 344.033 20.6268C343.981 20.3386 343.916 19.9285 343.869 19.4427C343.775 18.4682 343.753 17.2025 344.033 16.0091C344.313 14.8169 344.887 13.7194 345.967 13.0397C347.048 12.3597 348.68 12.0695 351.136 12.589L351.142 12.5901C360.152 14.2769 369.946 12.0282 377.523 5.60663C385.093 -0.8087 388.917 -10.0904 388.658 -19.3415C388.662 -19.358 388.667 -19.3824 388.675 -19.4141C388.69 -19.4793 388.713 -19.5754 388.745 -19.6967C388.81 -19.9396 388.911 -20.2829 389.057 -20.6826C389.348 -21.4839 389.814 -22.5014 390.512 -23.3882C391.208 -24.2739 392.127 -25.0179 393.327 -25.2993C394.52 -25.5792 396.027 -25.4095 397.922 -24.4034C413.853 -11.6355 437.175 -11.6659 453.439 -25.4495C471.91 -41.1039 474.299 -68.7535 458.758 -87.0898C457.147 -88.9917 455.425 -90.6344 453.612 -92.1931L453.604 -92.1994L453.603 -92.1999L453.6 -92.2026L453.585 -92.2147C453.572 -92.2256 453.551 -92.2424 453.525 -92.2648C453.472 -92.3096 453.395 -92.377 453.3 -92.4656C453.109 -92.6428 452.845 -92.9043 452.557 -93.2394C451.981 -93.9109 451.314 -94.8698 450.934 -96.03C450.555 -97.1862 450.461 -98.5433 451.027 -100.027C451.592 -101.507 452.823 -103.135 455.132 -104.819C457.964 -105.755 460.758 -107.31 463.151 -109.338C473.529 -118.133 474.956 -133.601 466.222 -143.907C465.183 -145.133 464.046 -146.284 462.717 -147.278C462.708 -147.292 462.698 -147.311 462.685 -147.334C462.669 -147.363 462.65 -147.397 462.628 -147.438C462.601 -147.488 462.57 -147.548 462.536 -147.616C462.413 -147.862 462.249 -148.217 462.09 -148.655C461.769 -149.532 461.469 -150.729 461.532 -152.021C461.595 -153.309 462.02 -154.695 463.156 -155.967C464.294 -157.24 466.161 -158.415 469.136 -159.25C471.063 -159.727 472.938 -160.656 474.583 -162.051C480.299 -166.895 480.942 -175.37 476.213 -180.95C471.484 -186.53 462.922 -187.203 457.303 -182.441C456.146 -181.46 455.245 -180.369 454.507 -179.09C453.188 -177.618 451.916 -176.765 450.741 -176.401C449.567 -176.037 448.477 -176.155 447.507 -176.649C445.552 -177.644 444.039 -180.191 443.408 -183.515C442.517 -188.654 440.182 -193.548 436.633 -197.735C425.497 -210.875 405.718 -212.431 392.483 -201.214C379.247 -189.997 377.539 -170.23 388.675 -157.091L388.677 -157.089L388.679 -157.086L388.681 -157.084L388.683 -157.082L388.684 -157.08L388.686 -157.078L388.688 -157.075L388.69 -157.073L388.692 -157.071L388.694 -157.069L388.696 -157.066L388.698 -157.064L388.7 -157.062L388.702 -157.06L388.703 -157.057L388.705 -157.055L388.707 -157.053L388.709 -157.051L388.711 -157.048L388.713 -157.046L388.715 -157.044L388.717 -157.042L388.719 -157.039L388.721 -157.037L388.723 -157.035L388.724 -157.033L388.726 -157.03L388.728 -157.028L388.73 -157.026L388.732 -157.024L388.734 -157.021L388.736 -157.019L388.738 -157.017L388.74 -157.014L388.742 -157.012L388.744 -157.01L388.746 -157.008L388.748 -157.005L388.75 -157.003L388.752 -157.001L388.753 -156.998L388.755 -156.996L388.757 -156.994L388.759 -156.991L388.761 -156.989L388.763 -156.987L388.765 -156.985L388.767 -156.982L388.769 -156.98L388.771 -156.978L388.773 -156.975L388.775 -156.973L388.777 -156.971L388.779 -156.968L388.781 -156.966L388.783 -156.964L388.785 -156.961L388.787 -156.959L388.789 -156.957L388.791 -156.954L388.793 -156.952L388.795 -156.95L388.797 -156.947L388.799 -156.945L388.801 -156.943L388.803 -156.94L388.805 -156.938L388.807 -156.936L388.809 -156.933L388.811 -156.931L388.813 -156.929L388.814 -156.926L388.816 -156.924L388.818 -156.922L388.82 -156.919L388.822 -156.917L388.824 -156.915L388.826 -156.912L388.828 -156.91L388.83 -156.908L388.832 -156.905L388.834 -156.903L388.836 -156.9L388.838 -156.898L388.84 -156.896L388.842 -156.893L388.844 -156.891L388.847 -156.889L388.849 -156.886L388.851 -156.884L388.853 -156.881L388.855 -156.879L388.857 -156.877L388.859 -156.874L388.861 -156.872L388.863 -156.87L388.865 -156.867L388.867 -156.865L388.869 -156.862L388.871 -156.86L388.873 -156.858L388.875 -156.855L388.877 -156.853L388.879 -156.85L388.881 -156.848L388.883 -156.846L388.885 -156.843L388.887 -156.841L388.889 -156.838L388.891 -156.836L388.893 -156.834L388.895 -156.831L388.897 -156.829L388.899 -156.826L388.901 -156.824L388.903 -156.822L388.905 -156.819L388.907 -156.817L388.909 -156.814L388.911 -156.812L388.913 -156.81L388.916 -156.807L388.918 -156.805L388.92 -156.802L388.922 -156.8L388.924 -156.798L388.926 -156.795L388.928 -156.793L388.93 -156.79L388.932 -156.788L388.934 -156.785L388.936 -156.783L388.938 -156.781L388.94 -156.778L388.942 -156.776L388.944 -156.773L388.946 -156.771L388.948 -156.768L388.95 -156.766L388.953 -156.764L388.955 -156.761L388.957 -156.759L388.959 -156.756L388.961 -156.754L388.963 -156.751L388.965 -156.749L388.967 -156.746L388.969 -156.744L388.971 -156.742L388.973 -156.739L388.975 -156.737L388.977 -156.734L388.979 -156.732L388.981 -156.729L388.984 -156.727L388.986 -156.724L388.988 -156.722L388.99 -156.72L388.992 -156.717L388.994 -156.715L388.996 -156.712L388.998 -156.71L389 -156.707L389.002 -156.705L389.004 -156.702L389.006 -156.7L389.008 -156.697L389.011 -156.695L389.013 -156.693L389.015 -156.69L389.017 -156.688L389.019 -156.685L389.021 -156.683L389.023 -156.68L389.025 -156.678L389.027 -156.675L389.029 -156.673L389.031 -156.67L389.034 -156.668L389.036 -156.665L389.038 -156.663L389.04 -156.661L389.042 -156.658L389.044 -156.656L389.046 -156.653L389.048 -156.651L389.05 -156.648L389.052 -156.646L389.054 -156.643L389.057 -156.641L389.059 -156.638L389.061 -156.636L389.063 -156.633L389.065 -156.631L389.067 -156.628L389.069 -156.626L389.071 -156.623L389.073 -156.621L389.075 -156.618L389.078 -156.616L389.08 -156.614L389.082 -156.611L389.084 -156.609L389.086 -156.606L389.088 -156.604L389.09 -156.601L389.092 -156.599L389.094 -156.596L389.096 -156.594L389.099 -156.591L389.101 -156.589L389.103 -156.586L389.105 -156.584L389.107 -156.581L389.109 -156.579L389.111 -156.576L389.113 -156.574L389.115 -156.571L389.118 -156.569L389.12 -156.566L389.122 -156.564L389.124 -156.561L389.126 -156.559L389.128 -156.556L389.13 -156.554L389.132 -156.551L389.134 -156.549L389.136 -156.546L389.139 -156.544L389.141 -156.541L389.143 -156.539L389.145 -156.536L389.147 -156.534L389.149 -156.532L389.151 -156.529L389.153 -156.527L389.155 -156.524L389.158 -156.522L389.16 -156.519L389.162 -156.517L389.164 -156.514L389.166 -156.512L389.168 -156.509L389.17 -156.507L389.172 -156.504L389.174 -156.502L389.177 -156.499L389.179 -156.497L389.181 -156.494L389.183 -156.492L389.185 -156.489L389.187 -156.487L389.189 -156.484L389.191 -156.482L389.193 -156.479L389.196 -156.477L389.198 -156.474L389.2 -156.472L389.202 -156.469L389.204 -156.467L389.206 -156.464L389.208 -156.462L389.21 -156.459L389.212 -156.457L389.215 -156.454L389.217 -156.452L389.219 -156.449L389.221 -156.447L389.223 -156.444L389.225 -156.442L389.227 -156.439L389.229 -156.437L389.231 -156.434L389.234 -156.432L389.236 -156.429L389.238 -156.427L389.24 -156.424L389.242 -156.422L389.244 -156.419L389.246 -156.417L389.248 -156.414L389.25 -156.412L389.253 -156.409L389.255 -156.407L389.257 -156.405L389.259 -156.402L389.261 -156.4L389.263 -156.397L389.265 -156.395L389.267 -156.392L389.269 -156.39L389.272 -156.387L389.274 -156.385L389.276 -156.382L389.278 -156.38L389.28 -156.377L389.282 -156.375L389.284 -156.372L389.286 -156.37L389.288 -156.367L389.29 -156.365L389.293 -156.362L389.295 -156.36L389.297 -156.357L389.299 -156.355L389.301 -156.352L389.303 -156.35L389.305 -156.347L389.307 -156.345L389.309 -156.342L389.312 -156.34L389.314 -156.337L389.316 -156.335L389.318 -156.332L389.32 -156.33L389.322 -156.328L389.324 -156.325L389.326 -156.323L389.328 -156.32L389.33 -156.318L389.332 -156.315L389.335 -156.313L389.337 -156.31L389.339 -156.308L389.341 -156.305L389.343 -156.303L389.345 -156.3L389.347 -156.298L389.349 -156.295L389.351 -156.293L389.353 -156.29L389.356 -156.288L389.358 -156.286L389.36 -156.283L389.362 -156.281L389.364 -156.278L389.366 -156.276L389.368 -156.273L389.37 -156.271L389.372 -156.268L389.374 -156.266L389.376 -156.263L389.378 -156.261L389.381 -156.258L389.383 -156.256L389.385 -156.254L389.387 -156.251L389.389 -156.249L389.391 -156.246L389.393 -156.244L389.395 -156.241L389.397 -156.239L389.399 -156.236L389.401 -156.234L389.403 -156.231L389.406 -156.229L389.408 -156.227L389.41 -156.224L389.412 -156.222L389.414 -156.219L389.416 -156.217L389.418 -156.214L389.42 -156.212L389.422 -156.209L389.424 -156.207L389.426 -156.205L389.428 -156.202L389.43 -156.2L389.432 -156.197L389.435 -156.195L389.437 -156.192L389.439 -156.19L389.441 -156.187L389.443 -156.185L389.445 -156.183L389.447 -156.18L389.449 -156.178L389.451 -156.175L389.453 -156.173L389.455 -156.17L389.457 -156.168L389.459 -156.166L389.461 -156.163L389.463 -156.161L389.465 -156.158L389.467 -156.156L389.469 -156.154L389.472 -156.151L389.474 -156.149L389.476 -156.146L389.478 -156.144L389.48 -156.141L389.482 -156.139L389.484 -156.137L389.486 -156.134L389.488 -156.132L389.49 -156.129L389.492 -156.127L389.494 -156.125L389.496 -156.122L389.498 -156.12L389.5 -156.117L389.502 -156.115L389.504 -156.113L389.506 -156.11L389.508 -156.108L389.51 -156.105L389.512 -156.103L389.514 -156.101L389.516 -156.098L389.518 -156.096L389.52 -156.093L389.522 -156.091L389.524 -156.089L389.526 -156.086L389.529 -156.084L389.531 -156.081L389.533 -156.079L389.535 -156.077L389.537 -156.074L389.539 -156.072L389.541 -156.07L389.543 -156.067L389.545 -156.065L389.547 -156.062L389.549 -156.06L389.551 -156.058L389.553 -156.055L389.555 -156.053L389.557 -156.051L389.559 -156.048L389.561 -156.046L389.563 -156.044L389.565 -156.041L389.567 -156.039L389.569 -156.036L389.571 -156.034L389.573 -156.032L389.575 -156.029L389.577 -156.027L389.579 -156.025L389.581 -156.022L389.583 -156.02L389.585 -156.018L389.587 -156.015L389.589 -156.013L389.591 -156.011L389.593 -156.008L389.595 -156.006L389.596 -156.004L389.598 -156.001L389.6 -155.999L389.602 -155.997L389.604 -155.994L389.606 -155.992L389.608 -155.99L389.61 -155.987L389.612 -155.985L389.614 -155.983L389.616 -155.98L389.618 -155.978L389.62 -155.976L389.622 -155.973L389.624 -155.971L389.626 -155.969L389.628 -155.967L389.63 -155.964L389.632 -155.962L389.634 -155.96L389.636 -155.957L389.638 -155.955L389.64 -155.953L389.642 -155.95L389.644 -155.948L389.645 -155.946L389.647 -155.944L389.649 -155.941L389.651 -155.939L389.653 -155.937L389.655 -155.934L389.657 -155.932L389.659 -155.93L389.661 -155.928L389.663 -155.925L389.665 -155.923L389.667 -155.921L389.669 -155.919L389.671 -155.916L389.672 -155.914L389.674 -155.912L389.676 -155.91L389.678 -155.907L389.68 -155.905L389.682 -155.903L389.684 -155.9L389.686 -155.898L389.688 -155.896L389.69 -155.894L389.692 -155.892L389.693 -155.889L389.695 -155.887L389.697 -155.885L389.699 -155.883L389.701 -155.88L389.703 -155.878L389.705 -155.876L389.707 -155.874L389.709 -155.871L389.71 -155.869L389.712 -155.867L389.714 -155.865L389.716 -155.863L389.731 -155.845L389.75 -155.83C390.956 -154.877 391.97 -153.516 392.597 -152.036C393.225 -150.555 393.457 -148.973 393.125 -147.573C392.795 -146.183 391.904 -144.953 390.242 -144.163C388.572 -143.369 386.112 -143.014 382.646 -143.417C374.848 -144.829 366.49 -142.818 359.869 -137.207C354.783 -132.896 351.628 -127.276 350.482 -121.23C350.466 -121.158 350.45 -121.084 350.434 -121.009C350.224 -120.048 349.968 -118.878 349.619 -117.719C349.241 -116.466 348.758 -115.246 348.119 -114.331C347.48 -113.417 346.708 -112.838 345.75 -112.792C344.788 -112.747 343.567 -113.235 342.023 -114.625C340.94 -116.478 339.575 -118.089 338.146 -119.774L338.14 -119.782C319.397 -141.898 286.041 -144.612 263.666 -125.649C244.07 -109.041 239.539 -81.2449 251.4 -59.6747L251.401 -59.672C251.404 -59.6605 251.409 -59.6446 251.414 -59.6248C251.417 -59.6165 251.419 -59.6075 251.422 -59.5979C251.441 -59.5322 251.467 -59.4347 251.497 -59.3097C251.558 -59.0597 251.633 -58.7005 251.693 -58.2665C251.813 -57.3967 251.868 -56.2366 251.616 -55.0581C251.365 -53.8822 250.811 -52.6934 249.714 -51.7495C248.62 -50.8074 246.965 -50.0912 244.48 -49.8946C236.364 -50.5293 228.165 -48.1542 221.457 -42.469C208.419 -31.4198 206.561 -12.0324 217.151 1.0657L217.158 1.07971C217.165 1.09295 217.174 1.11021 217.185 1.13132C217.192 1.14569 217.2 1.16185 217.209 1.17976C217.254 1.26822 217.317 1.3992 217.393 1.56731C217.544 1.90364 217.745 2.38784 217.941 2.9767C218.333 4.15672 218.7 5.74557 218.617 7.40221C218.533 9.05484 218.001 10.7695 216.6 12.2222C215.2 13.6729 212.912 14.885 209.271 15.4944C200.837 14.4842 191.94 16.8038 184.946 22.7305C171.711 33.9474 170.003 53.7143 181.139 66.8538C188.724 75.8042 200.329 79.3825 211.182 77.2172L211.184 77.2167L211.184 77.2167L211.185 77.2165L211.19 77.2156L211.21 77.2115C211.219 77.2099 211.229 77.208 211.242 77.2057C211.257 77.203 211.275 77.1999 211.295 77.1964C211.37 77.1838 211.482 77.1667 211.625 77.1493C211.911 77.1147 212.323 77.0793 212.819 77.0772C213.813 77.0731 215.141 77.2027 216.486 77.7327C217.829 78.2617 219.192 79.1902 220.265 80.791C221.337 82.3897 222.129 84.6733 222.308 87.9285C221.829 91.4735 222.756 95.3069 225.359 98.3782C230.169 104.054 238.651 104.63 244.269 99.869C246.496 97.9817 247.972 95.412 248.657 92.6942L248.665 92.6748C248.674 92.6531 248.687 92.6205 248.705 92.578C248.741 92.4929 248.797 92.3682 248.872 92.2127C249.024 91.9014 249.255 91.467 249.575 90.9781C250.216 89.9988 251.206 88.8103 252.605 87.95C254 87.0925 255.81 86.5562 258.109 86.8865C260.414 87.2174 263.226 88.4214 266.614 91.076C285.864 106.448 313.905 106.595 333.592 90.0824L333.695 90.1585Z" fill="#F78DC5" stroke="black" stroke-width="0.469433"/>
<path d="M376.689 160.289C397.331 142.794 401.41 113.111 387.111 91.1688C387.106 91.1498 387.101 91.1238 387.093 91.0912C387.077 91.0143 387.053 90.9009 387.027 90.7569C386.974 90.4688 386.91 90.0587 386.863 89.5729C386.768 88.5984 386.747 87.3327 387.027 86.1393C387.306 84.947 387.881 83.8495 388.961 83.1698C390.042 82.4898 391.674 82.1997 394.13 82.7192L394.135 82.7202C403.145 84.407 412.94 82.1583 420.517 75.7368C428.086 69.3214 431.911 60.0397 431.652 50.7887C431.656 50.7722 431.661 50.7478 431.668 50.7161C431.683 50.6508 431.706 50.5547 431.739 50.4334C431.804 50.1906 431.905 49.8472 432.05 49.4476C432.342 48.6463 432.808 47.6287 433.505 46.742C434.202 45.8562 435.121 45.1122 436.32 44.8308C437.514 44.5509 439.021 44.7206 440.915 45.7267C456.847 58.4946 480.169 58.4643 496.433 44.6806C514.904 29.0263 517.292 1.37668 501.752 -16.9597C500.14 -18.8616 498.419 -20.5043 496.606 -22.063L496.598 -22.0693L496.597 -22.0698L496.594 -22.0725L496.579 -22.0845C496.565 -22.0955 496.545 -22.1123 496.519 -22.1347C496.466 -22.1795 496.389 -22.2469 496.293 -22.3355C496.102 -22.5127 495.839 -22.7742 495.551 -23.1092C494.974 -23.7808 494.308 -24.7397 493.928 -25.8999C493.549 -27.056 493.454 -28.4132 494.02 -29.8966C494.585 -31.3769 495.816 -33.0045 498.126 -34.689C500.958 -35.6244 503.751 -37.1795 506.144 -39.2076C516.522 -48.003 517.95 -63.4712 509.215 -73.7772C508.177 -75.0029 507.039 -76.1541 505.711 -77.1477C505.702 -77.1624 505.691 -77.1812 505.679 -77.2041C505.663 -77.2326 505.644 -77.2673 505.622 -77.3079C505.595 -77.3583 505.564 -77.4177 505.53 -77.4858C505.407 -77.7314 505.243 -78.0873 505.083 -78.525C504.763 -79.4023 504.462 -80.5984 504.526 -81.8909C504.589 -83.1789 505.014 -84.565 506.15 -85.8364C507.288 -87.1101 509.155 -88.2851 512.13 -89.1202C514.056 -89.5972 515.931 -90.5263 517.577 -91.9208C523.292 -96.7647 523.935 -105.24 519.207 -110.82C514.478 -116.4 505.916 -117.073 500.297 -112.31C499.14 -111.33 498.239 -110.239 497.501 -108.959C496.182 -107.488 494.91 -106.635 493.735 -106.271C492.561 -105.906 491.471 -106.025 490.501 -106.519C488.546 -107.514 487.033 -110.061 486.402 -113.385C485.51 -118.524 483.175 -123.418 479.627 -127.605C468.491 -140.745 448.711 -142.301 435.476 -131.084C422.241 -119.867 420.533 -100.1 431.669 -86.9608L431.671 -86.9586L431.672 -86.9563L431.674 -86.9541L431.676 -86.9519L431.678 -86.9497L431.68 -86.9474L431.682 -86.9452L431.684 -86.943L431.686 -86.9408L431.688 -86.9385L431.689 -86.9363L431.691 -86.934L431.693 -86.9318L431.695 -86.9296L431.697 -86.9273L431.699 -86.9251L431.701 -86.9228L431.703 -86.9206L431.705 -86.9183L431.707 -86.9161L431.709 -86.9138L431.71 -86.9115L431.712 -86.9093L431.714 -86.907L431.716 -86.9047L431.718 -86.9025L431.72 -86.9002L431.722 -86.8979L431.724 -86.8957L431.726 -86.8934L431.728 -86.8911L431.73 -86.8888L431.732 -86.8866L431.734 -86.8843L431.735 -86.882L431.737 -86.8797L431.739 -86.8774L431.741 -86.8751L431.743 -86.8728L431.745 -86.8705L431.747 -86.8683L431.749 -86.866L431.751 -86.8637L431.753 -86.8614L431.755 -86.8591L431.757 -86.8567L431.759 -86.8544L431.761 -86.8521L431.763 -86.8498L431.765 -86.8475L431.767 -86.8452L431.769 -86.8429L431.771 -86.8406L431.773 -86.8382L431.775 -86.8359L431.776 -86.8336L431.778 -86.8313L431.78 -86.829L431.782 -86.8266L431.784 -86.8243L431.786 -86.822L431.788 -86.8196L431.79 -86.8173L431.792 -86.815L431.794 -86.8126L431.796 -86.8103L431.798 -86.808L431.8 -86.8056L431.802 -86.8033L431.804 -86.8009L431.806 -86.7986L431.808 -86.7962L431.81 -86.7939L431.812 -86.7915L431.814 -86.7892L431.816 -86.7868L431.818 -86.7845L431.82 -86.7821L431.822 -86.7798L431.824 -86.7774L431.826 -86.775L431.828 -86.7727L431.83 -86.7703L431.832 -86.7679L431.834 -86.7656L431.836 -86.7632L431.838 -86.7608L431.84 -86.7585L431.842 -86.7561L431.844 -86.7537L431.846 -86.7513L431.848 -86.749L431.85 -86.7466L431.852 -86.7442L431.854 -86.7418L431.856 -86.7394L431.858 -86.7371L431.86 -86.7347L431.862 -86.7323L431.864 -86.7299L431.866 -86.7275L431.868 -86.7251L431.87 -86.7227L431.872 -86.7203L431.874 -86.7179L431.877 -86.7156L431.879 -86.7132L431.881 -86.7108L431.883 -86.7084L431.885 -86.706L431.887 -86.7036L431.889 -86.7011L431.891 -86.6987L431.893 -86.6963L431.895 -86.6939L431.897 -86.6915L431.899 -86.6891L431.901 -86.6867L431.903 -86.6843L431.905 -86.6819L431.907 -86.6795L431.909 -86.6771L431.911 -86.6746L431.913 -86.6722L431.915 -86.6698L431.917 -86.6674L431.919 -86.665L431.921 -86.6625L431.924 -86.6601L431.926 -86.6577L431.928 -86.6553L431.93 -86.6528L431.932 -86.6504L431.934 -86.648L431.936 -86.6456L431.938 -86.6431L431.94 -86.6407L431.942 -86.6383L431.944 -86.6358L431.946 -86.6334L431.948 -86.631L431.95 -86.6285L431.952 -86.6261L431.954 -86.6237L431.956 -86.6212L431.959 -86.6188L431.961 -86.6163L431.963 -86.6139L431.965 -86.6114L431.967 -86.609L431.969 -86.6066L431.971 -86.6041L431.973 -86.6017L431.975 -86.5992L431.977 -86.5968L431.979 -86.5943L431.981 -86.5919L431.983 -86.5894L431.986 -86.587L431.988 -86.5845L431.99 -86.5821L431.992 -86.5796L431.994 -86.5772L431.996 -86.5747L431.998 -86.5723L432 -86.5698L432.002 -86.5673L432.004 -86.5649L432.006 -86.5624L432.008 -86.56L432.01 -86.5575L432.013 -86.555L432.015 -86.5526L432.017 -86.5501L432.019 -86.5476L432.021 -86.5452L432.023 -86.5427L432.025 -86.5403L432.027 -86.5378L432.029 -86.5353L432.031 -86.5329L432.033 -86.5304L432.036 -86.5279L432.038 -86.5254L432.04 -86.523L432.042 -86.5205L432.044 -86.518L432.046 -86.5156L432.048 -86.5131L432.05 -86.5106L432.052 -86.5081L432.054 -86.5057L432.056 -86.5032L432.059 -86.5007L432.061 -86.4982L432.063 -86.4958L432.065 -86.4933L432.067 -86.4908L432.069 -86.4883L432.071 -86.4859L432.073 -86.4834L432.075 -86.4809L432.077 -86.4784L432.08 -86.4759L432.082 -86.4735L432.084 -86.471L432.086 -86.4685L432.088 -86.466L432.09 -86.4635L432.092 -86.4611L432.094 -86.4586L432.096 -86.4561L432.099 -86.4536L432.101 -86.4511L432.103 -86.4486L432.105 -86.4462L432.107 -86.4437L432.109 -86.4412L432.111 -86.4387L432.113 -86.4362L432.115 -86.4337L432.117 -86.4312L432.12 -86.4288L432.122 -86.4263L432.124 -86.4238L432.126 -86.4213L432.128 -86.4188L432.13 -86.4163L432.132 -86.4138L432.134 -86.4113L432.136 -86.4089L432.139 -86.4064L432.141 -86.4039L432.143 -86.4014L432.145 -86.3989L432.147 -86.3964L432.149 -86.3939L432.151 -86.3914L432.153 -86.3889L432.155 -86.3864L432.158 -86.384L432.16 -86.3815L432.162 -86.379L432.164 -86.3765L432.166 -86.374L432.168 -86.3715L432.17 -86.369L432.172 -86.3665L432.174 -86.364L432.177 -86.3615L432.179 -86.359L432.181 -86.3566L432.183 -86.3541L432.185 -86.3516L432.187 -86.3491L432.189 -86.3466L432.191 -86.3441L432.193 -86.3416L432.196 -86.3391L432.198 -86.3366L432.2 -86.3341L432.202 -86.3316L432.204 -86.3292L432.206 -86.3267L432.208 -86.3242L432.21 -86.3217L432.212 -86.3192L432.215 -86.3167L432.217 -86.3142L432.219 -86.3117L432.221 -86.3092L432.223 -86.3067L432.225 -86.3042L432.227 -86.3018L432.229 -86.2993L432.231 -86.2968L432.234 -86.2943L432.236 -86.2918L432.238 -86.2893L432.24 -86.2868L432.242 -86.2843L432.244 -86.2818L432.246 -86.2794L432.248 -86.2769L432.25 -86.2744L432.253 -86.2719L432.255 -86.2694L432.257 -86.2669L432.259 -86.2644L432.261 -86.2619L432.263 -86.2595L432.265 -86.257L432.267 -86.2545L432.269 -86.252L432.271 -86.2495L432.274 -86.247L432.276 -86.2445L432.278 -86.2421L432.28 -86.2396L432.282 -86.2371L432.284 -86.2346L432.286 -86.2321L432.288 -86.2296L432.29 -86.2272L432.293 -86.2247L432.295 -86.2222L432.297 -86.2197L432.299 -86.2172L432.301 -86.2148L432.303 -86.2123L432.305 -86.2098L432.307 -86.2073L432.309 -86.2048L432.311 -86.2024L432.314 -86.1999L432.316 -86.1974L432.318 -86.1949L432.32 -86.1925L432.322 -86.19L432.324 -86.1875L432.326 -86.185L432.328 -86.1826L432.33 -86.1801L432.332 -86.1776L432.335 -86.1751L432.337 -86.1727L432.339 -86.1702L432.341 -86.1677L432.343 -86.1653L432.345 -86.1628L432.347 -86.1603L432.349 -86.1579L432.351 -86.1554L432.353 -86.1529L432.355 -86.1505L432.358 -86.148L432.36 -86.1455L432.362 -86.1431L432.364 -86.1406L432.366 -86.1381L432.368 -86.1357L432.37 -86.1332L432.372 -86.1308L432.374 -86.1283L432.376 -86.1259L432.378 -86.1234L432.38 -86.1209L432.383 -86.1185L432.385 -86.116L432.387 -86.1136L432.389 -86.1111L432.391 -86.1087L432.393 -86.1062L432.395 -86.1038L432.397 -86.1013L432.399 -86.0989L432.401 -86.0964L432.403 -86.094L432.405 -86.0915L432.407 -86.0891L432.41 -86.0866L432.412 -86.0842L432.414 -86.0817L432.416 -86.0793L432.418 -86.0769L432.42 -86.0744L432.422 -86.072L432.424 -86.0695L432.426 -86.0671L432.428 -86.0647L432.43 -86.0622L432.432 -86.0598L432.434 -86.0574L432.436 -86.0549L432.438 -86.0525L432.441 -86.0501L432.443 -86.0476L432.445 -86.0452L432.447 -86.0428L432.449 -86.0403L432.451 -86.0379L432.453 -86.0355L432.455 -86.0331L432.457 -86.0306L432.459 -86.0282L432.461 -86.0258L432.463 -86.0234L432.465 -86.021L432.467 -86.0185L432.469 -86.0161L432.471 -86.0137L432.473 -86.0113L432.475 -86.0089L432.477 -86.0065L432.48 -86.0041L432.482 -86.0017L432.484 -85.9993L432.486 -85.9968L432.488 -85.9944L432.49 -85.992L432.492 -85.9896L432.494 -85.9872L432.496 -85.9848L432.498 -85.9824L432.5 -85.98L432.502 -85.9776L432.504 -85.9752L432.506 -85.9728L432.508 -85.9705L432.51 -85.9681L432.512 -85.9657L432.514 -85.9633L432.516 -85.9609L432.518 -85.9585L432.52 -85.9561L432.522 -85.9537L432.524 -85.9514L432.526 -85.949L432.528 -85.9466L432.53 -85.9442L432.532 -85.9418L432.534 -85.9395L432.536 -85.9371L432.538 -85.9347L432.54 -85.9323L432.542 -85.93L432.544 -85.9276L432.546 -85.9252L432.548 -85.9229L432.55 -85.9205L432.552 -85.9181L432.554 -85.9158L432.556 -85.9134L432.558 -85.9111L432.56 -85.9087L432.562 -85.9064L432.564 -85.904L432.566 -85.9016L432.568 -85.8993L432.57 -85.8969L432.572 -85.8946L432.574 -85.8923L432.576 -85.8899L432.578 -85.8876L432.58 -85.8852L432.582 -85.8829L432.584 -85.8805L432.586 -85.8782L432.588 -85.8759L432.59 -85.8735L432.592 -85.8712L432.594 -85.8689L432.596 -85.8666L432.598 -85.8642L432.6 -85.8619L432.602 -85.8596L432.604 -85.8573L432.606 -85.8549L432.608 -85.8526L432.61 -85.8503L432.612 -85.848L432.614 -85.8457L432.616 -85.8434L432.618 -85.8411L432.62 -85.8387L432.622 -85.8364L432.624 -85.8341L432.625 -85.8318L432.627 -85.8295L432.629 -85.8272L432.631 -85.8249L432.633 -85.8226L432.635 -85.8203L432.637 -85.8181L432.639 -85.8158L432.641 -85.8135L432.643 -85.8112L432.645 -85.8089L432.647 -85.8066L432.649 -85.8043L432.651 -85.8021L432.653 -85.7998L432.655 -85.7975L432.656 -85.7952L432.658 -85.793L432.66 -85.7907L432.662 -85.7884L432.664 -85.7862L432.666 -85.7839L432.668 -85.7816L432.67 -85.7794L432.672 -85.7771L432.674 -85.7749L432.676 -85.7726L432.678 -85.7704L432.679 -85.7681L432.681 -85.7659L432.683 -85.7636L432.685 -85.7614L432.687 -85.7591L432.689 -85.7569L432.691 -85.7547L432.693 -85.7524L432.695 -85.7502L432.697 -85.748L432.698 -85.7457L432.7 -85.7435L432.702 -85.7413L432.704 -85.7391L432.706 -85.7369L432.708 -85.7346L432.71 -85.7324L432.725 -85.7146L432.743 -85.7C433.949 -84.7467 434.964 -83.386 435.591 -81.906C436.218 -80.425 436.45 -78.8429 436.118 -77.4432C435.788 -76.0526 434.897 -74.8227 433.236 -74.0325C431.566 -73.2387 429.105 -72.8835 425.639 -73.2868C417.842 -74.6991 409.484 -72.6881 402.863 -67.0767C397.777 -62.7662 394.621 -57.1459 393.476 -51.0996C393.46 -51.0274 393.444 -50.9539 393.428 -50.8791C393.218 -49.9183 392.962 -48.7478 392.612 -47.5889C392.234 -46.336 391.752 -45.1159 391.113 -44.2008C390.474 -43.287 389.702 -42.7077 388.744 -42.6623C387.781 -42.6166 386.561 -43.1053 385.017 -44.4945C383.934 -46.3475 382.568 -47.9585 381.14 -49.6441L381.133 -49.6518C362.39 -71.7674 329.034 -74.4817 306.66 -55.5191C287.063 -38.9112 282.533 -11.1148 294.393 10.4554L294.394 10.4581C294.398 10.4697 294.402 10.4855 294.408 10.5054C294.411 10.5136 294.413 10.5226 294.416 10.5322C294.434 10.5979 294.461 10.6954 294.491 10.8204C294.552 11.0704 294.627 11.4297 294.687 11.8636C294.807 12.7334 294.862 13.8935 294.61 15.072C294.359 16.248 293.804 17.4367 292.708 18.3806C291.613 19.3227 289.958 20.0389 287.473 20.2355C279.358 19.6008 271.159 21.9759 264.45 27.6612C251.413 38.7104 249.554 58.0977 260.145 71.1958L260.152 71.2098C260.159 71.2231 260.168 71.2403 260.179 71.2615C260.186 71.2758 260.194 71.292 260.203 71.3099C260.247 71.3983 260.311 71.5293 260.386 71.6974C260.538 72.0338 260.739 72.518 260.935 73.1068C261.327 74.2868 261.694 75.8757 261.61 77.5323C261.527 79.185 260.995 80.8996 259.594 82.3523C258.194 83.803 255.905 85.0152 252.265 85.6245C243.831 84.6143 234.933 86.9339 227.94 92.8607C214.705 104.078 212.997 123.844 224.133 136.984C231.718 145.934 243.323 149.513 254.176 147.347L254.178 147.347L254.178 147.347L254.179 147.347L254.183 147.346L254.204 147.342C254.213 147.34 254.223 147.338 254.235 147.336C254.25 147.333 254.268 147.33 254.289 147.327C254.364 147.314 254.476 147.297 254.619 147.279C254.905 147.245 255.316 147.209 255.813 147.207C256.807 147.203 258.134 147.333 259.48 147.863C260.822 148.392 262.186 149.32 263.259 150.921C264.33 152.52 265.122 154.803 265.302 158.059C264.822 161.604 265.749 165.437 268.352 168.508C273.163 174.184 281.645 174.76 287.263 169.999C289.49 168.112 290.966 165.542 291.651 162.824L291.659 162.805C291.667 162.783 291.681 162.751 291.699 162.708C291.735 162.623 291.791 162.498 291.866 162.343C292.017 162.031 292.249 161.597 292.569 161.108C293.21 160.129 294.2 158.94 295.599 158.08C296.994 157.223 298.804 156.686 301.103 157.017C303.407 157.348 306.22 158.551 309.607 161.206C328.857 176.578 356.899 176.725 376.586 160.213L376.689 160.289Z" fill="#F78DC5" stroke="black" stroke-width="0.469433"/>
<path d="M459.542 58.5862C438.9 76.0806 408.949 75.2372 389.649 57.5337C389.631 57.5262 389.606 57.5162 389.575 57.5038C389.502 57.4748 389.394 57.4331 389.256 57.3834C388.981 57.2841 388.587 57.1531 388.115 57.0271C387.169 56.7744 385.924 56.5457 384.701 56.626C383.479 56.7063 382.302 57.0928 381.455 58.0471C380.607 59.0017 380.053 60.5643 380.163 63.0722L380.163 63.0777C380.349 72.2423 376.525 81.5355 368.948 87.9571C361.378 94.3725 351.595 96.6233 342.512 94.851C342.495 94.8518 342.47 94.8531 342.438 94.8551C342.371 94.8592 342.272 94.8664 342.147 94.8784C341.897 94.9025 341.542 94.9461 341.124 95.024C340.285 95.1803 339.205 95.4729 338.216 96.0156C337.228 96.5578 336.343 97.3423 335.869 98.4793C335.397 99.6106 335.318 101.125 335.999 103.159C345.982 120.968 342.128 143.97 325.865 157.753C307.393 173.408 279.726 171.23 264.186 152.894C262.574 150.992 261.236 149.024 259.996 146.98L259.991 146.971L259.991 146.971L259.989 146.967L259.979 146.95C259.97 146.935 259.957 146.912 259.939 146.883C259.904 146.823 259.85 146.736 259.778 146.627C259.635 146.41 259.42 146.107 259.137 145.769C258.569 145.089 257.732 144.274 256.65 143.709C255.572 143.146 254.248 142.83 252.692 143.146C251.139 143.46 249.332 144.408 247.292 146.409C245.904 149.05 243.912 151.551 241.519 153.579C231.141 162.374 215.648 161.246 206.914 150.94C205.875 149.714 204.926 148.404 204.164 146.93C204.151 146.919 204.134 146.906 204.113 146.889C204.088 146.869 204.057 146.844 204.02 146.816C203.975 146.781 203.921 146.741 203.86 146.696C203.638 146.534 203.314 146.315 202.908 146.085C202.095 145.625 200.964 145.133 199.679 144.983C198.398 144.835 196.961 145.026 195.521 145.939C194.078 146.852 192.612 148.501 191.301 151.299C190.514 153.122 189.29 154.819 187.645 156.213C181.929 161.057 173.463 160.302 168.735 154.723C164.005 149.142 164.746 140.586 170.365 135.824C171.522 134.843 172.746 134.133 174.129 133.615C175.797 132.556 176.846 131.44 177.398 130.341C177.95 129.243 178.012 128.148 177.684 127.11C177.023 125.019 174.759 123.108 171.583 121.941C166.659 120.219 162.215 117.113 158.666 112.926C147.53 99.7861 149.238 80.0192 162.474 68.8023C175.709 57.5855 195.488 59.1417 206.624 72.2811L206.626 72.2834L206.628 72.2856L206.63 72.2878L206.631 72.29L206.633 72.2922L206.635 72.2945L206.637 72.2967L206.639 72.2989L206.641 72.3012L206.643 72.3034L206.645 72.3056L206.647 72.3079L206.649 72.3101L206.65 72.3124L206.652 72.3146L206.654 72.3169L206.656 72.3191L206.658 72.3214L206.66 72.3236L206.662 72.3259L206.664 72.3281L206.666 72.3304L206.668 72.3326L206.67 72.3349L206.671 72.3372L206.673 72.3394L206.675 72.3417L206.677 72.344L206.679 72.3462L206.681 72.3485L206.683 72.3508L206.685 72.3531L206.687 72.3554L206.689 72.3576L206.691 72.3599L206.693 72.3622L206.695 72.3645L206.697 72.3668L206.698 72.3691L206.7 72.3714L206.702 72.3737L206.704 72.376L206.706 72.3783L206.708 72.3806L206.71 72.3829L206.712 72.3852L206.714 72.3875L206.716 72.3898L206.718 72.3921L206.72 72.3944L206.722 72.3967L206.724 72.399L206.726 72.4013L206.728 72.4037L206.73 72.406L206.732 72.4083L206.734 72.4106L206.736 72.413L206.738 72.4153L206.74 72.4176L206.742 72.4199L206.744 72.4223L206.746 72.4246L206.748 72.4269L206.75 72.4293L206.751 72.4316L206.753 72.434L206.755 72.4363L206.757 72.4386L206.759 72.441L206.761 72.4433L206.763 72.4457L206.765 72.448L206.767 72.4504L206.769 72.4527L206.771 72.4551L206.773 72.4574L206.775 72.4598L206.777 72.4622L206.779 72.4645L206.781 72.4669L206.783 72.4692L206.785 72.4716L206.787 72.474L206.789 72.4763L206.791 72.4787L206.793 72.4811L206.795 72.4834L206.797 72.4858L206.799 72.4882L206.801 72.4906L206.803 72.4929L206.805 72.4953L206.807 72.4977L206.81 72.5001L206.812 72.5025L206.814 72.5048L206.816 72.5072L206.818 72.5096L206.82 72.512L206.822 72.5144L206.824 72.5168L206.826 72.5192L206.828 72.5216L206.83 72.524L206.832 72.5264L206.834 72.5288L206.836 72.5312L206.838 72.5336L206.84 72.536L206.842 72.5384L206.844 72.5408L206.846 72.5432L206.848 72.5456L206.85 72.548L206.852 72.5504L206.854 72.5528L206.856 72.5552L206.858 72.5576L206.86 72.56L206.862 72.5624L206.864 72.5649L206.866 72.5673L206.869 72.5697L206.871 72.5721L206.873 72.5745L206.875 72.577L206.877 72.5794L206.879 72.5818L206.881 72.5842L206.883 72.5866L206.885 72.5891L206.887 72.5915L206.889 72.5939L206.891 72.5964L206.893 72.5988L206.895 72.6012L206.897 72.6037L206.899 72.6061L206.901 72.6085L206.903 72.611L206.906 72.6134L206.908 72.6158L206.91 72.6183L206.912 72.6207L206.914 72.6231L206.916 72.6256L206.918 72.628L206.92 72.6305L206.922 72.6329L206.924 72.6354L206.926 72.6378L206.928 72.6402L206.93 72.6427L206.932 72.6451L206.935 72.6476L206.937 72.65L206.939 72.6525L206.941 72.6549L206.943 72.6574L206.945 72.6598L206.947 72.6623L206.949 72.6648L206.951 72.6672L206.953 72.6697L206.955 72.6721L206.957 72.6746L206.959 72.677L206.962 72.6795L206.964 72.682L206.966 72.6844L206.968 72.6869L206.97 72.6893L206.972 72.6918L206.974 72.6943L206.976 72.6967L206.978 72.6992L206.98 72.7017L206.982 72.7041L206.985 72.7066L206.987 72.7091L206.989 72.7115L206.991 72.714L206.993 72.7165L206.995 72.7189L206.997 72.7214L206.999 72.7239L207.001 72.7263L207.003 72.7288L207.005 72.7313L207.008 72.7338L207.01 72.7362L207.012 72.7387L207.014 72.7412L207.016 72.7437L207.018 72.7461L207.02 72.7486L207.022 72.7511L207.024 72.7536L207.026 72.7561L207.029 72.7585L207.031 72.761L207.033 72.7635L207.035 72.766L207.037 72.7684L207.039 72.7709L207.041 72.7734L207.043 72.7759L207.045 72.7784L207.047 72.7809L207.05 72.7833L207.052 72.7858L207.054 72.7883L207.056 72.7908L207.058 72.7933L207.06 72.7958L207.062 72.7982L207.064 72.8007L207.066 72.8032L207.069 72.8057L207.071 72.8082L207.073 72.8107L207.075 72.8132L207.077 72.8156L207.079 72.8181L207.081 72.8206L207.083 72.8231L207.085 72.8256L207.087 72.8281L207.09 72.8306L207.092 72.8331L207.094 72.8355L207.096 72.838L207.098 72.8405L207.1 72.843L207.102 72.8455L207.104 72.848L207.106 72.8505L207.109 72.853L207.111 72.8555L207.113 72.858L207.115 72.8604L207.117 72.8629L207.119 72.8654L207.121 72.8679L207.123 72.8704L207.125 72.8729L207.128 72.8754L207.13 72.8779L207.132 72.8804L207.134 72.8829L207.136 72.8854L207.138 72.8878L207.14 72.8903L207.142 72.8928L207.144 72.8953L207.147 72.8978L207.149 72.9003L207.151 72.9028L207.153 72.9053L207.155 72.9078L207.157 72.9103L207.159 72.9128L207.161 72.9153L207.163 72.9177L207.166 72.9202L207.168 72.9227L207.17 72.9252L207.172 72.9277L207.174 72.9302L207.176 72.9327L207.178 72.9352L207.18 72.9377L207.182 72.9402L207.185 72.9426L207.187 72.9451L207.189 72.9476L207.191 72.9501L207.193 72.9526L207.195 72.9551L207.197 72.9576L207.199 72.9601L207.201 72.9626L207.204 72.9651L207.206 72.9675L207.208 72.97L207.21 72.9725L207.212 72.975L207.214 72.9775L207.216 72.98L207.218 72.9825L207.22 72.9849L207.223 72.9874L207.225 72.9899L207.227 72.9924L207.229 72.9949L207.231 72.9974L207.233 72.9999L207.235 73.0023L207.237 73.0048L207.239 73.0073L207.241 73.0098L207.244 73.0123L207.246 73.0148L207.248 73.0172L207.25 73.0197L207.252 73.0222L207.254 73.0247L207.256 73.0272L207.258 73.0296L207.26 73.0321L207.263 73.0346L207.265 73.0371L207.267 73.0395L207.269 73.042L207.271 73.0445L207.273 73.047L207.275 73.0495L207.277 73.0519L207.279 73.0544L207.281 73.0569L207.283 73.0594L207.286 73.0618L207.288 73.0643L207.29 73.0668L207.292 73.0692L207.294 73.0717L207.296 73.0742L207.298 73.0766L207.3 73.0791L207.302 73.0816L207.304 73.0841L207.307 73.0865L207.309 73.089L207.311 73.0915L207.313 73.0939L207.315 73.0964L207.317 73.0988L207.319 73.1013L207.321 73.1038L207.323 73.1062L207.325 73.1087L207.327 73.1111L207.329 73.1136L207.332 73.1161L207.334 73.1185L207.336 73.121L207.338 73.1234L207.34 73.1259L207.342 73.1283L207.344 73.1308L207.346 73.1333L207.348 73.1357L207.35 73.1382L207.352 73.1406L207.354 73.1431L207.357 73.1455L207.359 73.148L207.361 73.1504L207.363 73.1528L207.365 73.1553L207.367 73.1577L207.369 73.1602L207.371 73.1626L207.373 73.1651L207.375 73.1675L207.377 73.1699L207.379 73.1724L207.381 73.1748L207.383 73.1773L207.385 73.1797L207.388 73.1821L207.39 73.1846L207.392 73.187L207.394 73.1894L207.396 73.1919L207.398 73.1943L207.4 73.1967L207.402 73.1991L207.404 73.2016L207.406 73.204L207.408 73.2064L207.41 73.2088L207.412 73.2113L207.414 73.2137L207.416 73.2161L207.418 73.2185L207.42 73.2209L207.423 73.2234L207.425 73.2258L207.427 73.2282L207.429 73.2306L207.431 73.233L207.433 73.2354L207.435 73.2378L207.437 73.2403L207.439 73.2427L207.441 73.2451L207.443 73.2475L207.445 73.2499L207.447 73.2523L207.449 73.2547L207.451 73.2571L207.453 73.2595L207.455 73.2619L207.457 73.2643L207.459 73.2667L207.461 73.2691L207.463 73.2715L207.465 73.2739L207.467 73.2762L207.469 73.2786L207.471 73.281L207.473 73.2834L207.475 73.2858L207.477 73.2882L207.479 73.2906L207.481 73.2929L207.483 73.2953L207.486 73.2977L207.488 73.3001L207.49 73.3025L207.492 73.3048L207.494 73.3072L207.496 73.3096L207.498 73.3119L207.5 73.3143L207.502 73.3167L207.504 73.319L207.506 73.3214L207.508 73.3238L207.51 73.3261L207.512 73.3285L207.514 73.3309L207.516 73.3332L207.518 73.3356L207.52 73.3379L207.522 73.3403L207.524 73.3426L207.526 73.345L207.528 73.3473L207.53 73.3497L207.532 73.352L207.534 73.3544L207.535 73.3567L207.537 73.359L207.539 73.3614L207.541 73.3637L207.543 73.366L207.545 73.3684L207.547 73.3707L207.549 73.373L207.551 73.3754L207.553 73.3777L207.555 73.38L207.557 73.3823L207.559 73.3847L207.561 73.387L207.563 73.3893L207.565 73.3916L207.567 73.3939L207.569 73.3962L207.571 73.3986L207.573 73.4009L207.575 73.4032L207.577 73.4055L207.579 73.4078L207.581 73.4101L207.583 73.4124L207.585 73.4147L207.587 73.417L207.589 73.4193L207.59 73.4216L207.592 73.4239L207.594 73.4261L207.596 73.4284L207.598 73.4307L207.6 73.433L207.602 73.4353L207.604 73.4376L207.606 73.4399L207.608 73.4421L207.61 73.4444L207.612 73.4467L207.614 73.4489L207.616 73.4512L207.618 73.4535L207.619 73.4557L207.621 73.458L207.623 73.4603L207.625 73.4625L207.627 73.4648L207.629 73.467L207.631 73.4693L207.633 73.4715L207.635 73.4738L207.637 73.476L207.639 73.4783L207.64 73.4805L207.642 73.4828L207.644 73.485L207.646 73.4872L207.648 73.4895L207.65 73.4917L207.652 73.4939L207.654 73.4962L207.656 73.4984L207.657 73.5006L207.659 73.5028L207.661 73.5051L207.663 73.5073L207.665 73.5095L207.68 73.5274L207.691 73.5479C208.434 74.8938 209.61 76.1178 210.967 76.979C212.325 77.8409 213.848 78.3293 215.283 78.2311C216.709 78.1335 218.068 77.4565 219.12 75.9467C220.177 74.4299 220.931 72.0608 221.101 68.5755C220.987 60.6519 224.341 52.7371 230.962 47.1256C236.048 42.8151 242.11 40.6238 248.262 40.4852C248.336 40.4814 248.411 40.4776 248.488 40.4738C249.47 40.4243 250.666 40.364 251.867 40.2091C253.165 40.0417 254.448 39.7658 255.455 39.2851C256.461 38.8051 257.159 38.1384 257.361 37.2007C257.564 36.2587 257.282 34.9748 256.165 33.2239C254.515 31.8514 253.149 30.2405 251.721 28.5549L251.714 28.5471C232.971 6.43149 235.763 -26.9181 258.137 -45.8806C277.734 -62.4885 305.897 -62.4004 325.23 -47.1633L325.233 -47.162C325.244 -47.1567 325.259 -47.1494 325.277 -47.1405C325.285 -47.1368 325.293 -47.1328 325.302 -47.1285C325.364 -47.0993 325.456 -47.0573 325.574 -47.007C325.811 -46.9064 326.153 -46.7729 326.571 -46.6428C327.41 -46.3819 328.545 -46.1376 329.749 -46.1926C330.95 -46.2474 332.214 -46.5996 333.325 -47.5266C334.433 -48.4517 335.411 -49.9669 336.013 -52.386C336.717 -60.4959 340.405 -68.1947 347.113 -73.8799C360.15 -84.9291 379.58 -83.5837 390.764 -70.989L390.777 -70.9794C390.789 -70.9704 390.804 -70.9588 390.823 -70.9448C390.836 -70.9352 390.851 -70.9245 390.867 -70.9127C390.947 -70.8546 391.066 -70.7706 391.219 -70.6683C391.526 -70.4636 391.971 -70.186 392.52 -69.8964C393.62 -69.3162 395.127 -68.6933 396.775 -68.5043C398.419 -68.3157 400.197 -68.559 401.86 -69.7033C403.521 -70.846 405.092 -72.905 406.29 -76.3965C406.676 -84.8819 410.423 -93.2788 417.416 -99.2055C430.652 -110.422 450.431 -108.866 461.567 -95.7267C469.152 -86.7763 470.779 -74.7421 466.864 -64.391L466.863 -64.389L466.863 -64.3889L466.863 -64.388L466.861 -64.3835L466.854 -64.3638C466.851 -64.3557 466.847 -64.3457 466.843 -64.3338C466.838 -64.3195 466.832 -64.3024 466.825 -64.2826C466.8 -64.2105 466.765 -64.1032 466.724 -63.965C466.643 -63.6883 466.541 -63.2884 466.457 -62.799C466.29 -61.8191 466.2 -60.4884 466.503 -59.0742C466.804 -57.6629 467.497 -56.166 468.9 -54.8449C470.301 -53.5255 472.424 -52.3697 475.606 -51.6592C479.182 -51.5507 482.811 -50.0076 485.414 -46.9363C490.224 -41.2603 489.402 -32.7988 483.784 -28.0375C481.557 -26.1502 478.78 -25.115 475.987 -24.8851L475.966 -24.8807C475.944 -24.8757 475.909 -24.8679 475.864 -24.857C475.774 -24.8351 475.642 -24.8009 475.476 -24.7518C475.145 -24.6536 474.678 -24.4963 474.143 -24.2608C473.072 -23.789 471.737 -23.0078 470.659 -21.7683C469.585 -20.5328 468.759 -18.8356 468.708 -16.5132C468.656 -14.1858 469.383 -11.2143 471.446 -7.43706C483.454 14.0729 479.001 41.7593 459.484 58.4723L459.542 58.5862Z" fill="white" stroke="black" stroke-width="0.469433"/>
<path opacity="0.27" fill-rule="evenodd" clip-rule="evenodd" d="M485.643 26.553C499.394 14.8989 502.555 -4.51454 494.142 -19.5839C488.319 -30.2447 497.447 -32.0608 497.447 -32.0608C499.378 -32.2178 501.296 -32.9324 502.831 -34.2336C506.703 -37.5148 507.268 -43.3443 503.955 -47.2533C502.158 -49.3734 499.652 -50.4365 497.183 -50.5073C488.138 -52.5182 490.92 -59.657 490.92 -59.657C493.645 -66.8621 492.512 -75.2367 487.234 -81.4646C479.485 -90.6077 465.72 -91.6919 456.508 -83.8848C451.635 -79.7549 449.026 -73.901 448.763 -67.9859C445.369 -58.0511 437.601 -64.1041 437.601 -64.1041C429.82 -72.8787 416.29 -73.8207 407.212 -66.1268C402.539 -62.1666 399.973 -56.8039 399.485 -51.1539C397.774 -44.2399 391.673 -47.3792 391.673 -47.3792C378.176 -58.0261 358.507 -58.0914 344.823 -46.4939C329.203 -33.2557 327.255 -9.9751 340.338 5.46208C341.349 6.65466 342.303 7.78095 343.458 8.73755C346.676 13.752 340.657 13.958 337.798 14.1039C333.521 14.1998 329.306 15.7227 325.768 18.7211C321.162 22.6247 318.831 28.1295 318.912 33.6389C318.433 43.4941 311.34 41.0805 309.2 37.2021C308.976 36.9371 308.695 36.6058 308.47 36.3408C300.722 27.1977 286.956 26.1135 277.744 33.9206C268.533 41.7277 267.345 55.4844 275.094 64.6274C277.565 67.5426 280.657 69.703 284.08 70.9001C288.578 72.5528 290.662 76.365 285.884 79.3894C284.925 79.7467 284.079 80.2365 283.278 80.9154C279.406 84.1966 278.897 90.0923 282.154 93.9351C285.411 97.7778 291.243 98.2991 295.182 94.9612C296.316 93.9995 297.16 92.8293 297.701 91.5735C301.418 83.6426 307.002 88.4725 307.002 88.4725C307.532 89.5036 308.195 90.4214 308.925 91.2827C314.989 98.4382 325.748 99.2238 332.958 93.1139C334.627 91.6996 336.015 89.954 336.978 88.1131C342.793 82.388 346.161 88.5272 346.161 88.5272C347.027 89.9557 347.961 91.3277 349.084 92.6528C359.921 105.44 379.216 106.96 392.1 96.0411C403.448 86.4236 406.133 70.3735 399.162 57.9528C397.191 52.1091 403.892 51.8949 403.892 51.8949C410.219 53.1353 417.036 51.57 422.31 47.1007C427.583 42.6314 430.245 36.1632 430.115 29.7844C429.803 22.6492 437.021 25.7529 437.021 25.7529C450.492 38.129 471.414 38.7259 485.833 26.5061L485.643 26.553Z" fill="#00B2FF"/>
<circle cx="4.0952" cy="4.0952" r="3.78225" transform="matrix(-0.762878 0.646542 0.646542 0.762878 162.723 12.8756)" stroke="white" stroke-width="0.625911"/>
</g>
</svg>
