<svg width="153" height="15" viewBox="0 0 153 15" fill="none" xmlns="http://www.w3.org/2000/svg">
<path d="M152.309 4.80584C152.234 4.51784 152.084 4.32584 151.859 4.22984C150.81 3.74984 149.686 3.74984 148.637 3.55784C148.037 3.46184 147.513 3.46184 146.913 3.26984C146.539 3.17384 146.089 3.07784 145.639 3.07784C145.265 3.07784 144.89 2.88584 144.515 2.88584C144.44 2.88584 144.29 2.78984 144.216 2.88584C143.691 3.07784 143.241 2.88584 142.792 2.78984C142.342 2.69384 141.967 2.69384 141.593 2.59784C141.143 2.88584 140.768 2.40583 140.394 2.50183C139.944 2.59783 139.419 2.30984 138.97 2.40584C138.445 2.50184 137.921 2.11784 137.396 2.40584C137.321 2.40584 137.096 2.30984 136.946 2.30984C136.647 2.30984 136.272 2.21384 135.972 2.11784C135.523 2.02184 134.998 1.82983 134.548 2.02183C134.024 2.21383 133.574 1.92584 133.125 1.82984L132.375 1.92584C132.3 1.92584 132.15 2.02184 132.075 1.92584C131.476 1.63784 130.951 1.82984 130.352 1.82984C130.127 1.73384 129.827 1.82984 129.602 1.73384C128.478 1.25384 127.354 1.54184 126.23 1.54184C125.631 1.54184 125.031 1.44584 124.432 1.44584C123.457 1.44584 122.483 1.25383 121.509 1.25383C120.685 1.25383 119.86 1.25384 118.961 1.06184C118.437 0.965836 117.912 0.965843 117.387 0.965843C117.238 0.965843 117.088 1.06184 116.938 0.965843C116.188 0.869843 115.439 0.965839 114.615 0.869838C113.191 0.677839 111.692 1.06184 110.268 0.581836C110.118 0.581836 109.968 0.677841 109.819 0.677841C109.219 0.677841 108.695 0.773834 108.095 0.773834C107.795 0.773834 107.421 0.485833 107.046 0.773834C106.671 0.485833 106.296 0.581833 105.847 0.773834C105.622 0.869833 105.397 0.869833 105.172 0.773834C104.573 0.485833 104.048 0.48584 103.449 0.677841C103.149 0.773841 102.774 0.485833 102.4 0.773834C101.875 0.485833 101.201 0.773841 100.601 0.677841C100.002 0.581841 99.4021 0.485833 98.8026 0.773834C98.278 0.485833 97.6036 0.581836 97.0041 0.581836C96.7793 0.677836 96.5545 0.677841 96.3296 0.677841C96.1798 0.677841 95.9549 0.869833 95.8051 0.773834C95.5053 0.581833 95.1306 0.677841 94.7559 0.677841C94.4562 0.677841 94.0815 0.581836 93.7068 0.581836C93.1073 0.581836 92.5827 0.677836 91.9832 0.581836C91.4586 0.485836 90.9341 0.773837 90.4095 0.581836C89.8849 0.389837 89.2854 0.773834 88.7608 0.773834C86.9623 0.773834 85.2387 0.773839 83.5151 0.869838C83.0655 0.581838 82.6158 0.869838 82.1662 0.869838C81.7166 0.869838 81.2669 0.677839 80.8173 0.869838C80.5925 0.965839 80.2927 0.965843 79.993 0.965843C79.0188 0.965843 77.9696 1.06184 76.9954 0.965843C76.4709 1.25384 75.8713 1.15784 75.2718 1.15784C74.0728 1.15784 72.7989 1.06183 71.5249 1.25383C70.7755 1.34983 70.1011 1.44584 69.3517 1.44584H67.6281C67.0286 1.44584 66.4291 1.34984 65.8295 1.54184C65.23 1.73384 64.7055 1.44584 64.1809 1.54184C63.5065 1.63784 62.832 1.54184 62.2325 1.73384C61.633 1.92584 60.9585 1.54184 60.359 2.02183H60.1342C59.3848 1.63783 58.6354 1.82984 57.961 1.82984C57.2116 1.82984 56.4622 1.82984 55.7878 2.11784C55.5629 2.21384 55.4131 2.21384 55.1882 2.11784C55.0384 2.02184 54.8136 2.02184 54.5887 2.11784C53.9892 2.11784 53.3897 1.92584 52.7902 2.30984C52.1907 2.11784 51.5912 2.21384 50.9917 2.30984C50.3922 2.40584 49.8676 2.40584 49.2681 2.40584C48.6686 2.40584 48.0691 2.40584 47.4695 2.59784C46.87 2.40584 46.3455 2.88583 45.8209 2.50183C45.2214 2.78983 44.6968 2.50184 44.0973 2.69384C43.3479 2.88584 42.5985 2.98184 41.8491 2.88584C41.3246 2.78984 40.8749 2.98184 40.4253 3.07784C39.9757 3.17384 39.601 3.17384 39.2263 3.17384C38.7767 3.17384 38.327 2.98184 37.8774 3.17384C37.0531 3.55784 36.1538 3.17384 35.2545 3.55784C34.4302 3.26984 33.6059 3.74984 32.7816 3.74984C32.4069 3.74984 31.9572 3.65384 31.5825 3.84584C31.058 4.13384 30.4584 4.03784 29.8589 4.03784C29.5592 3.94184 29.1845 3.94184 28.8098 4.13384C28.4351 4.32584 27.9855 4.51784 27.5358 4.32584C27.311 4.22984 27.0862 4.32584 26.7865 4.42184C26.3368 4.42184 25.8872 4.51784 25.3626 4.51784C24.913 4.51784 24.4633 4.99783 23.9388 4.70983C23.7889 4.61383 23.639 4.80584 23.639 4.99784C23.5641 5.28584 23.4891 5.57384 23.2643 5.09384C23.1894 4.90184 22.9646 4.90184 22.7398 4.90184C22.44 4.90184 22.2152 5.09384 21.9154 4.99784C21.6906 4.90184 21.3909 5.28584 21.0911 5.09384C20.9412 4.99784 20.9412 5.28584 20.8663 5.38184C20.8663 5.66984 20.7913 5.76584 20.5665 5.57384C19.967 5.28584 19.4424 5.18984 18.9179 5.86184C18.768 6.05384 18.768 5.95784 18.6931 5.76584C18.6931 5.57384 18.768 5.38184 18.4682 5.38184C17.8687 5.57384 17.2692 5.86184 16.6697 5.86184C15.9953 5.86184 15.3958 6.05383 14.7962 6.14983C13.5223 6.34183 12.2483 6.34184 10.8994 6.72584C10.15 6.91784 9.32571 7.01384 8.57633 7.30184C8.35151 7.39784 8.12669 7.39783 7.97682 7.39783C7.67706 7.39783 7.30237 7.68584 7.00261 7.58984C6.62792 7.49384 6.32816 7.68583 5.95347 7.87783C5.72865 7.97383 5.50384 7.97384 5.27902 8.06984C4.37976 8.06984 3.55543 8.35784 2.80604 8.83784C2.65616 8.93384 2.43135 8.93384 2.20653 9.02984C1.98171 9.22184 1.83184 9.22183 1.53208 9.12583C1.00751 8.93383 0.482939 8.93384 0.0333062 9.41384C0.0333062 9.50984 -0.0416327 9.60584 0.0333062 9.70184C0.0333062 9.79784 0.108245 9.79784 0.183183 9.89384C0.333061 9.89384 0.408 9.89384 0.557878 9.79784C0.707755 9.70184 0.857633 9.60584 1.00751 9.70184C1.7569 10.1818 2.50629 9.98984 3.25567 9.79784C3.63037 9.70184 3.93012 9.89384 4.22988 9.50984C4.45469 9.22184 4.75445 9.22184 4.97927 9.22184C5.35396 9.22184 5.65371 9.12583 5.95347 9.12583C6.55298 9.12583 7.00261 8.83784 7.45224 8.26184C7.60212 7.97384 7.90188 7.97384 8.12669 8.16584C8.57633 8.74184 9.02596 8.64584 9.62547 8.64584C10.0751 8.64584 10.5247 8.45384 11.0493 8.45384C11.1992 8.45384 11.3491 8.54983 11.4989 8.35783C11.8736 7.87783 12.5481 8.06984 12.9977 7.78184C13.1476 7.68584 13.2975 7.78184 13.4473 7.78184C13.6722 7.87784 13.897 7.87783 14.0469 7.87783C15.1709 7.87783 16.295 7.58983 17.4191 7.39783L17.6439 7.20584C17.7938 6.82184 17.9437 7.01384 18.2434 7.01384C18.5432 7.01384 18.9928 7.10984 19.2926 7.01384C19.8921 6.82184 20.4916 6.53384 21.166 6.72584C21.6906 6.34184 22.2152 6.53384 22.7398 6.43784H24.838C25.0629 6.43784 25.3626 6.53383 25.5874 6.14983C25.5874 5.95783 25.6624 5.95784 25.7373 6.05384C25.9621 6.62984 26.4118 6.43784 26.7115 6.34184C27.311 6.14984 27.8356 6.05383 28.4351 5.66983C28.585 5.57383 28.6599 5.76584 28.7349 5.86184C28.8847 6.05384 28.9597 6.05384 29.0346 6.05384C29.6341 5.76584 30.2336 5.86184 30.8331 5.76584C31.5076 5.66984 32.1071 5.76584 32.7816 5.76584C33.0813 5.76584 33.3811 5.86184 33.6059 5.76584C34.3553 5.47784 35.0297 5.47784 35.7791 5.47784C36.3786 5.47784 36.8282 5.57383 37.4278 5.18983C37.5776 5.09383 37.8024 5.18983 37.9523 5.18983C39.3012 5.18983 40.6501 5.28584 41.9241 4.90184H42.2988C42.8233 4.90184 43.273 4.90184 43.7976 4.80584C44.3221 4.70984 44.7718 4.90184 45.2963 4.90184C45.5961 4.80584 45.8958 4.90183 46.1207 4.70983C46.4953 4.42183 46.7951 4.90183 47.0949 4.70983C47.6194 4.32583 48.0691 4.51784 48.5936 4.51784C49.2681 4.51784 49.9425 4.61384 50.542 4.51784C51.4413 4.32584 52.3406 4.22984 53.1649 4.22984C53.3897 4.22984 53.6145 4.32584 53.7644 4.22984C54.1391 4.03784 54.4389 4.03784 54.7386 4.13384C55.0384 4.22984 55.3381 3.94184 55.7128 4.13384C56.0126 4.32584 56.3873 4.03784 56.762 4.13384C57.0617 4.22984 57.3615 4.32584 57.7362 4.13384C58.0359 3.94184 58.4106 4.13384 58.7853 4.03784C59.16 3.94184 59.5347 3.84584 59.9843 3.84584C60.434 3.84584 60.8087 3.94184 61.2583 3.94184C61.7079 3.94184 62.0826 3.74984 62.4573 3.84584C62.9069 3.94184 63.3566 3.94184 63.8062 3.94184C64.4807 3.94184 65.23 4.13384 65.8295 3.74984C65.9794 3.65384 66.1293 3.74984 66.2792 3.74984C66.9536 3.94184 67.5531 4.03784 68.2276 3.74984C68.7522 3.55784 69.2767 3.26984 69.8013 3.65384C71.0753 3.65384 72.4242 3.55784 73.7731 3.55784C74.2227 3.36584 74.7473 3.46183 75.1969 3.46183C75.4967 3.46183 75.7215 3.65384 76.0212 3.36584C76.7706 3.55784 77.4451 3.26984 78.1945 3.26984C79.1687 3.26984 80.2178 3.46184 81.2669 3.17384H81.4918C82.0163 3.46184 82.466 3.26984 82.9905 3.17384C83.1404 3.07784 83.2154 3.17384 83.3652 3.17384C84.1896 3.46184 85.0139 3.55784 85.9131 3.17384C86.138 3.07784 86.3628 3.07784 86.5876 3.17384C86.9623 3.36584 87.337 3.36584 87.7117 3.17384C88.0114 2.98184 88.3112 2.98184 88.6109 3.17384C88.7608 3.26984 88.9856 3.26984 89.1355 3.26984H91.6085C91.9082 3.36584 92.2829 3.36584 92.5827 3.26984C93.3321 3.07784 94.0065 3.26984 94.7559 3.26984C95.0557 3.26984 95.4304 3.36584 95.8051 3.07784C96.1798 2.78984 96.4795 2.69384 96.8542 3.17384C97.0041 3.26984 97.2289 3.26984 97.4537 3.26984C98.1282 3.26984 98.8026 3.36584 99.4771 3.17384C100.077 3.46184 100.751 3.26984 101.351 3.26984C101.95 3.26984 102.55 3.36584 103.149 3.26984C103.749 3.17384 104.348 3.26984 104.948 3.26984C106.222 3.26984 107.496 3.17383 108.695 3.46183C108.769 3.55783 108.919 3.55783 108.994 3.46183C109.444 3.26983 109.894 3.46184 110.418 3.55784C111.317 3.74984 112.292 3.65384 113.266 3.26984C113.491 3.17384 113.715 3.17384 113.94 3.26984C114.615 3.55784 115.289 3.65384 115.964 3.65384C116.713 3.65384 117.387 3.74984 118.062 3.74984C118.512 3.74984 118.961 3.84584 119.336 3.84584C119.86 3.84584 120.31 3.94184 120.835 3.74984C121.284 3.55784 121.734 3.94184 122.258 3.94184H122.708C123.457 3.74984 124.057 4.03784 124.731 4.03784C124.806 4.03784 124.806 4.13384 124.881 4.13384V4.22984C124.956 4.42184 124.881 4.51784 124.806 4.51784C124.656 4.51784 124.507 4.61384 124.432 4.51784C124.132 4.13384 123.607 4.32584 123.158 4.51784C122.933 4.61384 122.708 4.61384 122.483 4.61384H119.411C119.111 4.61384 118.811 4.70984 118.586 4.80584C118.212 4.99784 117.987 4.42184 117.612 4.61384C117.387 4.70984 117.163 4.61383 116.938 4.70983C116.713 4.80583 116.563 4.80584 116.338 4.80584C116.039 4.80584 115.814 4.90183 115.514 4.70983C115.214 4.51783 114.914 4.90183 114.615 4.70983H112.067C111.767 4.70983 111.542 4.90184 111.317 4.80584C110.718 4.51784 110.118 5.09383 109.594 4.70983C108.919 4.99783 108.32 4.90184 107.645 4.90184H105.847C105.247 4.90184 104.648 4.99784 104.048 4.99784C103.374 4.99784 102.774 5.28584 102.1 4.99784C102.025 4.90184 101.875 4.99784 101.725 5.09384C101.425 5.09384 101.051 5.18983 100.676 5.18983C99.3272 5.18983 97.9034 5.18984 96.5545 5.38184C95.7301 5.47784 94.8309 5.47784 94.0065 5.47784C93.3321 5.47784 92.5827 5.66983 91.9082 6.14983C91.8333 6.24583 91.6834 6.24584 91.6085 6.34184C91.4586 5.76584 91.0839 6.14984 90.8591 6.05384C90.3345 5.86184 89.81 5.86184 89.2105 6.05384C89.0606 6.05384 88.9107 6.14984 88.7608 6.05384C88.4611 5.86184 88.1613 6.05384 87.9365 6.05384C87.337 6.05384 86.7375 6.24583 86.138 6.14983C85.6883 6.05383 85.2387 6.24584 84.864 6.53384C84.6392 6.62984 84.4893 6.62984 84.2645 6.53384C84.0397 6.53384 83.8149 6.62984 83.5151 6.62984C83.3652 6.62984 83.1404 6.72584 82.9156 6.72584C82.466 6.53384 82.0163 6.82183 81.5667 6.91783C81.2669 7.01383 81.0421 7.10984 80.8173 7.01384C80.5925 6.91784 80.4426 7.10983 80.5176 7.39783C80.5925 8.45383 81.192 8.93383 81.8665 8.35783C82.0913 8.16583 82.2411 8.16584 82.391 8.26184C82.8407 8.35784 83.1404 8.64583 83.59 8.35783C83.7399 8.26183 83.9647 8.26184 84.1896 8.26184C84.7141 8.26184 85.1638 8.26184 85.6134 8.16584C86.138 8.06984 86.5876 7.97384 87.1122 7.97384H88.536C88.7608 7.97384 89.0606 7.97383 89.3603 7.87783C89.81 7.68583 90.3345 7.49384 90.8591 7.68584C91.0839 7.78184 91.3087 7.68584 91.4586 7.58984C91.7584 7.39784 92.0581 7.68584 92.2829 7.58984C92.6576 7.30184 92.8825 7.58984 93.2571 7.68584C93.7068 7.78184 94.2313 7.78184 94.681 7.58984C94.7559 7.49384 94.9058 7.39784 94.9807 7.49384C95.3554 7.68584 95.5802 7.39784 95.8051 7.30184C96.1048 7.20584 96.4795 7.39783 96.6294 6.91783C96.7043 6.82183 96.7793 6.82184 96.8542 6.82184C97.2289 6.82184 97.5287 7.20583 97.9034 6.91783H97.9783C98.2031 7.49383 98.6527 7.30183 98.9525 7.39783C99.3272 7.39783 99.6269 7.30183 99.9267 7.39783C100.301 7.39783 100.676 7.39784 100.826 7.01384C100.901 6.82184 101.051 6.91784 101.126 7.01384C101.351 7.30184 101.575 7.20584 101.8 7.20584C102.025 7.20584 102.25 7.10984 102.55 7.10984C102.924 7.10984 103.374 7.20584 103.749 7.01384C104.198 6.82184 104.573 7.10984 105.023 7.10984H105.397C106.147 7.10984 106.821 7.10983 107.57 6.91783C108.32 6.72583 109.069 7.10984 109.819 6.82184C110.043 6.72584 110.343 6.72583 110.568 6.91783C110.868 7.10983 111.168 7.01383 111.467 6.91783C112.666 6.53383 113.865 6.82184 114.989 6.72584C115.814 6.62984 116.713 6.72584 117.537 6.72584C117.987 6.82184 118.287 6.43784 118.437 5.95784C118.961 6.72584 118.961 6.82184 119.561 6.72584C120.085 6.62984 120.685 6.72584 121.209 6.53384H121.734C122.109 6.82184 122.558 6.72584 123.008 6.72584C123.832 6.72584 124.656 6.62984 125.481 6.82184C125.93 6.91784 126.38 6.62984 126.905 6.62984C126.98 6.62984 127.055 6.43784 127.129 6.34184C127.354 5.76584 127.354 6.14984 127.354 6.34184C127.429 6.62984 127.579 6.72584 127.729 6.72584C128.029 6.72584 128.403 6.53384 128.628 6.72584C128.928 7.01384 129.378 6.53384 129.752 6.62984C130.127 6.72584 130.502 6.82184 130.876 7.01384H131.251C132 7.01384 132.675 7.01384 133.424 7.01384H134.473C134.698 7.01384 134.848 6.91784 135.073 7.01384C135.747 7.10984 136.422 7.01383 137.096 6.91783C137.546 6.82183 137.996 6.82184 138.445 7.01384C138.67 7.10984 138.97 6.91783 139.27 6.91783C139.345 6.91783 139.419 6.82183 139.569 6.91783C140.094 7.20583 140.618 7.10983 141.143 6.91783L142.042 6.62984C142.417 6.53384 142.567 7.20584 142.942 7.01384C143.166 6.91784 143.316 7.01384 143.541 7.10984H144.74C145.115 7.10984 145.415 6.82184 145.789 7.01384C146.164 7.20584 146.614 7.20584 146.988 7.20584H147.363C147.513 7.20584 147.663 7.20584 147.738 7.10984C148.037 6.72584 148.337 7.01384 148.712 7.01384H151.784C152.009 7.01384 152.234 6.82184 152.309 6.43784C152.384 5.95784 152.459 5.38184 152.309 4.80584ZM79.7682 6.91783C79.3935 6.91783 79.0937 6.82184 78.794 7.20584C78.719 7.30184 78.5691 7.30184 78.5691 7.20584C78.2694 7.01384 77.8947 7.10984 77.5949 7.10984C76.0212 7.10984 74.5224 7.58983 72.9487 7.39783C72.9487 7.39783 72.8738 7.39784 72.8738 7.49384C72.4991 7.78184 72.0495 7.68584 71.6748 7.68584C71.45 7.68584 71.2251 7.68584 71.0753 7.78184C70.6256 8.06984 70.1011 8.06984 69.6514 7.97384C69.2018 7.87784 68.902 8.26184 68.4524 8.45384C68.3775 8.45384 68.3025 8.64584 68.3025 8.74184C68.2276 8.83784 68.2276 9.02984 68.2276 9.02984C68.1527 9.12584 68.0777 9.22184 68.0028 9.22184C67.8529 9.12584 67.8529 8.93384 67.8529 8.83784C67.8529 8.74184 67.9278 8.64584 68.0028 8.54984C68.0777 8.26184 68.0028 8.16584 67.778 8.16584C67.5531 8.26184 67.2534 8.35783 67.0286 8.35783C66.4291 8.16583 65.7546 8.35783 65.1551 8.35783C64.7804 8.35783 64.4807 8.35784 64.1809 8.45384C63.8811 8.54984 63.5814 8.83784 63.2816 8.74184H62.3074C61.8578 8.83784 61.4082 8.74184 60.9585 8.93384C60.6588 9.02984 60.359 9.22183 60.0593 9.12583C59.6096 9.02983 59.3099 9.12584 58.9352 9.31784C58.5605 9.50984 58.2607 9.60584 57.8111 9.41384C57.5863 9.31784 57.2116 9.31784 57.1367 9.50984C56.8369 9.89384 56.5371 9.70184 56.2374 9.70184H55.2632C54.8885 9.70184 54.5887 9.89384 54.214 9.89384C53.7644 9.89384 53.3148 9.89383 53.015 10.0858C52.6403 10.2778 52.2656 9.98984 51.8909 10.1818C51.2165 10.4698 50.4671 10.4698 49.7927 10.5658C48.8934 10.6618 48.144 10.7578 47.5445 11.5258C47.5445 11.6218 47.3946 11.5258 47.3197 11.5258C47.3197 11.4298 47.3197 11.3338 47.3946 11.2378C47.3946 10.9498 47.3197 10.8538 47.1698 10.9498L46.4953 11.2378C46.4204 11.2378 46.3455 11.4298 46.4204 11.5258C46.4204 11.6218 46.4953 11.6218 46.5703 11.6218C46.7202 11.5258 46.87 11.4298 46.945 11.6218C46.945 11.7178 46.87 11.9098 46.7951 12.0058C46.7202 12.1018 46.5703 12.1978 46.7202 12.3898C46.7951 12.4858 46.87 12.5818 47.0199 12.5818C47.3197 12.5818 47.6944 12.3898 48.0691 12.3898C48.4438 12.3898 48.7435 12.2938 48.8934 11.9098C48.9683 11.7178 49.2681 11.7178 49.343 11.9098C49.5678 12.3898 49.8676 12.3898 50.1673 12.1018C50.542 11.7178 50.9167 11.4298 51.3664 11.7178C51.5162 11.8138 51.7411 11.7178 51.9659 11.6218C52.1907 11.5258 52.2656 11.3338 52.2656 10.9498C52.2656 10.8538 52.4155 10.6618 52.4904 10.6618C52.6403 10.6618 52.7153 10.8538 52.7902 10.9498C52.7902 11.0458 52.7902 11.1418 52.7153 11.2378C52.7153 11.6218 52.7902 11.7178 53.015 11.7178C53.4647 11.7178 53.5396 11.7178 53.5396 11.2378C53.5396 10.9498 53.6145 10.7578 53.7644 10.8538C53.9892 10.9498 54.1391 11.0458 54.289 11.2378C54.4389 11.3338 54.5887 11.4298 54.7386 11.4298C55.2632 11.4298 55.7128 11.4298 56.1624 11.3338C57.1367 11.1418 58.0359 10.7578 58.9352 10.7578C59.16 10.7578 59.3848 10.4698 59.6096 10.6618C60.0593 11.0458 60.434 10.5658 60.8087 10.5658C60.9585 10.5658 61.1833 10.4698 61.3332 10.5658C61.7079 10.7578 62.0077 10.5658 62.3074 10.5658C62.832 10.5658 63.2816 9.98984 63.8062 10.3738C64.6305 10.1818 65.5298 10.1818 66.3541 10.1818C66.7288 10.1818 67.1035 9.98983 67.3283 9.60583C67.5531 9.22183 67.4782 9.50984 67.6281 9.70184C67.703 9.79784 67.8529 9.89384 67.9278 9.89384L68.6772 9.60583H69.7264C70.1011 9.60583 70.5507 9.41383 70.9254 9.60583C71.0753 9.60583 71.2251 9.60584 71.375 9.50984C72.1244 9.41384 72.7989 9.02983 73.5482 9.12583L73.6981 8.93384C73.7731 8.83784 73.7731 8.74184 73.848 8.93384C73.9979 9.02984 74.0728 9.22184 74.2976 9.22184C74.6723 9.22184 75.047 9.02983 75.4217 9.12583C75.4967 9.22183 75.5716 9.02984 75.4967 8.93384C75.4967 8.83784 75.4967 8.64584 75.5716 8.74184C76.1711 9.02984 76.7706 8.83784 77.3701 8.83784H79.3185C79.6183 8.83784 79.6183 8.64584 79.6183 8.26184C79.5434 7.97384 79.5434 7.87783 79.8431 7.87783C79.993 7.87783 79.993 7.78184 80.0679 7.58984C80.1429 7.39784 80.4426 7.20583 80.2178 6.91783C80.0679 6.72583 79.918 6.91783 79.7682 6.91783ZM45.8958 11.5258H45.1465C44.7718 11.4298 44.3971 11.8138 44.0224 11.7178C43.3479 11.5258 42.8983 11.9098 42.3737 12.1018C42.1489 12.1978 42.1489 12.4858 42.1489 12.7738V12.9658C42.6735 13.0618 43.273 13.0618 43.7976 13.0618C44.0224 13.0618 44.2472 12.9658 44.3221 12.7738C44.472 12.4858 44.6219 12.1978 44.7718 12.0058C44.9966 11.7178 45.2963 12.1978 45.5961 12.0058C45.671 11.9098 45.8209 12.0058 45.8958 12.0058C45.9708 12.0058 46.0457 11.8138 46.0457 11.7178C45.9708 11.7178 45.9708 11.5258 45.8958 11.5258ZM41.7742 12.1978C41.6243 12.1018 41.4744 12.1018 41.3246 12.1018C40.9499 12.1018 40.5752 12.1018 40.2754 12.4858C40.1255 12.6778 39.8258 12.7738 39.601 12.5818C39.3012 12.3898 39.0015 12.4858 38.7017 12.7738C38.402 13.0618 38.402 13.1578 37.9523 13.7338C37.8774 13.8298 37.8774 13.8298 37.9523 13.9258C38.1771 13.9258 38.402 13.9258 38.5518 13.7338C38.8516 13.3498 39.2263 13.2538 39.6759 13.3498C40.4253 13.5418 41.2496 13.2538 41.999 13.2538C42.074 13.2538 42.074 13.0618 42.1489 13.0618L41.9241 12.7738C41.8491 12.5818 41.9241 12.2938 41.7742 12.1978Z" fill="#5861F7"/>
</svg>
