<svg width="417" height="109" viewBox="0 0 417 109" fill="none" xmlns="http://www.w3.org/2000/svg">
<path d="M360.12 36.9747C360.228 37.0471 360.335 37.1186 360.441 37.1908C359.099 37.9882 358.066 39.0547 357.229 40.3915C356.407 39.106 355.409 38.0327 354.022 37.2076C355.331 36.3776 356.409 35.3562 357.223 33.9789C357.673 34.6636 358.118 35.3157 358.685 35.8752L358.685 35.8753C359.059 36.244 359.475 36.5393 359.878 36.812C359.959 36.8672 360.04 36.9212 360.12 36.9747Z" fill="white" stroke="#212152"/>
<path d="M46.1201 53.9747C46.2281 54.0471 46.3349 54.1186 46.4406 54.1908C45.0989 54.9882 44.0661 56.0547 43.2292 57.3915C42.407 56.106 41.4089 55.0327 40.0222 54.2076C41.3309 53.3776 42.4093 52.3562 43.2233 50.9789C43.6729 51.6636 44.1181 52.3157 44.6852 52.8752L44.6853 52.8753C45.0593 53.244 45.4749 53.5393 45.878 53.812C45.9595 53.8672 46.0401 53.9212 46.1201 53.9747Z" fill="white" stroke="#212152"/>
<path d="M392.752 60.2023C393.067 60.4133 393.38 60.6225 393.689 60.8429C391.2 62.2153 389.352 64.1361 387.883 66.621C386.429 64.2295 384.651 62.2851 382.05 60.8546C384.488 59.3921 386.444 57.5667 387.852 54.9914C387.872 55.0229 387.893 55.0545 387.913 55.086C388.723 56.3238 389.477 57.4764 390.468 58.454L390.469 58.4541C391.055 59.0324 391.711 59.4993 392.364 59.9414C392.494 60.0293 392.623 60.116 392.752 60.2023Z" fill="white" stroke="#212152"/>
</svg>
