<svg width="184" height="22" viewBox="0 0 184 22" fill="none" xmlns="http://www.w3.org/2000/svg">
<path d="M17.7141 15C16.6198 18.1262 14.3995 20.9158 12.3873 20.9158C11.5778 20.9158 11.281 20.1141 9.58184 20.1141C7.88266 20.1141 7.18498 20.9158 6.37548 20.9158C3.57 20.9158 0.363281 15.5011 0.363281 11.2964C0.363281 7.09167 3.16876 5.28418 5.57371 5.28418C6.86814 5.28418 8.26315 6.08595 9.58184 6.08595C10.9005 6.08595 11.8947 5.28418 13.1891 5.28418C14.4835 5.28418 16.0188 5.85316 17.053 7.09976C15.6981 7.86918 14.7923 9.28 14.7923 10.8955C14.7923 12.7631 16.0027 14.3586 17.7141 14.9996V15Z" fill="white"/>
<path d="M12.3888 3.27206C12.6677 2.92252 12.892 2.5248 13.0461 2.08629C13.2694 1.44945 13.3552 0.738052 13.2032 0.0755392C13.1927 0.0298245 12.5653 0.169782 12.5084 0.185607C12.1652 0.281256 11.8315 0.410666 11.5129 0.570316C10.1263 1.26448 8.85049 2.61412 8.7552 4.22925C8.74254 4.44376 8.74184 4.67515 8.79423 4.88544C8.80267 4.9185 9.25736 4.88051 9.28936 4.8784C10.5117 4.79084 11.6447 4.20394 12.3888 3.27241V3.27206Z" fill="white"/>
<path d="M47.2547 3.1157L48.8219 6.2501C49.033 6.68359 49.5999 7.09484 50.0778 7.18376L52.9122 7.65058C54.7239 7.95069 55.1463 9.26225 53.8458 10.5738L51.6339 12.7857C51.2671 13.1525 51.056 13.8749 51.1782 14.3973L51.8118 17.1316C52.3119 19.2879 51.156 20.1326 49.2553 18.9989L46.5989 17.4206C46.1209 17.1316 45.3207 17.1316 44.8427 17.4206L42.1863 18.9989C40.2856 20.1215 39.1297 19.2879 39.6298 17.1316L40.2634 14.3973C40.3634 13.8638 40.1522 13.1414 39.7854 12.7746L37.5736 10.5627C36.2731 9.26225 36.6955 7.95069 38.5072 7.63947L41.3415 7.17264C41.8195 7.09484 42.3863 6.67247 42.5975 6.23899L44.1647 3.10458C45.0206 1.41511 46.3988 1.41511 47.2547 3.1157Z" fill="#FEC10A"/>
<path d="M79.1531 3.1157L80.7203 6.2501C80.9315 6.68359 81.4983 7.09484 81.9763 7.18376L84.8106 7.65058C86.6223 7.95069 87.0447 9.26225 85.7442 10.5738L83.5324 12.7857C83.1656 13.1525 82.9544 13.8749 83.0767 14.3973L83.7102 17.1316C84.2104 19.2879 83.0544 20.1326 81.1538 18.9989L78.4973 17.4206C78.0194 17.1316 77.2191 17.1316 76.7412 17.4206L74.0847 18.9989C72.184 20.1215 71.0281 19.2879 71.5283 17.1316L72.1618 14.3973C72.2618 13.8638 72.0507 13.1414 71.6839 12.7746L69.472 10.5627C68.1716 9.26225 68.5939 7.95069 70.4057 7.63947L73.24 7.17264C73.7179 7.09484 74.2848 6.67247 74.4959 6.23899L76.0632 3.10458C76.919 1.41511 78.2972 1.41511 79.1531 3.1157Z" fill="#FEC10A"/>
<path d="M111.052 3.1157L112.619 6.2501C112.83 6.68359 113.397 7.09484 113.875 7.18376L116.709 7.65058C118.521 7.95069 118.943 9.26225 117.643 10.5738L115.431 12.7857C115.064 13.1525 114.853 13.8749 114.975 14.3973L115.609 17.1316C116.109 19.2879 114.953 20.1326 113.052 18.9989L110.396 17.4206C109.918 17.1316 109.118 17.1316 108.64 17.4206L105.983 18.9989C104.082 20.1215 102.927 19.2879 103.427 17.1316L104.06 14.3973C104.16 13.8638 103.949 13.1414 103.582 12.7746L101.37 10.5627C100.07 9.26225 100.492 7.95069 102.304 7.63947L105.138 7.17264C105.616 7.09484 106.183 6.67247 106.394 6.23899L107.962 3.10458C108.817 1.41511 110.196 1.41511 111.052 3.1157Z" fill="#FEC10A"/>
<path d="M142.95 3.1157L144.517 6.2501C144.728 6.68359 145.295 7.09484 145.773 7.18376L148.607 7.65058C150.419 7.95069 150.842 9.26225 149.541 10.5738L147.329 12.7857C146.962 13.1525 146.751 13.8749 146.874 14.3973L147.507 17.1316C148.007 19.2879 146.851 20.1326 144.951 18.9989L142.294 17.4206C141.816 17.1316 141.016 17.1316 140.538 17.4206L137.882 18.9989C135.981 20.1215 134.825 19.2879 135.325 17.1316L135.959 14.3973C136.059 13.8638 135.848 13.1414 135.481 12.7746L133.269 10.5627C131.968 9.26225 132.391 7.95069 134.203 7.63947L137.037 7.17264C137.515 7.09484 138.082 6.67247 138.293 6.23899L139.86 3.10458C140.716 1.41511 142.094 1.41511 142.95 3.1157Z" fill="#FEC10A"/>
<path d="M174.85 3.1157L176.418 6.2501C176.629 6.68359 177.196 7.09484 177.674 7.18376L180.508 7.65058C182.32 7.95069 182.742 9.26225 181.442 10.5738L179.23 12.7857C178.863 13.1525 178.652 13.8749 178.774 14.3973L179.407 17.1316C179.908 19.2879 178.752 20.1326 176.851 18.9989L174.195 17.4206C173.717 17.1316 172.916 17.1316 172.438 17.4206L169.782 18.9989C167.881 20.1215 166.725 19.2879 167.226 17.1316L167.859 14.3973C167.959 13.8638 167.748 13.1414 167.381 12.7746L165.169 10.5627C163.869 9.26225 164.291 7.95069 166.103 7.63947L168.937 7.17264C169.415 7.09484 169.982 6.67247 170.193 6.23899L171.76 3.10458C172.616 1.41511 173.995 1.41511 174.85 3.1157Z" fill="white"/>
<g clip-path="url(#clip0_7347_22239)">
<path d="M175.566 2.67183L177.225 5.98957C177.449 6.4484 178.049 6.88371 178.555 6.97783L181.555 7.47196C183.472 7.78962 183.919 9.1779 182.543 10.5662L180.202 12.9074C179.813 13.2957 179.59 14.0604 179.719 14.6133L180.39 17.5075C180.919 19.79 179.696 20.6841 177.684 19.4841L174.872 17.8134C174.366 17.5075 173.519 17.5075 173.013 17.8134L170.201 19.4841C168.19 20.6723 166.966 19.79 167.495 17.5075L168.166 14.6133C168.272 14.0486 168.048 13.2839 167.66 12.8956L165.319 10.5544C163.942 9.17789 164.389 7.78962 166.307 7.4602L169.307 6.96607C169.813 6.88371 170.413 6.43664 170.637 5.9778L172.296 2.66006C173.201 0.871774 174.66 0.871774 175.566 2.67183Z" fill="#FEC10A"/>
</g>
<defs>
<clipPath id="clip0_7347_22239">
<rect width="11.192" height="21.2648" fill="white" transform="translate(162.643 0.0664062)"/>
</clipPath>
</defs>
</svg>
