<svg width="184" height="22" viewBox="0 0 184 22" fill="none" xmlns="http://www.w3.org/2000/svg">
<path d="M46.9929 3.31199L48.5601 6.44639C48.7713 6.87987 49.3382 7.29113 49.8161 7.38005L52.6504 7.84687C54.4622 8.14698 54.8845 9.45854 53.5841 10.7701L51.3722 12.982C51.0054 13.3488 50.7942 14.0712 50.9165 14.5936L51.5501 17.3279C52.0502 19.4842 50.8943 20.3289 48.9936 19.1952L46.3372 17.6169C45.8592 17.3279 45.0589 17.3279 44.581 17.6169L41.9245 19.1952C40.0239 20.3178 38.8679 19.4842 39.3681 17.3279L40.0017 14.5936C40.1017 14.0601 39.8905 13.3376 39.5237 12.9708L37.3118 10.759C36.0114 9.45854 36.4338 8.14698 38.2455 7.83576L41.0798 7.36893C41.5577 7.29113 42.1246 6.86876 42.3358 6.43528L43.903 3.30087C44.7588 1.6114 46.1371 1.6114 46.9929 3.31199Z" fill="#FEC10A"/>
<path d="M78.8914 3.31199L80.4586 6.44639C80.6698 6.87987 81.2366 7.29113 81.7146 7.38005L84.5489 7.84687C86.3606 8.14698 86.783 9.45854 85.4825 10.7701L83.2707 12.982C82.9039 13.3488 82.6927 14.0712 82.8149 14.5936L83.4485 17.3279C83.9487 19.4842 82.7927 20.3289 80.8921 19.1952L78.2356 17.6169C77.7577 17.3279 76.9574 17.3279 76.4794 17.6169L73.823 19.1952C71.9223 20.3178 70.7664 19.4842 71.2665 17.3279L71.9001 14.5936C72.0001 14.0601 71.7889 13.3376 71.4222 12.9708L69.2103 10.759C67.9098 9.45854 68.3322 8.14698 70.1439 7.83576L72.9782 7.36893C73.4562 7.29113 74.023 6.86876 74.2342 6.43528L75.8014 3.30087C76.6573 1.6114 78.0355 1.6114 78.8914 3.31199Z" fill="#FEC10A"/>
<path d="M110.79 3.31199L112.357 6.44639C112.568 6.87987 113.135 7.29113 113.613 7.38005L116.447 7.84687C118.259 8.14698 118.681 9.45854 117.381 10.7701L115.169 12.982C114.802 13.3488 114.591 14.0712 114.713 14.5936L115.347 17.3279C115.847 19.4842 114.691 20.3289 112.791 19.1952L110.134 17.6169C109.656 17.3279 108.856 17.3279 108.378 17.6169L105.721 19.1952C103.821 20.3178 102.665 19.4842 103.165 17.3279L103.799 14.5936C103.899 14.0601 103.687 13.3376 103.321 12.9708L101.109 10.759C99.8083 9.45854 100.231 8.14698 102.042 7.83576L104.877 7.36893C105.355 7.29113 105.921 6.86876 106.133 6.43528L107.7 3.30087C108.556 1.6114 109.934 1.6114 110.79 3.31199Z" fill="#FEC10A"/>
<path d="M142.688 3.31199L144.255 6.44639C144.467 6.87987 145.034 7.29113 145.511 7.38005L148.346 7.84687C150.157 8.14698 150.58 9.45854 149.279 10.7701L147.068 12.982C146.701 13.3488 146.49 14.0712 146.612 14.5936L147.245 17.3279C147.746 19.4842 146.59 20.3289 144.689 19.1952L142.032 17.6169C141.555 17.3279 140.754 17.3279 140.276 17.6169L137.62 19.1952C135.719 20.3178 134.563 19.4842 135.063 17.3279L135.697 14.5936C135.797 14.0601 135.586 13.3376 135.219 12.9708L133.007 10.759C131.707 9.45854 132.129 8.14698 133.941 7.83576L136.775 7.36893C137.253 7.29113 137.82 6.86876 138.031 6.43528L139.598 3.30087C140.454 1.6114 141.832 1.6114 142.688 3.31199Z" fill="#FEC10A"/>
<path d="M174.579 3.31296L176.146 6.44737C176.357 6.88085 176.924 7.2921 177.402 7.38102L180.236 7.84785C182.048 8.14795 182.47 9.45951 181.17 10.7711L178.958 12.9829C178.591 13.3497 178.38 14.0722 178.502 14.5946L179.136 17.3289C179.636 19.4852 178.48 20.3299 176.58 19.1962L173.923 17.6179C173.445 17.3289 172.645 17.3289 172.167 17.6179L169.51 19.1962C167.61 20.3188 166.454 19.4852 166.954 17.3289L167.588 14.5946C167.688 14.0611 167.476 13.3386 167.11 12.9718L164.898 10.76C163.597 9.45951 164.02 8.14795 165.831 7.83673L168.666 7.36991C169.144 7.2921 169.711 6.86974 169.922 6.43625L171.489 3.30185C172.345 1.61238 173.723 1.61238 174.579 3.31296Z" fill="white"/>
<g clip-path="url(#clip0_7347_22252)">
<path d="M175.295 2.86909L176.954 6.18683C177.177 6.64567 177.777 7.08098 178.283 7.1751L181.283 7.66923C183.201 7.98689 183.648 9.37516 182.271 10.7634L179.93 13.1047C179.542 13.4929 179.318 14.2577 179.448 14.8106L180.118 17.7048C180.648 19.9872 179.424 20.8814 177.412 19.6813L174.601 18.0107C174.095 17.7048 173.248 17.7048 172.742 18.0107L169.93 19.6813C167.918 20.8696 166.695 19.9872 167.224 17.7048L167.895 14.8106C168 14.2459 167.777 13.4812 167.389 13.0929L165.047 10.7517C163.671 9.37516 164.118 7.98689 166.036 7.65746L169.036 7.16333C169.542 7.08098 170.142 6.63391 170.365 6.17507L172.024 2.85733C172.93 1.06904 174.389 1.06904 175.295 2.86909Z" fill="#FEC10A"/>
</g>
<path d="M0.55253 19.8096C0.246662 19.6568 0.09375 19.275 0.09375 18.8931C0.09375 18.8167 0.09375 18.664 0.09375 18.5876C0.09375 12.9358 0.09375 7.28395 0.09375 1.70851C0.09375 1.403 0.170206 1.17391 0.246662 0.868397C0.323162 0.715621 0.476074 0.562888 0.62903 0.410156C3.91703 3.6943 7.12858 6.97844 10.3401 10.2626C7.05212 13.3176 3.84058 16.5254 0.55253 19.8096Z" fill="white"/>
<path d="M13.5484 6.90739C12.6308 7.82391 11.6367 8.74039 10.7192 9.73329C7.66052 6.60188 4.52543 3.47047 1.4668 0.339061C1.4668 0.339061 1.4668 0.262695 1.54325 0.262695C5.51949 2.47758 9.49569 4.6925 13.5484 6.90739Z" fill="white"/>
<path d="M1.4668 19.8204C4.52543 16.7653 7.66052 13.7103 10.7192 10.6553C11.5603 11.4954 12.4779 12.3355 13.4719 13.252C9.49569 15.467 5.51949 17.6818 1.54325 19.8204H1.4668Z" fill="white"/>
<path d="M13.9975 12.9362C13.0034 12.0197 12.0859 11.1032 11.0918 10.1867C12.0859 9.19379 13.0799 8.2009 14.0739 7.20801C14.3798 7.36074 14.6857 7.51352 14.9915 7.74262C15.7562 8.2009 16.5973 8.58277 17.362 9.04102C17.5914 9.11738 17.7443 9.27016 17.8972 9.49926C18.2031 9.88113 18.2031 10.2631 17.8972 10.6449C17.7443 10.7977 17.5914 10.9504 17.362 11.0268C16.2915 11.7142 15.1445 12.3252 13.9975 12.9362Z" fill="white"/>
<defs>
<clipPath id="clip0_7347_22252">
<rect width="11.192" height="21.2648" fill="white" transform="translate(162.371 0.263672)"/>
</clipPath>
</defs>
</svg>
