<svg width="24" height="24" viewBox="0 0 24 24" fill="none" xmlns="http://www.w3.org/2000/svg">
<rect width="24" height="24" rx="12" fill="#EAECF0"/>
<path d="M16.6366 7.83602C18.1339 10.0241 18.8825 12.48 18.6103 15.3156C18.6103 15.3156 18.6103 15.3379 18.5876 15.3379C17.5894 16.0747 16.4552 16.6328 15.2529 16.9901C15.2302 17.0124 15.2302 16.9901 15.2075 16.9901C14.9579 16.6328 14.7311 16.2756 14.5269 15.8961C14.5269 15.8737 14.5269 15.8514 14.5496 15.8291C14.9126 15.6951 15.2529 15.5388 15.5931 15.3379C15.6158 15.3379 15.6158 15.2932 15.5931 15.2709C15.5251 15.2262 15.457 15.1816 15.389 15.1146C15.3663 15.1146 15.3663 15.1146 15.3436 15.1146C13.1885 16.097 10.8293 16.097 8.65148 15.1146C8.6288 15.1146 8.60611 15.1146 8.60611 15.1146C8.53806 15.1816 8.47 15.2262 8.40194 15.2709C8.35657 15.2932 8.37926 15.3379 8.40194 15.3379C8.71954 15.5388 9.0825 15.6951 9.44546 15.8291C9.46815 15.8514 9.46815 15.8737 9.46815 15.8961C9.26398 16.2756 9.03713 16.6328 8.78759 16.9901C8.76491 16.9901 8.74222 17.0124 8.74222 16.9901C7.53991 16.6328 6.40565 16.0747 5.40751 15.3379C5.38482 15.3379 5.38482 15.3156 5.38482 15.3156C5.15797 12.8596 5.63436 10.3813 7.35843 7.83602C7.35843 7.83602 7.35843 7.83602 7.38111 7.83602C8.24315 7.43414 9.15055 7.16621 10.0806 7.00992C10.1033 6.9876 10.126 7.00992 10.126 7.00992C10.2621 7.23319 10.3756 7.47879 10.4663 7.70206C11.4871 7.54577 12.508 7.54577 13.5288 7.70206C13.6195 7.47879 13.733 7.23319 13.8691 7.00992C13.8691 7.00992 13.8917 6.9876 13.9144 7.00992C14.8445 7.16621 15.7519 7.43414 16.614 7.83602C16.6366 7.83602 16.6366 7.83602 16.6366 7.83602ZM9.78574 13.8196C10.4436 13.8196 10.988 13.2168 10.988 12.5024C10.988 11.7656 10.4663 11.1851 9.78574 11.1851C9.12787 11.1851 8.58343 11.7656 8.58343 12.5024C8.58343 13.2168 9.12787 13.8196 9.78574 13.8196ZM14.2093 13.8196C14.8899 13.8196 15.4117 13.2168 15.4117 12.5024C15.4343 11.7656 14.8899 11.1851 14.2093 11.1851C13.5515 11.1851 13.0297 11.7656 13.0297 12.5024C13.0297 13.2168 13.5515 13.8196 14.2093 13.8196Z" fill="#667085"/>
</svg>
