<svg width="155" height="44" viewBox="0 0 155 44" fill="none" xmlns="http://www.w3.org/2000/svg">
<g clip-path="url(#clip0_7268_89612)">
<rect width="155" height="44" rx="9" fill="black"/>
<path d="M37.2028 16.1448C36.8381 16.4518 36.4717 16.7556 36.1105 17.0655C35.473 17.6125 35.0332 18.301 34.6533 19.0367C34.3606 19.6036 34.2179 20.2163 34.0825 20.8268C34.0113 21.1476 34.0457 21.492 34.0395 21.8259C34.0256 22.5812 34.1797 23.3121 34.4473 24.0111C34.8506 25.0645 35.4873 25.9711 36.3859 26.6727C36.8195 27.0112 37.2969 27.2954 37.7589 27.5973C37.8256 27.6409 37.9178 27.6465 38.0172 27.6751C37.9969 27.7644 37.9873 27.8373 37.9636 27.9054C37.5082 29.2149 36.9424 30.4721 36.1239 31.6043C35.5981 32.3318 35.0707 33.059 34.5166 33.7653C34.0848 34.3157 33.5314 34.7393 32.9214 35.089C32.5193 35.3196 32.0827 35.4434 31.6226 35.4441C31.1578 35.4451 30.6904 35.4242 30.2291 35.3713C29.9956 35.3446 29.7619 35.2486 29.5474 35.1452C28.8911 34.8289 28.207 34.5755 27.4979 34.4338C26.9188 34.318 26.3179 34.2982 25.7181 34.3823C24.9173 34.4946 24.1842 34.7997 23.4473 35.0994C22.7084 35.3998 21.9487 35.6005 21.144 35.4997C20.8822 35.4669 20.6208 35.3707 20.3779 35.2625C19.5222 34.8815 18.8607 34.2559 18.2679 33.5567C17.1843 32.2786 16.2613 30.8973 15.5559 29.3785C15.2541 28.7288 14.9825 28.069 14.753 27.3896C14.4524 26.4998 14.1979 25.5955 14.0497 24.6742C13.8586 23.4858 13.7441 22.284 13.8792 21.0753C13.9171 20.7357 13.9229 20.3921 13.9722 20.0543C14.0116 19.784 14.0961 19.5202 14.1582 19.253C14.4263 18.0978 14.9354 17.0521 15.6625 16.1152C16.7806 14.6748 18.2488 13.7662 20.0482 13.4006C20.6151 13.2854 21.1987 13.2522 21.7757 13.325C22.3883 13.4022 22.9825 13.5679 23.5583 13.7891C24.012 13.9634 24.4527 14.1744 24.9138 14.3252C25.5866 14.5452 26.2679 14.6847 26.9725 14.4036C27.6653 14.1271 28.3726 13.8859 29.0711 13.6228C30.1541 13.2147 31.274 13.1425 32.4106 13.2816C33.7665 13.4476 34.9681 13.9846 36.0372 14.8195C36.5254 15.2009 36.9983 15.7368 37.2031 16.1447L37.2028 16.1448Z" fill="white"/>
<path d="M66.0643 34.0425V39.7571H63.5637C63.5637 39.6475 63.5637 39.544 63.5637 39.4406C63.5604 36.1101 63.5585 32.7796 63.5532 29.4491C63.5513 28.1557 63.5471 26.8623 63.5335 25.5691C63.5289 25.1285 63.4921 24.6883 63.4688 24.2234H65.6698C65.7187 24.7613 65.7689 25.3108 65.8255 25.9316C65.9358 25.7877 66.0003 25.7053 66.0629 25.6216C66.6495 24.8372 67.4171 24.3297 68.3826 24.1031C68.8958 23.9827 69.4071 23.9388 69.932 23.9856C71.827 24.1549 73.0238 25.234 73.7605 26.8809C73.985 27.383 74.1 27.9244 74.174 28.4807C74.2572 29.1054 74.2736 29.7218 74.2216 30.3435C74.1581 31.1029 74.0068 31.851 73.6993 32.5476C73.122 33.8559 72.1813 34.8196 70.7903 35.2902C70.2989 35.4565 69.78 35.5193 69.2572 35.512C68.8159 35.5058 68.3809 35.4676 67.9517 35.3446C67.2201 35.1348 66.6393 34.7293 66.2051 34.1138C66.1871 34.0882 66.165 34.065 66.1423 34.0432C66.1366 34.0377 66.1212 34.0424 66.0642 34.0424L66.0643 34.0425ZM68.4872 33.549C69.8794 33.5768 70.918 32.9343 71.3427 31.6443C71.4704 31.2565 71.5808 30.8697 71.6241 30.4542C71.6618 30.0915 71.7184 29.7342 71.6829 29.37C71.6685 29.2231 71.6002 29.0764 71.6098 28.9332C71.6433 28.4343 71.4432 27.9891 71.2524 27.5609C70.916 26.8059 70.3721 26.2598 69.5096 26.0534C69.0273 25.9379 68.5696 25.9231 68.1027 26.0609C66.9081 26.4139 66.2119 27.4588 66.1121 28.5571C66.0489 29.2528 66.0629 29.9565 66.0671 30.6566C66.0702 31.1792 66.155 31.687 66.4219 32.158C66.9242 33.044 67.6536 33.5491 68.4871 33.5491L68.4872 33.549Z" fill="#FEFEFF"/>
<path d="M78.9224 33.981V39.7714C78.0819 39.7797 77.272 39.7772 76.4345 39.7731C76.3836 34.5728 76.4961 29.404 76.3438 24.2183H78.5299C78.5788 24.7758 78.6269 25.3258 78.6814 25.9475C78.785 25.8025 78.8463 25.7177 78.9067 25.6323C79.3839 24.9579 80.0319 24.484 80.8022 24.2144C81.4141 24.0003 82.0642 23.9004 82.7259 23.9843C83.3114 24.0586 83.8923 24.1393 84.4229 24.4258C85.386 24.9458 86.0932 25.6994 86.5345 26.6879C86.7502 27.1712 86.9142 27.6762 86.9961 28.2006C87.1075 28.9129 87.1474 29.6313 87.0706 30.3483C86.9767 31.2263 86.8359 32.0998 86.3964 32.8867C85.8122 33.9327 85.0202 34.7712 83.8624 35.2068C83.114 35.4885 82.3374 35.58 81.541 35.4727C81.3072 35.4412 81.0714 35.4117 80.8433 35.3546C80.0732 35.1615 79.4773 34.72 79.029 34.077C79.0178 34.0608 78.9992 34.0497 78.9223 33.9811L78.9224 33.981ZM78.8978 29.9656C78.9104 29.9663 78.9231 29.9669 78.9356 29.9676C78.9356 30.2586 78.9343 30.5496 78.9362 30.8406C78.9372 31.0018 78.9135 31.1705 78.9529 31.3227C79.1071 31.919 79.3728 32.4613 79.8352 32.8891C80.1568 33.1866 80.5276 33.4043 80.9654 33.4878C82.1274 33.7094 83.2901 33.3785 83.9681 32.1766C84.2917 31.603 84.4232 30.9736 84.5143 30.3353C84.5904 29.8011 84.5446 29.2728 84.457 28.7359C84.347 28.0624 84.1165 27.4595 83.7128 26.9106C82.9822 25.9172 81.4404 25.6864 80.4492 26.2625C79.6412 26.7322 79.1434 27.4151 79.0101 28.3253C78.9308 28.8661 78.9325 29.4185 78.8977 29.9656H78.8978Z" fill="#FEFEFF"/>
<path d="M53.279 19.9597C53.3485 19.9394 53.3689 19.9282 53.3894 19.9282C54.3821 19.9273 55.3746 19.9274 56.4119 19.9274C58.0789 25.0231 59.7468 30.1216 61.425 35.2518H58.7342C58.2559 33.7564 57.7814 32.2731 57.3037 30.7791H52.3013C51.8384 32.2777 51.3778 33.7686 50.9185 35.2553H48.3359C48.3586 35.1568 48.371 35.076 48.3958 34.999C48.6108 34.3318 48.8281 33.6652 49.0445 32.9983C49.2799 32.2726 49.5163 31.5473 49.75 30.8212C50.0275 29.9592 50.2988 29.0955 50.5795 28.2348C50.8528 27.3966 51.1361 26.5615 51.4123 25.7241C51.634 25.0513 51.8519 24.3772 52.0712 23.7035C52.288 23.0373 52.5052 22.3713 52.7204 21.7046C52.9082 21.1226 53.0935 20.5398 53.2791 19.9596L53.279 19.9597ZM52.7504 28.8347H56.8529C56.75 28.5227 56.658 28.2367 56.5611 27.9523C56.4694 27.6831 56.3685 27.417 56.279 27.1472C56.1871 26.8699 56.1047 26.5894 56.0168 26.3108C55.9294 26.0339 55.8399 25.7576 55.7523 25.4808C55.6631 25.1991 55.5727 24.9178 55.487 24.635C55.4007 24.3499 55.3158 24.0643 55.2373 23.7768C55.1608 23.4965 55.1213 23.203 55.0141 22.9354C54.9075 22.669 54.9393 22.361 54.752 22.0704C54.7238 22.1583 54.7096 22.196 54.6997 22.2349C54.3977 23.4302 54.1207 24.6318 53.7221 25.802C53.4439 26.619 53.1967 27.4463 52.9351 28.2689C52.8778 28.449 52.8178 28.6282 52.7504 28.8348V28.8347Z" fill="#FEFEFE"/>
<path d="M100.832 20.4074C100.789 20.8781 100.337 22.266 100.188 22.4275C99.561 22.1677 98.9584 21.8835 98.2582 21.845C97.8864 21.8245 97.5151 21.7121 97.136 21.7425C96.6747 21.7795 96.2185 21.8358 95.7884 22.0358C95.3231 22.2521 94.9955 22.5954 94.7551 23.0308C94.7154 23.1027 94.7094 23.1934 94.6907 23.2759C94.5225 24.0133 94.6945 24.6497 95.2677 25.166C95.7089 25.5634 96.233 25.827 96.7688 26.0714C97.398 26.3583 98.0431 26.6159 98.6515 26.941C99.1568 27.211 99.6362 27.5376 100.096 27.8802C100.626 28.276 100.983 28.8085 101.214 29.4311C101.554 30.3482 101.55 31.2789 101.315 32.2036C101.128 32.94 100.748 33.5898 100.151 34.0917C99.4441 34.6862 98.6543 35.1243 97.7345 35.3074C96.7257 35.5081 95.7103 35.5124 94.6891 35.4212C94.0785 35.3667 93.4774 35.2806 92.9024 35.062C92.5304 34.9205 92.1747 34.7476 91.8281 34.5284C92.016 33.8531 92.1977 33.1996 92.3898 32.5088C92.5191 32.555 92.6313 32.5826 92.7317 32.633C93.1697 32.852 93.6107 33.0552 94.0865 33.1918C94.8841 33.4205 95.6962 33.4895 96.5161 33.4335C96.9345 33.405 97.3435 33.2787 97.7277 33.1007C99.1149 32.4582 99.3771 30.63 98.3123 29.6006C97.8764 29.1791 97.3515 28.8893 96.7921 28.6705C95.9604 28.3451 95.1319 28.0165 94.3661 27.5537C93.4805 27.0186 92.7564 26.3294 92.3571 25.366C92.2305 25.0605 92.1289 24.7332 92.1284 24.3894C92.128 24.0671 92.0714 23.7388 92.117 23.4241C92.2168 22.7356 92.4776 22.1006 92.917 21.5473C93.4471 20.8798 94.1183 20.4025 94.9168 20.0925C95.6433 19.8104 96.4046 19.7107 97.1749 19.686C98.043 19.6583 98.9005 19.7775 99.7411 19.9865C100.122 20.0812 100.494 20.219 100.832 20.4076L100.832 20.4074Z" fill="#FEFEFE"/>
<path d="M111.065 29.7846C111.098 29.302 111.084 28.8104 111.176 28.3387C111.339 27.4973 111.686 26.7209 112.211 26.0303C113.063 24.9102 114.179 24.2428 115.595 24.0512C116.083 23.9851 116.565 23.9366 117.054 23.9901C117.354 24.0228 117.659 24.0387 117.952 24.1032C119.549 24.4541 120.717 25.3612 121.43 26.8122C121.626 27.2101 121.771 27.6438 121.863 28.0768C122.039 28.8953 122.1 29.729 121.967 30.5625C121.899 30.989 121.832 31.421 121.701 31.831C121.361 32.9025 120.756 33.8078 119.835 34.4835C119.163 34.9763 118.406 35.3101 117.584 35.4366C116.721 35.5691 115.849 35.5615 114.99 35.3575C113.462 34.9949 112.407 34.0565 111.697 32.7079C111.216 31.7936 111.04 30.8112 111.065 29.7847L111.065 29.7846ZM113.576 29.4593C113.622 29.9168 113.65 30.3762 113.718 30.83C113.819 31.51 114.087 32.1304 114.504 32.6805C114.902 33.2049 115.414 33.5542 116.088 33.651C117.141 33.8019 117.958 33.4338 118.572 32.59C118.899 32.141 119.122 31.6401 119.248 31.1085C119.345 30.6971 119.393 30.2699 119.418 29.8473C119.466 29.0397 119.289 28.2685 118.959 27.5292C118.617 26.764 118.145 26.1515 117.272 25.9102C116.629 25.7325 116.017 25.7419 115.421 26.033C114.573 26.4477 114.139 27.2 113.863 28.0409C113.714 28.4926 113.67 28.9777 113.576 29.4591L113.576 29.4593Z" fill="#FEFEFE"/>
<path d="M133.642 30.4015C133.776 31.6477 134.205 32.7051 135.467 33.2503C135.868 33.4234 136.282 33.5376 136.713 33.5637C137.721 33.6247 138.712 33.5123 139.68 33.2178C139.763 33.1925 139.844 33.1578 139.928 33.1357C140.151 33.0773 140.209 33.1275 140.255 33.3529C140.315 33.6449 140.402 33.9313 140.461 34.2233C140.499 34.4094 140.508 34.6012 140.531 34.7939C139.97 35.0663 139.402 35.2049 138.827 35.3083C137.835 35.4865 136.836 35.47 135.833 35.4076C135.366 35.3785 134.909 35.2797 134.492 35.1103C133.316 34.633 132.4 33.8499 131.836 32.6977C131.543 32.0987 131.337 31.4701 131.285 30.8123C131.239 30.2342 131.26 29.6481 131.29 29.0674C131.373 27.4478 132.264 25.7465 133.604 24.8058C134.167 24.4101 134.788 24.1573 135.481 24.0509C136.002 23.9708 136.517 23.9537 137.039 23.984C137.869 24.0321 138.639 24.2759 139.291 24.78C139.93 25.2748 140.442 25.8783 140.72 26.6647C140.857 27.0553 141.016 27.4354 141.078 27.8465C141.176 28.4922 141.267 29.139 141.174 29.7934C141.151 29.959 141.11 30.1222 141.069 30.3314C140.971 30.3314 140.855 30.3314 140.738 30.3314C138.5 30.3316 136.262 30.3317 134.025 30.3325C133.916 30.3325 133.807 30.3395 133.698 30.3431C133.68 30.3624 133.661 30.3818 133.642 30.4012L133.642 30.4015ZM138.815 28.5572C138.788 28.357 138.746 28.1817 138.744 28.006C138.731 26.9907 138.084 26.1096 137.12 25.8063C136.104 25.4871 135.172 25.7598 134.495 26.5653C134.097 27.0388 133.877 27.5953 133.713 28.1766C133.681 28.2913 133.709 28.4224 133.709 28.5571L138.815 28.5572Z" fill="#FEFEFE"/>
<path d="M104.549 22.1876C104.826 22.0906 105.102 21.987 105.383 21.8982C105.825 21.7586 106.269 21.6276 106.713 21.4964C106.772 21.479 106.837 21.4819 106.93 21.4723V24.1926H109.65V26.0448H106.942C106.942 26.1574 106.942 26.2397 106.942 26.322C106.942 27.8962 106.936 29.4704 106.946 31.0446C106.949 31.4417 106.993 31.8396 107.037 32.235C107.054 32.3816 107.114 32.5266 107.173 32.6648C107.385 33.1633 107.776 33.4168 108.318 33.433C108.546 33.4399 108.775 33.4138 109.003 33.4012C109.155 33.3928 109.306 33.3817 109.494 33.3694C109.513 33.9867 109.531 34.5838 109.55 35.2107C109.347 35.2677 109.157 35.3467 108.961 35.3708C108.39 35.4412 107.819 35.4897 107.238 35.4602C106.05 35.3999 105.256 34.8039 104.783 33.7627C104.662 33.4965 104.613 33.1945 104.558 32.9038C104.471 32.4418 104.484 31.9718 104.484 31.5037C104.485 29.7894 104.485 28.075 104.486 26.3607C104.486 26.2755 104.486 26.1904 104.486 26.064H102.867V24.2042H104.477C104.482 23.5346 104.486 22.892 104.491 22.2493C104.51 22.2288 104.529 22.2083 104.549 22.1878V22.1876Z" fill="white"/>
<path d="M126.487 26.1276C126.941 25.076 127.652 24.3032 128.824 24.0338C129.241 23.9379 129.601 23.9383 130.067 24.0381V26.3204C129.939 26.3204 129.812 26.3154 129.686 26.3213C129.341 26.3377 128.991 26.3303 128.653 26.3848C128.19 26.4591 127.808 26.7134 127.499 27.054C127.151 27.439 126.924 27.8862 126.793 28.397C126.695 28.7782 126.68 29.1552 126.679 29.5376C126.675 31.3165 126.677 33.0953 126.677 34.8742C126.677 34.9905 126.677 35.1066 126.677 35.2447H124.207C124.201 35.1572 124.189 35.0654 124.189 34.9733C124.19 33.0113 124.192 31.049 124.193 29.0869C124.193 28.0844 124.198 27.0816 124.185 26.0792C124.178 25.5439 124.136 25.009 124.111 24.4738C124.108 24.4001 124.111 24.3262 124.111 24.2549C124.342 24.1868 125.868 24.1728 126.27 24.236C126.301 24.821 126.333 25.4104 126.365 25.9996V26.278C126.387 26.279 126.41 26.2802 126.432 26.2812C126.45 26.23 126.468 26.1787 126.487 26.1275L126.487 26.1276Z" fill="white"/>
<path d="M49.7969 14.3645V6.99617C50.0201 6.96775 50.2292 6.9283 50.4398 6.91688C50.9295 6.89041 51.4202 6.85797 51.9098 6.86563C52.2752 6.87147 52.6392 6.93882 53.0045 6.97346C53.1123 6.98372 53.2265 6.95608 53.3301 6.9793C54.4378 7.22833 55.3134 7.78283 55.7744 8.85159C56.08 9.56013 56.1133 10.3091 56.0493 11.0641C56.0051 11.5872 55.8776 12.0919 55.6443 12.5678C55.4598 12.944 55.1875 13.2514 54.8677 13.5152C54.2472 14.0273 53.5371 14.33 52.7278 14.4337C51.9997 14.527 51.2743 14.4929 50.5466 14.4788C50.3839 14.4757 50.2201 14.4914 50.0585 14.4788C49.9695 14.4718 49.884 14.4237 49.7969 14.3941C49.8081 14.3842 49.8081 14.3744 49.7969 14.3645ZM51.0573 7.86964V13.5121C51.7113 13.5395 52.3425 13.5802 52.9527 13.3763C53.7122 13.1225 54.2601 12.6656 54.5209 11.8747C54.7433 11.2 54.8267 10.5311 54.6981 9.83666C54.53 8.92907 54.0518 8.2618 53.1301 7.99045C52.7819 7.88794 52.4087 7.84836 52.044 7.82656C51.7219 7.80722 51.3957 7.85225 51.0573 7.86964Z" fill="#FEFEFE"/>
<path d="M31.8343 6.14996C31.8594 6.49748 31.9002 6.84123 31.8132 7.19485C31.7555 7.42908 31.7748 7.68109 31.7242 7.91778C31.4527 9.19159 30.8946 10.3197 29.9385 11.2334C29.2658 11.8762 28.4891 12.3649 27.6117 12.6883C27.1599 12.8548 26.6872 12.9283 26.2037 12.9205C26.1083 12.9189 26.0132 12.9044 25.9122 12.8954C25.7883 12.3128 25.8454 11.7581 25.9817 11.2135C26.5483 8.95022 27.949 7.39664 30.1221 6.51318C30.6305 6.30646 31.1536 6.14658 31.7107 6.13309C31.7422 6.13231 31.7739 6.14152 31.8343 6.15022V6.14996Z" fill="#FEFEFE"/>
<path d="M66.4218 12.9892C66.4641 12.8047 66.5007 12.6186 66.5499 12.4358C66.6838 11.9381 66.8187 11.4406 66.9618 10.9454C67.0417 10.6687 67.1416 10.3978 67.227 10.1227C67.3409 9.75608 67.4493 9.3878 67.5634 9.00901H68.5621C68.6964 9.33823 68.7893 9.68172 68.8755 10.0334C69.0206 10.6251 69.2406 11.1986 69.4064 11.7859C69.5108 12.156 69.5732 12.5375 69.6571 12.9133C69.6637 12.9425 69.6912 12.9672 69.7089 12.9939C69.708 13.0829 69.6789 13.1814 69.8176 13.2712C69.8257 13.155 69.8312 13.075 69.8369 12.9951C69.8835 12.7256 69.9123 12.4515 69.9799 12.1872C70.2092 11.2914 70.4533 10.3992 70.6889 9.50498C70.7267 9.36094 70.7497 9.21313 70.7869 9.03055C71.185 8.95827 71.5998 9.01277 72.0611 8.99616C71.4789 10.8328 70.9116 12.6223 70.3381 14.4316C69.9973 14.4391 69.6723 14.4433 69.3476 14.4547C69.1867 14.4603 69.1525 14.3534 69.1169 14.2344C68.9441 13.6569 68.763 13.0818 68.5955 12.5027C68.4049 11.8433 68.2257 11.1807 68.0255 10.4614C67.9691 10.6594 67.9239 10.8099 67.8835 10.9618C67.7453 11.48 67.62 12.0022 67.4682 12.5166C67.3054 13.0687 67.1195 13.6141 66.9409 14.1614C66.85 14.4402 66.8474 14.4403 66.5589 14.4433C66.33 14.4456 66.1006 14.4386 65.872 14.448C65.6937 14.4552 65.6264 14.356 65.5839 14.2085C65.2707 13.1233 64.9578 12.038 64.6397 10.9542C64.4525 10.3163 64.2559 9.68107 64.0547 9.01549H65.3505C65.4803 9.5443 65.6132 10.0722 65.739 10.6016C65.9045 11.2979 66.0652 11.9952 66.2263 12.6925C66.2546 12.815 66.2744 12.9393 66.2981 13.0627C66.3137 13.1202 66.3293 13.1778 66.3448 13.2353C66.3668 13.2317 66.3888 13.228 66.4109 13.2244C66.4146 13.146 66.4181 13.0676 66.4218 12.9892Z" fill="#FCFBFC"/>
<path d="M100.475 9.49706V6.52174H101.711V14.4262H100.666C100.647 14.16 100.628 13.9057 100.608 13.6229C100.565 13.6496 100.524 13.6617 100.507 13.6887C99.9803 14.5237 99.1806 14.69 98.2878 14.5136C97.5395 14.3657 97.0696 13.8396 96.7623 13.1786C96.3763 12.3487 96.4193 11.4871 96.6666 10.6355C96.8876 9.87456 97.3689 9.30656 98.1299 9.01978C98.8051 8.76517 99.8603 8.84096 100.369 9.49823C100.399 9.53171 100.429 9.56532 100.459 9.5988C100.464 9.56493 100.469 9.53093 100.475 9.49706ZM100.48 11.6647C100.488 11.6639 100.496 11.6631 100.504 11.6622C100.476 11.3852 100.477 11.1014 100.414 10.8322C100.275 10.2399 99.725 9.79164 99.0001 9.87949C98.5789 9.93062 98.2856 10.1634 98.07 10.5074C97.7995 10.9392 97.7183 11.4133 97.7358 11.915C97.7517 12.3678 97.9022 12.7689 98.188 13.1138C98.7319 13.7699 99.7365 13.7241 100.197 13.0196C100.373 12.7505 100.481 12.4468 100.48 12.1167C100.479 11.966 100.48 11.8154 100.48 11.6647Z" fill="#FEFEFE"/>
<path d="M128.666 14.3554C128.661 14.2699 128.651 14.1844 128.651 14.0989C128.65 11.649 128.649 9.19911 128.648 6.74923C128.648 6.69589 128.657 6.64256 128.661 6.58922C128.68 6.56781 128.699 6.54627 128.718 6.52486C129.096 6.52486 129.473 6.52486 129.886 6.52486V9.69885C129.885 9.72921 129.883 9.75971 129.882 9.79008C129.909 9.75906 129.936 9.72805 129.963 9.69703C130.335 9.07129 131.175 8.71534 132.045 8.98487C132.853 9.23506 133.276 9.7793 133.373 10.6236C133.492 11.6428 133.397 12.6638 133.429 13.6834C133.436 13.9185 133.43 14.1542 133.43 14.4215C133.015 14.4621 132.62 14.4375 132.192 14.4381C132.192 14.3042 132.192 14.1996 132.192 14.0949C132.191 13.2547 132.182 12.4146 132.193 11.5746C132.197 11.2289 132.142 10.8956 132.052 10.5675C131.93 10.1219 131.505 9.87274 130.989 9.91465C130.399 9.96241 129.95 10.4301 129.902 11.0199C129.888 11.1805 129.893 11.3427 129.892 11.5043C129.89 12.366 129.889 13.2275 129.887 14.0892C129.887 14.1943 129.878 14.2995 129.872 14.4192H128.718C128.701 14.3979 128.683 14.3766 128.666 14.3553L128.666 14.3554Z" fill="#FEFEFF"/>
<path d="M86.2526 8.89014C87.2265 8.883 88.0788 9.27866 88.581 10.2117C88.9366 10.8726 89.022 11.6025 88.8555 12.3529C88.774 12.7202 88.6852 13.0771 88.4629 13.3897C87.7493 14.3937 86.7508 14.6969 85.5686 14.5256C84.8818 14.426 84.3912 14.0095 84.0047 13.4769C83.7027 13.0606 83.5153 12.5936 83.5237 12.061C83.5308 11.6062 83.5003 11.1508 83.6571 10.7109C83.9864 9.78696 84.62 9.18069 85.5835 8.93413C85.7698 8.8865 85.9739 8.90623 86.2526 8.89014ZM86.2142 13.6529C86.5932 13.6749 86.9064 13.5026 87.1501 13.1975C87.3893 12.898 87.5069 12.5469 87.5872 12.1772C87.6984 11.6647 87.6002 11.1734 87.4186 10.7027C87.2255 10.2022 86.8853 9.83355 86.2957 9.80344C85.7028 9.77321 85.3075 10.0654 85.0524 10.5769C84.8955 10.8915 84.8308 11.2276 84.7918 11.5711C84.7269 12.1398 84.8633 12.6591 85.1971 13.1252C85.4377 13.4613 85.7569 13.6623 86.2142 13.6529Z" fill="#FCFCFC"/>
<path d="M109.474 8.89623C110.873 8.8525 111.884 9.7954 112.108 10.8552C112.272 11.6367 112.234 12.407 111.887 13.1313C111.489 13.9634 110.77 14.4049 109.872 14.5393C109.524 14.5915 109.148 14.5776 108.802 14.5082C107.783 14.3038 107.016 13.4574 106.845 12.4109C106.749 11.819 106.744 11.2164 106.954 10.6599C107.319 9.69509 108.097 8.89195 109.473 8.89636L109.474 8.89623ZM108.079 11.6173C108.046 12.1762 108.171 12.6651 108.461 13.1147C108.914 13.8159 109.978 13.849 110.457 13.1607C110.786 12.6871 110.947 12.1617 110.895 11.5927C110.866 11.2819 110.797 10.9647 110.683 10.6741C110.502 10.2091 110.181 9.86391 109.64 9.80733C109.096 9.75037 108.684 9.9724 108.411 10.4335C108.191 10.8059 108.035 11.201 108.079 11.6173Z" fill="#FCFCFC"/>
<path d="M57.5229 11.7252C57.459 10.744 57.822 10.0115 58.5155 9.43841C59.1635 8.90286 59.9366 8.82759 60.7373 8.93504C60.9747 8.96683 61.2201 9.02951 61.4324 9.1354C61.9496 9.39338 62.3733 9.76932 62.6091 10.3018C62.8219 10.782 62.9073 11.2937 62.8815 11.8226C62.8462 12.5465 62.6818 13.2187 62.1457 13.7549C61.6444 14.256 61.0419 14.5353 60.3261 14.5694C59.0521 14.6303 58.2606 14.0938 57.6885 12.9856C57.5704 12.7566 57.562 12.4675 57.5274 12.2029C57.5038 12.0226 57.5229 11.837 57.5229 11.725V11.7252ZM61.5893 11.6225C61.6341 11.275 61.4818 10.9052 61.3184 10.5488C61.1108 10.0958 60.7527 9.81448 60.2267 9.79994C59.7191 9.78593 59.3494 10.0235 59.1012 10.4474C58.9854 10.645 58.8805 10.8446 58.8262 11.0782C58.762 11.3546 58.7861 11.6263 58.7737 11.9C58.7554 12.3004 58.8936 12.6526 59.0839 13.0022C59.5682 13.8922 60.7635 13.8612 61.2442 13.0373C61.4895 12.6166 61.6015 12.1672 61.5893 11.6225Z" fill="#FCFCFC"/>
<path d="M139.988 12.013H136.465C136.342 12.176 136.414 12.3054 136.454 12.4486C136.58 12.9022 136.845 13.2381 137.27 13.4446C137.389 13.5023 137.521 13.5457 137.652 13.5658C138.262 13.6596 138.859 13.5881 139.443 13.3955C139.474 13.3854 139.507 13.3823 139.538 13.3761C139.67 13.6947 139.729 13.9827 139.715 14.2401C139.351 14.419 138.944 14.4764 138.544 14.5262C137.991 14.5951 137.427 14.5901 136.893 14.4133C136.501 14.2838 136.158 14.0523 135.875 13.7453C135.461 13.2954 135.22 12.7731 135.208 12.1593C135.202 11.8259 135.16 11.4839 135.217 11.1606C135.392 10.1839 136.107 9.0251 137.44 8.90221C138.093 8.84199 138.7 8.92427 139.222 9.35886C139.529 9.61385 139.722 9.92218 139.876 10.2949C140.092 10.8164 140.117 11.3328 140.056 11.8714C140.053 11.903 140.041 11.9338 140.031 11.9643C140.028 11.9734 140.017 11.98 139.988 12.0133L139.988 12.013ZM136.393 11.1272H138.878C138.878 11.0326 138.887 10.9366 138.875 10.8431C138.865 10.7609 138.828 10.6822 138.808 10.6007C138.704 10.1628 138.432 9.87663 137.989 9.78125C137.531 9.6825 137.131 9.80682 136.82 10.168C136.588 10.4374 136.437 10.7423 136.393 11.1272Z" fill="#FDFDFD"/>
<path d="M93.5888 13.8819C93.2966 14.1753 92.9756 14.4282 92.5557 14.5108C92.1066 14.599 91.6563 14.6383 91.2245 14.4269C90.5668 14.105 90.2571 13.5495 90.2917 12.8276C90.3346 11.9307 91.0036 11.4058 91.6717 11.1813C92.1557 11.0187 92.6544 10.9387 93.1655 10.9306C93.2612 10.929 93.3568 10.9214 93.4489 10.9168C93.5326 10.2335 93.1955 9.81837 92.5269 9.78073C92.064 9.75465 91.62 9.84419 91.2018 10.0478C91.1074 10.0937 91.0103 10.1342 90.9173 10.1759C90.8281 9.88558 90.7482 9.62553 90.667 9.36106C91.3438 8.97578 92.0795 8.8538 92.8456 8.91246C93.2329 8.94217 93.6129 9.02899 93.9423 9.2614C94.3628 9.55831 94.579 9.95293 94.6676 10.4616C94.7741 11.0732 94.7209 11.6822 94.74 12.2923C94.76 12.9276 94.7744 13.5632 94.7917 14.1987C94.7936 14.2715 94.7981 14.3443 94.8019 14.4275H93.6892C93.6769 14.2446 93.6656 14.0766 93.6542 13.9085C93.6534 13.8918 93.6526 13.8752 93.6519 13.8584C93.6309 13.8663 93.6101 13.8741 93.5891 13.882L93.5888 13.8819ZM93.4767 11.7701C93.2807 11.7697 93.0776 11.7366 92.8902 11.7763C92.5876 11.8404 92.2825 11.9245 92.0016 12.0504C91.4853 12.2816 91.3267 13.2246 91.9375 13.5796C92.104 13.6764 92.2718 13.6507 92.4374 13.647C92.9489 13.6357 93.3844 13.2886 93.4737 12.7891C93.5295 12.4767 93.515 12.1519 93.5319 11.8326C93.5135 11.8117 93.4952 11.791 93.4768 11.7701H93.4767Z" fill="#FDFDFD"/>
<path d="M115.22 14.4254H113.977V9.00809C114.296 8.98889 114.636 9.00537 114.998 9.00394C115.028 9.27178 115.055 9.51341 115.087 9.81032C115.177 9.70222 115.235 9.63241 115.293 9.56337C115.739 9.0334 116.532 8.74337 117.262 8.96371C118.255 9.26348 118.719 9.83173 118.749 10.8617C118.783 12.0134 118.758 13.1669 118.757 14.3195C118.757 14.3491 118.739 14.3787 118.725 14.4251H117.524C117.524 14.3003 117.524 14.1852 117.524 14.0701C117.523 13.2082 117.534 12.3461 117.515 11.4846C117.508 11.1704 117.458 10.8504 117.378 10.5461C117.268 10.1314 116.848 9.8887 116.359 9.91816C115.765 9.95397 115.301 10.4376 115.237 11.0647C115.223 11.2036 115.226 11.3444 115.225 11.4845C115.223 12.3464 115.222 13.2082 115.22 14.0701C115.22 14.176 115.22 14.2819 115.22 14.4256V14.4254Z" fill="#FEFEFE"/>
<path d="M74.7562 9.77152C75.2556 9.04365 75.933 8.80254 76.8518 8.97708C77.5785 9.11502 78.0257 9.53508 78.2422 10.2107C78.3097 10.4217 78.3549 10.649 78.357 10.8695C78.3682 12.0435 78.3623 13.2178 78.3623 14.4375C77.9681 14.4454 77.5826 14.4456 77.1705 14.4368C77.1639 14.332 77.1531 14.2396 77.1531 14.147C77.1536 13.3708 77.1614 12.5944 77.1554 11.8181C77.1531 11.5175 77.1232 11.2169 77.1003 10.9167C77.0946 10.8425 77.0659 10.7702 77.0494 10.6968C76.8522 9.81746 75.7602 9.7235 75.2626 10.2182C74.9551 10.5239 74.8154 10.887 74.8162 11.3128C74.818 12.2401 74.8165 13.1673 74.8162 14.0946C74.8162 14.2004 74.8162 14.306 74.8162 14.4255H73.5938V9.02678H74.6115C74.6333 9.2736 74.6557 9.52522 74.678 9.77684C74.6872 9.79163 74.6963 9.80643 74.7055 9.82135C74.7223 9.80474 74.7392 9.78813 74.756 9.77165L74.7562 9.77152Z" fill="#FEFEFF"/>
<path d="M126.883 14.4194C126.349 14.5975 125.808 14.639 125.302 14.4644C124.864 14.3131 124.578 13.9499 124.468 13.4794C124.402 13.1969 124.405 12.9114 124.405 12.6254C124.405 11.8385 124.406 11.0516 124.406 10.2645C124.406 10.1689 124.406 10.0734 124.406 9.94372C124.145 9.93165 123.9 9.92023 123.633 9.90778V9.00537H124.395V8.01057C124.799 7.88911 125.195 7.7705 125.625 7.64112V9.00589H126.948V9.91972H125.628C125.628 10.1011 125.628 10.2384 125.628 10.3757C125.628 11.0657 125.623 11.7557 125.632 12.4455C125.634 12.6481 125.657 12.8555 125.708 13.051C125.794 13.378 125.977 13.5122 126.317 13.5336C126.437 13.5411 126.557 13.535 126.677 13.5262C126.814 13.5161 126.883 13.5709 126.883 13.7079C126.883 13.9334 126.883 14.1588 126.883 14.4194Z" fill="#FEFEFF"/>
<path d="M81.7219 14.429H80.5234V6.5438H81.7219V14.429Z" fill="white"/>
<path d="M69.8342 12.9952C69.8287 13.0751 69.8231 13.1551 69.815 13.2714C69.6763 13.1816 69.7053 13.0831 69.7063 12.994C69.749 12.9944 69.7915 12.9948 69.8341 12.9952H69.8342Z" fill="#7A7A78"/>
<path d="M66.4205 12.9892C66.4169 13.0676 66.4133 13.146 66.4097 13.2244C66.3877 13.228 66.3656 13.2317 66.3435 13.2353C66.3279 13.1778 66.3123 13.1202 66.2969 13.0627C66.3381 13.0382 66.3793 13.0138 66.4205 12.9892Z" fill="#888887"/>
<path d="M126.489 26.1276C126.47 26.1789 126.452 26.2301 126.434 26.2814C126.411 26.2803 126.389 26.2792 126.367 26.2781V25.9998C126.408 26.0425 126.448 26.085 126.489 26.1276Z" fill="#5E5D5C"/>
<path d="M129.964 9.69703C129.937 9.72805 129.91 9.75906 129.883 9.79008C129.884 9.75971 129.886 9.72922 129.887 9.69885C129.913 9.6982 129.938 9.69768 129.964 9.69703Z" fill="#D1D0D0"/>
<path d="M100.473 9.49706C100.468 9.53093 100.462 9.56493 100.457 9.5988C100.427 9.56532 100.397 9.53171 100.367 9.49823C100.403 9.49784 100.438 9.49745 100.473 9.49706Z" fill="#525251"/>
<path d="M49.7961 14.3645C49.8075 14.3746 49.8075 14.3847 49.7961 14.3948C49.7781 14.3919 49.7601 14.3889 49.7422 14.386C49.7601 14.3789 49.7781 14.3717 49.7961 14.3645Z" fill="#DCDCDB"/>
<path d="M93.5938 13.8819C93.6147 13.874 93.6355 13.8662 93.6565 13.8583C93.6573 13.875 93.6581 13.8916 93.6589 13.9084C93.6371 13.8996 93.6155 13.8906 93.5938 13.8819Z" fill="#5E5D5C"/>
<path d="M133.641 30.4015C133.659 30.3822 133.678 30.3628 133.697 30.3434C133.678 30.3627 133.659 30.382 133.641 30.4015Z" fill="#343332"/>
<path d="M74.7498 9.77152C74.7331 9.78813 74.7162 9.80474 74.6994 9.82122C74.6902 9.80643 74.681 9.79164 74.6719 9.77671C74.6978 9.7749 74.7239 9.77321 74.7499 9.77139L74.7498 9.77152Z" fill="#BCBBBB"/>
<path d="M128.721 6.52486C128.702 6.54627 128.683 6.56781 128.664 6.58922C128.683 6.56781 128.702 6.54627 128.721 6.52486Z" fill="#FCFBFC"/>
</g>
<defs>
<clipPath id="clip0_7268_89612">
<rect width="155" height="44" fill="white"/>
</clipPath>
</defs>
</svg>
