<svg width="216" height="80" viewBox="0 0 216 80" fill="none" xmlns="http://www.w3.org/2000/svg">
<path d="M352.92 -38.3426C353.667 -37.4275 354.256 -36.4394 354.763 -35.422C359.088 -26.7456 355.446 -16.2134 346.715 -11.8612C344.71 -10.8621 342.509 -10.2571 340.384 -10.0862C338.548 -9.32788 337.467 -8.43871 336.857 -7.55723C336.245 -6.67202 336.088 -5.76589 336.151 -4.94204C336.214 -4.11165 336.5 -3.36314 336.777 -2.81629C336.915 -2.54423 337.049 -2.32571 337.147 -2.17626C337.172 -2.13769 337.195 -2.10379 337.215 -2.07482C337.234 -2.04773 337.25 -2.02496 337.264 -2.00672C337.277 -1.98787 337.288 -1.97388 337.294 -1.96502L337.301 -1.95561L337.303 -1.95407L337.303 -1.95384L337.303 -1.95371L337.307 -1.94794L337.312 -1.9416C338.302 -0.555506 339.216 0.876465 340.011 2.47139C347.668 17.8315 341.306 36.5965 325.836 44.3075C312.22 51.0941 296.051 47.1542 287.173 35.5996C286.068 34.6173 285.106 34.2739 284.297 34.2656C283.479 34.2572 282.761 34.591 282.154 35.066C281.545 35.542 281.065 36.1467 280.735 36.6401C280.57 36.8855 280.445 37.1001 280.362 37.2524C280.338 37.2957 280.318 37.334 280.301 37.3664C280.288 37.3908 280.277 37.4119 280.269 37.4294C280.264 37.4386 280.26 37.4468 280.256 37.4539C278.853 43.9183 274.615 49.7074 268.267 52.8716C261.905 56.0425 254.715 55.9347 248.741 53.2258L248.733 53.2224L248.733 53.2223C247.155 52.4618 246.035 52.4032 245.238 52.668C244.443 52.9324 243.894 53.5451 243.513 54.2925C243.132 55.0415 242.937 55.8944 242.839 56.5717C242.79 56.9081 242.765 57.1962 242.753 57.3993C242.747 57.5008 242.744 57.5807 242.743 57.6347C242.743 57.642 242.742 57.6489 242.742 57.6552L352.92 -38.3426ZM352.92 -38.3426C352.919 -38.3441 352.919 -38.3456 352.918 -38.3472C352.905 -38.3947 352.887 -38.4661 352.866 -38.5581C352.823 -38.7424 352.772 -39.008 352.737 -39.3281C352.667 -39.9715 352.663 -40.8191 352.915 -41.6664C353.166 -42.5074 353.67 -43.3517 354.627 -44.0076C355.587 -44.6663 357.033 -45.154 359.198 -45.2259C360.635 -45.2292 362.112 -45.5592 363.508 -46.2548C368.36 -48.6735 370.275 -54.5205 367.913 -59.2598C365.549 -64.0012 359.647 -65.9492 354.876 -63.571C353.899 -63.0839 353.08 -62.4758 352.344 -61.7101C351.212 -60.9394 350.229 -60.5878 349.407 -60.5382C348.586 -60.4887 347.904 -60.7382 347.357 -61.21C346.243 -62.17 345.633 -64.1072 345.759 -66.4787C346.016 -70.2063 345.226 -74.007 343.475 -77.5209C337.975 -88.5548 324.492 -93.0088 313.38 -87.4704C302.269 -81.932 297.709 -68.4843 303.209 -57.4503L303.21 -57.4485L303.211 -57.4467L303.212 -57.4448L303.213 -57.443L303.214 -57.4411L303.215 -57.4393L303.215 -57.4374L303.216 -57.4355L303.217 -57.4337L303.218 -57.4318L303.219 -57.43L303.22 -57.4281L303.221 -57.4262L303.222 -57.4244L303.223 -57.4225L303.224 -57.4206L303.225 -57.4188L303.226 -57.4169L303.227 -57.415L303.228 -57.4131L303.229 -57.4112L303.229 -57.4094L303.23 -57.4075L303.231 -57.4056L303.232 -57.4037L303.233 -57.4018L303.234 -57.3999L303.235 -57.398L303.236 -57.3962L303.237 -57.3943L303.238 -57.3924L303.239 -57.3905L303.24 -57.3886L303.241 -57.3867L303.242 -57.3848L303.243 -57.3829L303.244 -57.381L303.245 -57.3791L303.246 -57.3771L303.246 -57.3752L303.247 -57.3733L303.248 -57.3714L303.249 -57.3695L303.25 -57.3676L303.251 -57.3657L303.252 -57.3638L303.253 -57.3618L303.254 -57.3599L303.255 -57.358L303.256 -57.3561L303.257 -57.3541L303.258 -57.3522L303.259 -57.3503L303.26 -57.3484L303.261 -57.3464L303.262 -57.3445L303.263 -57.3426L303.264 -57.3406L303.265 -57.3387L303.266 -57.3367L303.267 -57.3348L303.268 -57.3329L303.269 -57.3309L303.27 -57.329L303.271 -57.327L303.271 -57.3251L303.272 -57.3231L303.273 -57.3212L303.274 -57.3192L303.275 -57.3173L303.276 -57.3153L303.277 -57.3134L303.278 -57.3114L303.279 -57.3095L303.28 -57.3075L303.281 -57.3056L303.282 -57.3036L303.283 -57.3016L303.284 -57.2997L303.285 -57.2977L303.286 -57.2957L303.287 -57.2938L303.288 -57.2918L303.289 -57.2898L303.29 -57.2879L303.291 -57.2859L303.292 -57.2839L303.293 -57.2819L303.294 -57.28L303.295 -57.278L303.296 -57.276L303.297 -57.274L303.298 -57.2721L303.299 -57.2701L303.3 -57.2681L303.301 -57.2661L303.302 -57.2641L303.303 -57.2621L303.304 -57.2602L303.305 -57.2582L303.306 -57.2562L303.307 -57.2542L303.308 -57.2522L303.309 -57.2502L303.31 -57.2482L303.311 -57.2462L303.312 -57.2442L303.313 -57.2422L303.314 -57.2402L303.315 -57.2382L303.316 -57.2362L303.317 -57.2342L303.318 -57.2322L303.319 -57.2302L303.32 -57.2282L303.321 -57.2262L303.322 -57.2242L303.323 -57.2222L303.324 -57.2202L303.325 -57.2182L303.326 -57.2162L303.327 -57.2142L303.328 -57.2122L303.329 -57.2101L303.33 -57.2081L303.331 -57.2061L303.332 -57.2041L303.333 -57.2021L303.334 -57.2001L303.335 -57.198L303.336 -57.196L303.337 -57.194L303.338 -57.192L303.339 -57.19L303.34 -57.1879L303.341 -57.1859L303.342 -57.1839L303.343 -57.1819L303.344 -57.1798L303.345 -57.1778L303.346 -57.1758L303.347 -57.1738L303.348 -57.1717L303.349 -57.1697L303.35 -57.1677L303.351 -57.1656L303.352 -57.1636L303.353 -57.1616L303.354 -57.1596L303.355 -57.1575L303.356 -57.1555L303.357 -57.1534L303.358 -57.1514L303.359 -57.1494L303.36 -57.1473L303.361 -57.1453L303.362 -57.1433L303.363 -57.1412L303.364 -57.1392L303.365 -57.1371L303.366 -57.1351L303.367 -57.1331L303.368 -57.131L303.369 -57.129L303.37 -57.1269L303.371 -57.1249L303.372 -57.1228L303.373 -57.1208L303.374 -57.1187L303.375 -57.1167L303.376 -57.1146L303.377 -57.1126L303.378 -57.1105L303.379 -57.1085L303.38 -57.1064L303.381 -57.1044L303.383 -57.1023L303.384 -57.1003L303.385 -57.0982L303.386 -57.0962L303.387 -57.0941L303.388 -57.0921L303.389 -57.09L303.39 -57.088L303.391 -57.0859L303.392 -57.0838L303.393 -57.0818L303.394 -57.0797L303.395 -57.0777L303.396 -57.0756L303.397 -57.0736L303.398 -57.0715L303.399 -57.0694L303.4 -57.0674L303.401 -57.0653L303.402 -57.0633L303.403 -57.0612L303.404 -57.0591L303.405 -57.0571L303.406 -57.055L303.407 -57.0529L303.408 -57.0509L303.409 -57.0488L303.41 -57.0468L303.411 -57.0447L303.412 -57.0426L303.413 -57.0406L303.414 -57.0385L303.415 -57.0364L303.416 -57.0344L303.417 -57.0323L303.418 -57.0302L303.419 -57.0282L303.421 -57.0261L303.422 -57.024L303.423 -57.022L303.424 -57.0199L303.425 -57.0178L303.426 -57.0157L303.427 -57.0137L303.428 -57.0116L303.429 -57.0095L303.43 -57.0075L303.431 -57.0054L303.432 -57.0033L303.433 -57.0013L303.434 -56.9992L303.435 -56.9971L303.436 -56.995L303.437 -56.993L303.438 -56.9909L303.439 -56.9888L303.44 -56.9868L303.441 -56.9847L303.442 -56.9826L303.443 -56.9805L303.444 -56.9785L303.445 -56.9764L303.446 -56.9743L303.447 -56.9722L303.448 -56.9702L303.449 -56.9681L303.45 -56.966L303.451 -56.964L303.453 -56.9619L303.454 -56.9598L303.455 -56.9577L303.456 -56.9557L303.457 -56.9536L303.458 -56.9515L303.459 -56.9494L303.46 -56.9474L303.461 -56.9453L303.462 -56.9432L303.463 -56.9411L303.464 -56.9391L303.465 -56.937L303.466 -56.9349L303.467 -56.9328L303.468 -56.9308L303.469 -56.9287L303.47 -56.9266L303.471 -56.9246L303.472 -56.9225L303.473 -56.9204L303.474 -56.9183L303.475 -56.9163L303.476 -56.9142L303.477 -56.9121L303.478 -56.91L303.479 -56.908L303.48 -56.9059L303.481 -56.9038L303.482 -56.9017L303.484 -56.8997L303.485 -56.8976L303.486 -56.8955L303.487 -56.8935L303.488 -56.8914L303.489 -56.8893L303.49 -56.8872L303.491 -56.8852L303.492 -56.8831L303.493 -56.881L303.494 -56.879L303.495 -56.8769L303.496 -56.8748L303.497 -56.8727L303.498 -56.8707L303.499 -56.8686L303.5 -56.8665L303.501 -56.8645L303.502 -56.8624L303.503 -56.8603L303.504 -56.8583L303.505 -56.8562L303.506 -56.8541L303.507 -56.852L303.508 -56.85L303.509 -56.8479L303.51 -56.8458L303.511 -56.8438L303.512 -56.8417L303.513 -56.8396L303.514 -56.8376L303.516 -56.8355L303.517 -56.8334L303.518 -56.8314L303.519 -56.8293L303.52 -56.8273L303.521 -56.8252L303.522 -56.8231L303.523 -56.8211L303.524 -56.819L303.525 -56.8169L303.526 -56.8149L303.527 -56.8128L303.528 -56.8108L303.529 -56.8087L303.53 -56.8066L303.531 -56.8046L303.532 -56.8025L303.533 -56.8005L303.534 -56.7984L303.535 -56.7963L303.536 -56.7943L303.537 -56.7922L303.538 -56.7902L303.539 -56.7881L303.54 -56.7861L303.541 -56.784L303.542 -56.782L303.543 -56.7799L303.544 -56.7779L303.545 -56.7758L303.546 -56.7737L303.547 -56.7717L303.548 -56.7696L303.549 -56.7676L303.55 -56.7655L303.551 -56.7635L303.552 -56.7615L303.553 -56.7594L303.554 -56.7574L303.555 -56.7553L303.557 -56.7533L303.558 -56.7512L303.559 -56.7492L303.56 -56.7471L303.561 -56.7451L303.562 -56.743L303.563 -56.741L303.564 -56.739L303.565 -56.7369L303.566 -56.7349L303.567 -56.7328L303.568 -56.7308L303.569 -56.7288L303.57 -56.7267L303.571 -56.7247L303.572 -56.7227L303.573 -56.7206L303.574 -56.7186L303.575 -56.7166L303.576 -56.7145L303.577 -56.7125L303.578 -56.7105L303.579 -56.7084L303.58 -56.7064L303.581 -56.7044L303.582 -56.7023L303.583 -56.7003L303.584 -56.6983L303.585 -56.6963L303.586 -56.6942L303.587 -56.6922L303.588 -56.6902L303.589 -56.6882L303.59 -56.6861L303.591 -56.6841L303.592 -56.6821L303.593 -56.6801L303.594 -56.6781L303.595 -56.6761L303.596 -56.674L303.597 -56.672L303.598 -56.67L303.599 -56.668L303.6 -56.666L303.601 -56.664L303.602 -56.662L303.603 -56.66L303.604 -56.6579L303.605 -56.6559L303.606 -56.6539L303.607 -56.6519L303.608 -56.6499L303.609 -56.6479L303.61 -56.6459L303.611 -56.6439L303.612 -56.6419L303.613 -56.6399L303.614 -56.6379L303.615 -56.6359L303.616 -56.6339L303.617 -56.6319L303.618 -56.6299L303.619 -56.6279L303.62 -56.6259L303.621 -56.624L303.622 -56.622L303.623 -56.62L303.624 -56.618L303.625 -56.616L303.626 -56.614L303.627 -56.612L303.628 -56.61L303.629 -56.6081L303.63 -56.6061L303.631 -56.6041L303.632 -56.6021L303.633 -56.6001L303.634 -56.5982L303.635 -56.5962L303.636 -56.5942L303.637 -56.5922L303.638 -56.5903L303.639 -56.5883L303.64 -56.5863L303.641 -56.5844L303.642 -56.5824L303.643 -56.5804L303.644 -56.5785L303.645 -56.5765L303.646 -56.5745L303.647 -56.5726L303.648 -56.5706L303.649 -56.5687L303.649 -56.5667L303.65 -56.5648L303.651 -56.5628L303.652 -56.5608L303.653 -56.5589L303.654 -56.5569L303.655 -56.555L303.656 -56.553L303.657 -56.5511L303.658 -56.5492L303.659 -56.5472L303.66 -56.5453L303.661 -56.5433L303.662 -56.5414L303.663 -56.5395L303.664 -56.5375L303.665 -56.5356L303.666 -56.5336L303.667 -56.5317L303.668 -56.5298L303.669 -56.5279L303.67 -56.5259L303.671 -56.524L303.672 -56.5221L303.673 -56.5201L303.674 -56.5182L303.675 -56.5163L303.676 -56.5144L303.677 -56.5125L303.677 -56.5105L303.678 -56.5086L303.679 -56.5067L303.68 -56.5048L303.681 -56.5029L303.682 -56.501L303.683 -56.4991L303.684 -56.4972L303.685 -56.4953L303.686 -56.4934L303.687 -56.4915L303.688 -56.4896L303.689 -56.4877L303.69 -56.4858L303.691 -56.4839L303.692 -56.482L303.693 -56.4801L303.694 -56.4782L303.695 -56.4763L303.695 -56.4744L303.696 -56.4725L303.697 -56.4707L303.698 -56.4688L303.699 -56.4669L303.7 -56.465L303.701 -56.4631L303.702 -56.4613L303.703 -56.4594L303.704 -56.4575L303.705 -56.4556L303.706 -56.4538L303.707 -56.4519L303.708 -56.45L303.709 -56.4482L303.709 -56.4463L303.71 -56.4445L303.711 -56.4426L303.712 -56.4407L303.713 -56.4389L303.714 -56.437L303.715 -56.4352L303.716 -56.4333L303.717 -56.4315L303.718 -56.4296L303.719 -56.4278L303.735 -56.3958L303.757 -56.3677C304.405 -55.5338 304.862 -54.4549 305.04 -53.3585C305.217 -52.2604 305.109 -51.1745 304.667 -50.3116C304.231 -49.4614 303.458 -48.8008 302.235 -48.5488C301 -48.2942 299.284 -48.454 296.985 -49.3093C291.8 -51.6216 285.643 -51.6477 280.081 -48.8753C275.808 -46.7456 272.653 -43.3745 270.823 -39.363C270.8 -39.317 270.777 -39.2702 270.754 -39.2226C270.446 -38.5951 270.075 -37.8379 269.642 -37.105C269.173 -36.3114 268.647 -35.5727 268.074 -35.0702C267.503 -34.5693 266.931 -34.3396 266.344 -34.4545C265.75 -34.5708 265.035 -35.0594 264.224 -36.2428C263.786 -37.7078 263.115 -39.0529 262.423 -40.4417L262.416 -40.4559C253.192 -58.9618 230.548 -66.5102 211.829 -57.1793C195.439 -49.0098 187.576 -30.5381 192.114 -13.5864C192.114 -13.5772 192.115 -13.5659 192.115 -13.5528C192.117 -13.5067 192.119 -13.4376 192.118 -13.3491C192.118 -13.1718 192.109 -12.9179 192.078 -12.6162C192.015 -12.0097 191.86 -11.2246 191.5 -10.4817C191.142 -9.74244 190.585 -9.05258 189.715 -8.61051C188.849 -8.17037 187.635 -7.95698 185.927 -8.23328C180.399 -10.053 174.301 -9.79878 168.674 -6.99414C157.735 -1.54146 153.134 11.6055 158.249 22.5149C158.25 22.5197 158.251 22.5251 158.253 22.5311C158.256 22.5449 158.26 22.5617 158.264 22.5814C158.279 22.6476 158.3 22.7461 158.324 22.872C158.37 23.1242 158.426 23.4853 158.46 23.9165C158.53 24.7827 158.514 25.9138 158.185 27.0103C157.858 28.101 157.226 29.1497 156.061 29.884C154.901 30.6162 153.171 31.0612 150.601 30.8727C144.919 28.7427 138.351 28.8409 132.487 31.7635C121.376 37.3018 116.816 50.7496 122.316 61.7835C126.062 69.2999 133.519 73.7657 141.43 74.1117L141.433 74.1118L141.433 74.1118L141.434 74.1118L141.436 74.1119L141.449 74.1126C141.461 74.1132 141.48 74.1144 141.506 74.1163C141.557 74.1201 141.634 74.1268 141.733 74.1387C141.929 74.1625 142.211 74.2065 142.546 74.287C143.216 74.4485 144.084 74.7543 144.896 75.329C145.704 75.901 146.46 76.7414 146.914 77.985C147.367 79.2253 147.528 80.8914 147.11 83.1307C146.168 85.5362 146.162 88.3841 147.459 90.9863C149.862 95.8083 155.726 97.6747 160.495 95.2975C162.384 94.3557 163.862 92.8085 164.81 91.0244L164.811 91.0232C164.82 91.0109 164.834 90.9918 164.853 90.9667C164.891 90.9165 164.948 90.8425 165.024 90.7506C165.177 90.5668 165.404 90.3127 165.701 90.0364C166.295 89.4818 167.154 88.8491 168.229 88.5043C169.295 88.162 170.587 88.0987 172.072 88.6974C173.563 89.2988 175.272 90.5778 177.144 92.9623C187.866 106.883 207.264 111.75 223.707 103.658L352.92 -38.3426Z" fill="#F78DC5" stroke="black" stroke-width="0.715886"/>
<path d="M124.674 120.872C124.955 122.019 125.389 123.084 125.897 124.102C130.221 132.778 140.823 136.21 149.555 131.858C151.559 130.859 153.367 129.466 154.783 127.872C156.494 126.862 157.855 126.534 158.926 126.578C160.001 126.621 160.819 127.042 161.439 127.588C162.064 128.138 162.49 128.818 162.759 129.368C162.894 129.642 162.988 129.88 163.048 130.048C163.063 130.092 163.077 130.131 163.088 130.164C163.098 130.195 163.107 130.222 163.113 130.244C163.12 130.266 163.125 130.283 163.128 130.293L163.131 130.305L163.132 130.306L163.132 130.307L163.132 130.307L163.134 130.314L163.136 130.321C163.647 131.946 164.24 133.538 165.035 135.133C172.691 150.494 191.505 156.709 206.975 148.998C220.59 142.212 227.178 126.929 223.296 112.884C223.176 111.411 223.482 110.435 223.962 109.784C224.448 109.126 225.146 108.754 225.891 108.555C226.638 108.355 227.41 108.336 228.003 108.369C228.297 108.386 228.544 108.415 228.716 108.44C228.765 108.447 228.807 108.454 228.843 108.46C228.871 108.465 228.894 108.469 228.913 108.472C228.923 108.474 228.932 108.476 228.94 108.477C234.947 111.249 242.121 111.349 248.469 108.185C254.83 105.014 259.073 99.2072 260.506 92.8062L260.508 92.798L260.508 92.798C260.85 91.08 261.478 90.1501 262.169 89.6736C262.859 89.1975 263.679 89.1281 264.505 89.2742C265.332 89.4205 266.131 89.7782 266.731 90.1073C267.029 90.2708 267.273 90.4247 267.443 90.5374C267.528 90.5937 267.593 90.6394 267.637 90.6708C267.643 90.675 267.649 90.679 267.654 90.6827L124.674 120.872ZM124.674 120.872C124.673 120.87 124.672 120.869 124.671 120.868C124.641 120.829 124.595 120.771 124.534 120.699C124.413 120.554 124.231 120.353 123.997 120.133C123.526 119.689 122.851 119.176 122.022 118.867C121.2 118.561 120.223 118.455 119.123 118.824C118.018 119.195 116.759 120.056 115.398 121.741C114.531 122.886 113.378 123.867 111.982 124.563C107.13 126.982 101.308 124.991 98.9458 120.252C96.5824 115.511 98.5798 109.625 103.351 107.247C104.328 106.76 105.307 106.472 106.361 106.345C107.658 105.905 108.53 105.332 109.065 104.705C109.599 104.079 109.81 103.385 109.763 102.664C109.667 101.197 108.487 99.5435 106.518 98.2163C103.386 96.1774 100.827 93.2591 99.0754 89.7451C93.5755 78.7112 98.1356 65.2635 109.247 59.7251C120.358 54.1867 133.841 58.6407 139.341 69.6746L139.342 69.6765L139.343 69.6783L139.344 69.6802L139.345 69.682L139.346 69.6839L139.347 69.6857L139.348 69.6876L139.348 69.6894L139.349 69.6913L139.35 69.6931L139.351 69.695L139.352 69.6969L139.353 69.6987L139.354 69.7006L139.355 69.7025L139.356 69.7043L139.357 69.7062L139.358 69.7081L139.359 69.71L139.36 69.7118L139.361 69.7137L139.362 69.7156L139.362 69.7175L139.363 69.7194L139.364 69.7212L139.365 69.7231L139.366 69.725L139.367 69.7269L139.368 69.7288L139.369 69.7307L139.37 69.7326L139.371 69.7345L139.372 69.7364L139.373 69.7383L139.374 69.7402L139.375 69.7421L139.376 69.744L139.377 69.7459L139.378 69.7478L139.379 69.7497L139.379 69.7516L139.38 69.7535L139.381 69.7555L139.382 69.7574L139.383 69.7593L139.384 69.7612L139.385 69.7631L139.386 69.765L139.387 69.767L139.388 69.7689L139.389 69.7708L139.39 69.7727L139.391 69.7747L139.392 69.7766L139.393 69.7785L139.394 69.7805L139.395 69.7824L139.396 69.7843L139.397 69.7863L139.398 69.7882L139.399 69.7902L139.4 69.7921L139.401 69.794L139.402 69.796L139.403 69.7979L139.404 69.7999L139.404 69.8018L139.405 69.8038L139.406 69.8057L139.407 69.8077L139.408 69.8096L139.409 69.8116L139.41 69.8135L139.411 69.8155L139.412 69.8174L139.413 69.8194L139.414 69.8214L139.415 69.8233L139.416 69.8253L139.417 69.8273L139.418 69.8292L139.419 69.8312L139.42 69.8332L139.421 69.8351L139.422 69.8371L139.423 69.8391L139.424 69.841L139.425 69.843L139.426 69.845L139.427 69.847L139.428 69.8489L139.429 69.8509L139.43 69.8529L139.431 69.8549L139.432 69.8569L139.433 69.8589L139.434 69.8608L139.435 69.8628L139.436 69.8648L139.437 69.8668L139.438 69.8688L139.439 69.8708L139.44 69.8728L139.441 69.8748L139.442 69.8768L139.443 69.8787L139.444 69.8807L139.445 69.8827L139.446 69.8847L139.447 69.8867L139.448 69.8887L139.449 69.8907L139.45 69.8927L139.451 69.8947L139.452 69.8967L139.453 69.8987L139.454 69.9008L139.455 69.9028L139.456 69.9048L139.457 69.9068L139.458 69.9088L139.459 69.9108L139.46 69.9128L139.461 69.9148L139.462 69.9168L139.463 69.9188L139.464 69.9209L139.465 69.9229L139.466 69.9249L139.467 69.9269L139.468 69.9289L139.469 69.9309L139.47 69.933L139.471 69.935L139.472 69.937L139.473 69.939L139.474 69.9411L139.475 69.9431L139.476 69.9451L139.477 69.9471L139.478 69.9492L139.479 69.9512L139.48 69.9532L139.481 69.9553L139.482 69.9573L139.483 69.9593L139.484 69.9613L139.485 69.9634L139.486 69.9654L139.487 69.9674L139.488 69.9695L139.489 69.9715L139.49 69.9736L139.491 69.9756L139.492 69.9776L139.493 69.9797L139.494 69.9817L139.495 69.9837L139.496 69.9858L139.497 69.9878L139.498 69.9899L139.499 69.9919L139.5 69.994L139.501 69.996L139.502 69.998L139.503 70.0001L139.504 70.0021L139.505 70.0042L139.506 70.0062L139.507 70.0083L139.508 70.0103L139.509 70.0124L139.51 70.0144L139.511 70.0165L139.513 70.0185L139.514 70.0206L139.515 70.0226L139.516 70.0247L139.517 70.0267L139.518 70.0288L139.519 70.0308L139.52 70.0329L139.521 70.0349L139.522 70.037L139.523 70.0391L139.524 70.0411L139.525 70.0432L139.526 70.0452L139.527 70.0473L139.528 70.0493L139.529 70.0514L139.53 70.0535L139.531 70.0555L139.532 70.0576L139.533 70.0596L139.534 70.0617L139.535 70.0638L139.536 70.0658L139.537 70.0679L139.538 70.07L139.539 70.072L139.54 70.0741L139.541 70.0761L139.542 70.0782L139.543 70.0803L139.544 70.0823L139.545 70.0844L139.546 70.0865L139.547 70.0885L139.548 70.0906L139.549 70.0927L139.551 70.0947L139.552 70.0968L139.553 70.0989L139.554 70.1009L139.555 70.103L139.556 70.1051L139.557 70.1071L139.558 70.1092L139.559 70.1113L139.56 70.1134L139.561 70.1154L139.562 70.1175L139.563 70.1196L139.564 70.1216L139.565 70.1237L139.566 70.1258L139.567 70.1278L139.568 70.1299L139.569 70.132L139.57 70.1341L139.571 70.1361L139.572 70.1382L139.573 70.1403L139.574 70.1423L139.575 70.1444L139.576 70.1465L139.577 70.1486L139.578 70.1506L139.579 70.1527L139.58 70.1548L139.581 70.1569L139.583 70.1589L139.584 70.161L139.585 70.1631L139.586 70.1652L139.587 70.1672L139.588 70.1693L139.589 70.1714L139.59 70.1734L139.591 70.1755L139.592 70.1776L139.593 70.1797L139.594 70.1817L139.595 70.1838L139.596 70.1859L139.597 70.188L139.598 70.19L139.599 70.1921L139.6 70.1942L139.601 70.1963L139.602 70.1983L139.603 70.2004L139.604 70.2025L139.605 70.2046L139.606 70.2066L139.607 70.2087L139.608 70.2108L139.609 70.2129L139.61 70.2149L139.611 70.217L139.612 70.2191L139.614 70.2211L139.615 70.2232L139.616 70.2253L139.617 70.2274L139.618 70.2294L139.619 70.2315L139.62 70.2336L139.621 70.2356L139.622 70.2377L139.623 70.2398L139.624 70.2419L139.625 70.2439L139.626 70.246L139.627 70.2481L139.628 70.2501L139.629 70.2522L139.63 70.2543L139.631 70.2564L139.632 70.2584L139.633 70.2605L139.634 70.2626L139.635 70.2646L139.636 70.2667L139.637 70.2688L139.638 70.2708L139.639 70.2729L139.64 70.275L139.641 70.277L139.642 70.2791L139.643 70.2812L139.644 70.2832L139.645 70.2853L139.647 70.2874L139.648 70.2894L139.649 70.2915L139.65 70.2936L139.651 70.2956L139.652 70.2977L139.653 70.2998L139.654 70.3018L139.655 70.3039L139.656 70.306L139.657 70.308L139.658 70.3101L139.659 70.3121L139.66 70.3142L139.661 70.3163L139.662 70.3183L139.663 70.3204L139.664 70.3224L139.665 70.3245L139.666 70.3266L139.667 70.3286L139.668 70.3307L139.669 70.3327L139.67 70.3348L139.671 70.3368L139.672 70.3389L139.673 70.3409L139.674 70.343L139.675 70.3451L139.676 70.3471L139.677 70.3492L139.678 70.3512L139.679 70.3533L139.68 70.3553L139.681 70.3574L139.682 70.3594L139.683 70.3615L139.684 70.3635L139.685 70.3656L139.687 70.3676L139.688 70.3697L139.689 70.3717L139.69 70.3737L139.691 70.3758L139.692 70.3778L139.693 70.3799L139.694 70.3819L139.695 70.384L139.696 70.386L139.697 70.388L139.698 70.3901L139.699 70.3921L139.7 70.3942L139.701 70.3962L139.702 70.3982L139.703 70.4003L139.704 70.4023L139.705 70.4043L139.706 70.4064L139.707 70.4084L139.708 70.4104L139.709 70.4125L139.71 70.4145L139.711 70.4165L139.712 70.4186L139.713 70.4206L139.714 70.4226L139.715 70.4246L139.716 70.4267L139.717 70.4287L139.718 70.4307L139.719 70.4327L139.72 70.4348L139.721 70.4368L139.722 70.4388L139.723 70.4408L139.724 70.4429L139.725 70.4449L139.726 70.4469L139.727 70.4489L139.728 70.4509L139.729 70.4529L139.73 70.4549L139.731 70.457L139.732 70.459L139.733 70.461L139.734 70.463L139.735 70.465L139.736 70.467L139.737 70.469L139.738 70.471L139.739 70.473L139.74 70.475L139.741 70.477L139.742 70.479L139.743 70.481L139.744 70.483L139.745 70.485L139.746 70.487L139.747 70.489L139.748 70.491L139.749 70.493L139.75 70.495L139.751 70.497L139.752 70.499L139.753 70.501L139.754 70.503L139.755 70.505L139.756 70.507L139.757 70.509L139.758 70.5109L139.759 70.5129L139.76 70.5149L139.761 70.5169L139.762 70.5189L139.763 70.5209L139.764 70.5228L139.765 70.5248L139.766 70.5268L139.767 70.5288L139.768 70.5307L139.769 70.5327L139.77 70.5347L139.771 70.5367L139.772 70.5386L139.773 70.5406L139.774 70.5426L139.775 70.5445L139.776 70.5465L139.777 70.5485L139.778 70.5504L139.779 70.5524L139.78 70.5543L139.781 70.5563L139.782 70.5582L139.783 70.5602L139.783 70.5622L139.784 70.5641L139.785 70.5661L139.786 70.568L139.787 70.57L139.788 70.5719L139.789 70.5739L139.79 70.5758L139.791 70.5777L139.792 70.5797L139.793 70.5816L139.794 70.5836L139.795 70.5855L139.796 70.5874L139.797 70.5894L139.798 70.5913L139.799 70.5932L139.8 70.5952L139.801 70.5971L139.802 70.599L139.803 70.601L139.804 70.6029L139.805 70.6048L139.806 70.6067L139.807 70.6087L139.808 70.6106L139.809 70.6125L139.81 70.6144L139.81 70.6163L139.811 70.6182L139.812 70.6202L139.813 70.6221L139.814 70.624L139.815 70.6259L139.816 70.6278L139.817 70.6297L139.818 70.6316L139.819 70.6335L139.82 70.6354L139.821 70.6373L139.822 70.6392L139.823 70.6411L139.824 70.643L139.825 70.6449L139.826 70.6468L139.827 70.6486L139.828 70.6505L139.828 70.6524L139.829 70.6543L139.83 70.6562L139.831 70.6581L139.832 70.6599L139.833 70.6618L139.834 70.6637L139.835 70.6656L139.836 70.6674L139.837 70.6693L139.838 70.6712L139.839 70.6731L139.84 70.6749L139.841 70.6768L139.842 70.6786L139.842 70.6805L139.843 70.6824L139.844 70.6842L139.845 70.6861L139.846 70.6879L139.847 70.6898L139.848 70.6916L139.849 70.6935L139.85 70.6953L139.851 70.6972L139.867 70.7291L139.876 70.7636C140.151 71.7837 140.738 72.798 141.507 73.5995C142.277 74.4021 143.209 74.9699 144.164 75.1361C145.105 75.3 146.098 75.0804 147.035 74.2556C147.982 73.4222 148.887 71.9562 149.588 69.6055C150.863 64.0735 154.549 59.1411 160.111 56.3687C164.384 54.239 168.975 53.7485 173.28 54.7019C173.33 54.7116 173.382 54.7214 173.434 54.7315C174.12 54.8636 174.948 55.0231 175.794 55.1185C176.71 55.2219 177.617 55.2461 178.362 55.0914C179.106 54.9371 179.634 54.6188 179.895 54.0809C180.16 53.5361 180.201 52.6709 179.744 51.3113C178.838 50.0795 178.167 48.7344 177.475 47.3456L177.468 47.3314C168.244 28.8255 175.847 6.20054 194.567 -3.13032C210.957 -11.2999 230.44 -6.45887 241.244 7.36926C241.251 7.37519 241.26 7.38233 241.27 7.39058C241.306 7.41967 241.36 7.4626 241.431 7.51564C241.573 7.62184 241.781 7.76797 242.041 7.92456C242.563 8.23924 243.283 8.58839 244.093 8.74833C244.898 8.9075 245.784 8.87812 246.661 8.4495C247.534 8.02275 248.435 7.18184 249.243 5.65133C251.117 0.142148 254.992 -4.57472 260.619 -7.37937C271.558 -12.832 284.826 -8.59183 290.458 2.05991C290.461 2.06375 290.464 2.06805 290.468 2.07278C290.477 2.08371 290.488 2.09696 290.501 2.11238C290.545 2.16417 290.611 2.24025 290.698 2.3347C290.871 2.52374 291.126 2.78546 291.449 3.07274C292.099 3.64975 293.012 4.31759 294.085 4.7153C295.153 5.11088 296.371 5.23707 297.659 4.74948C298.942 4.26332 300.339 3.15011 301.735 0.984507C303.455 -4.83495 307.487 -10.0208 313.351 -12.9434C324.462 -18.4818 337.945 -14.0278 343.445 -2.99384C347.191 4.52252 346.269 13.165 341.783 19.6905L341.781 19.693L341.781 19.6932L341.781 19.6934L341.779 19.6952L341.772 19.706C341.765 19.7162 341.754 19.7322 341.741 19.7538C341.713 19.797 341.672 19.8625 341.622 19.9482C341.523 20.1197 341.388 20.3714 341.251 20.6866C340.977 21.3191 340.698 22.1965 340.668 23.1908C340.638 24.1805 340.855 25.2899 341.574 26.401C342.292 27.509 343.525 28.6408 345.565 29.655C348.053 30.3512 350.331 32.0602 351.628 34.6625C354.032 39.4844 351.992 45.2903 347.223 47.6675C345.334 48.6092 343.209 48.8576 341.213 48.541L341.212 48.541C341.196 48.5406 341.173 48.5402 341.141 48.5401C341.079 48.54 340.985 48.5412 340.866 48.5468C340.627 48.558 340.287 48.5868 339.888 48.6571C339.087 48.798 338.065 49.1031 337.143 49.7535C336.227 50.3992 335.399 51.3925 334.984 52.9383C334.566 54.4912 334.559 56.6258 335.336 59.556C339.997 76.4971 332.206 94.9174 315.847 103.176L124.674 120.872Z" fill="white" stroke="black" stroke-width="0.715886"/>
<path opacity="0.27" fill-rule="evenodd" clip-rule="evenodd" d="M314.974 63.0185C323.766 55.5666 325.787 43.1533 320.408 33.5177C316.684 26.7009 322.521 25.5397 322.521 25.5397C323.756 25.4393 324.982 24.9824 325.964 24.1504C328.44 22.0523 328.801 18.3248 326.683 15.8253C325.534 14.4697 323.931 13.7899 322.352 13.7447C316.569 12.4589 318.347 7.89416 318.347 7.89416C320.09 3.2871 319.366 -2.06781 315.991 -6.05003C311.036 -11.8963 302.234 -12.5896 296.344 -7.59754C293.228 -4.95683 291.56 -1.2137 291.392 2.56851C289.221 8.92102 284.254 5.0506 284.254 5.0506C279.279 -0.560027 270.628 -1.16239 264.823 3.75728C261.835 6.28946 260.194 9.71846 259.882 13.3312C258.789 17.7522 254.887 15.7448 254.887 15.7448C246.257 8.93697 233.68 8.89522 224.93 16.3109C214.943 24.7756 213.697 39.6617 222.063 49.5326C222.709 50.2951 223.319 51.0153 224.058 51.6269C226.115 54.8333 222.266 54.965 220.439 55.0583C217.704 55.1196 215.008 56.0934 212.746 58.0106C209.801 60.5066 208.31 64.0265 208.362 67.5493C208.056 73.851 203.521 72.3077 202.153 69.8277C202.009 69.6583 201.829 69.4464 201.686 69.277C196.731 63.4307 187.929 62.7375 182.039 67.7295C176.149 72.7215 175.39 81.5178 180.344 87.364C181.924 89.228 183.902 90.6094 186.09 91.3749C188.966 92.4317 190.299 94.8692 187.244 96.8031C186.631 97.0315 186.089 97.3447 185.577 97.7788C183.102 99.8769 182.776 103.647 184.859 106.104C186.941 108.561 190.67 108.894 193.189 106.76C193.914 106.145 194.454 105.397 194.8 104.594C197.176 99.5227 200.747 102.611 200.747 102.611C201.086 103.27 201.51 103.857 201.976 104.408C205.854 108.983 212.734 109.486 217.344 105.579C218.411 104.674 219.298 103.558 219.914 102.381C223.632 98.7204 225.786 102.646 225.786 102.646C226.34 103.559 226.937 104.437 227.655 105.284C234.584 113.46 246.922 114.432 255.16 107.45C262.416 101.301 264.133 91.0381 259.676 83.0961C258.416 79.3596 262.7 79.2226 262.7 79.2226C266.746 80.0157 271.105 79.0148 274.477 76.1571C277.849 73.2993 279.551 69.1635 279.468 65.0847C279.268 60.5223 283.884 62.5069 283.884 62.5069C292.497 70.4204 305.875 70.8021 315.095 62.9885L314.974 63.0185Z" fill="#00B2FF"/>
</svg>
