<svg width="24" height="23" viewBox="0 0 24 23" fill="none" xmlns="http://www.w3.org/2000/svg">
<path d="M4.97365 15.8561C4.94905 12.2038 7.21148 8.92612 10.6352 7.65391L18.7393 4.64258C20.6235 3.94246 22.6305 5.32768 22.644 7.33762L22.6889 13.9941C22.6971 15.2116 21.9429 16.3041 20.8017 16.7282L8.89587 21.1522C7.01169 21.8523 5.00471 20.4671 4.99117 18.4571L4.97365 15.8561Z" fill="url(#paint0_linear_433_4403)"/>
<path d="M1.39569 8.18396C1.39305 6.9823 2.13942 5.90625 3.26587 5.48768L15.0544 1.10728C16.9267 0.411565 18.9194 1.79364 18.9238 3.79097L18.9379 10.2208C18.9406 11.4224 18.1942 12.4985 17.0678 12.917L5.27922 17.2974C3.40691 17.9932 1.41418 16.6111 1.4098 14.6138L1.39569 8.18396Z" fill="url(#paint1_linear_433_4403)"/>
<path d="M7.67838 8.78698L18.9588 4.62862L18.9588 9.40104C19.0879 12.0526 17.9298 12.9376 15.9091 13.5407L5.00637 17.3857L5.0306 12.6728C4.99839 10.6108 6.78893 9.09787 7.67838 8.78698Z" fill="white"/>
<defs>
<linearGradient id="paint0_linear_433_4403" x1="20.7398" y1="8.14004" x2="5.0551" y2="21.3801" gradientUnits="userSpaceOnUse">
<stop stop-color="white"/>
<stop offset="1" stop-color="white" stop-opacity="0"/>
</linearGradient>
<linearGradient id="paint1_linear_433_4403" x1="15.4297" y1="3.06991" x2="1.23611" y2="17.5026" gradientUnits="userSpaceOnUse">
<stop stop-color="white"/>
<stop offset="1" stop-color="white" stop-opacity="0"/>
</linearGradient>
</defs>
</svg>
