<svg width="19" height="23" viewBox="0 0 19 23" fill="none" xmlns="http://www.w3.org/2000/svg">
<path d="M0.25586 15.358C0.25586 12.8235 0.25586 11.5562 0.757559 10.5136C0.983056 10.0449 1.27892 9.61636 1.6341 9.24389C2.42431 8.41522 3.58155 8.00623 5.89601 7.18825L10.452 5.57805C13.7683 4.40604 15.4264 3.82003 16.6633 4.47477C16.9539 4.62861 17.2207 4.82653 17.455 5.06198C18.4521 6.06407 18.4521 7.87982 18.4521 11.5113C18.4521 14.0258 18.4521 15.283 17.8924 16.2876C17.7567 16.5312 17.5984 16.7604 17.4198 16.9721C16.6831 17.8455 15.535 18.2512 13.2388 19.0627L7.82906 20.9746C4.9093 22.0065 3.44943 22.5225 2.32376 22.0581C0.881391 21.4631 0.255859 20.0802 0.255859 18.8898C0.255859 18.086 0.25586 16.605 0.25586 15.358Z" fill="url(#paint0_linear_433_4393)"/>
<path fill-rule="evenodd" clip-rule="evenodd" d="M0.255859 9.38115C0.255859 7.35119 0.255859 5.68693 0.581459 4.82072C0.869016 4.05573 1.33575 3.37694 1.93958 2.84556C2.6233 2.24388 3.54895 1.91266 5.40026 1.25021L6.03841 1.02185C8.18824 0.252583 9.26315 -0.132052 10.1261 0.0409072C11.06 0.228087 11.8696 0.826103 12.3451 1.68C12.7844 2.46902 12.7844 4.26602 12.7844 6.62331C12.7844 8.48326 12.7844 9.41324 12.5103 10.215C12.2122 11.0867 11.6844 11.8543 10.9867 12.4308C10.3449 12.961 9.4968 13.2645 7.80053 13.8715C7.80053 13.8715 4.8795 14.9058 3.05987 15.5649C1.24025 16.2239 0.255859 17.5459 0.255859 18.921V9.38115Z" fill="white"/>
<defs>
<linearGradient id="paint0_linear_433_4393" x1="17.8108" y1="16.0608" x2="0.70548" y2="6.57737" gradientUnits="userSpaceOnUse">
<stop stop-color="white"/>
<stop offset="1" stop-color="white" stop-opacity="0.12"/>
</linearGradient>
</defs>
</svg>
