<svg width="28" height="21" viewBox="0 0 28 21" fill="none" xmlns="http://www.w3.org/2000/svg">
<path d="M10.357 8.68166C8.84687 7.58414 8.09179 7.03538 8.04637 6.38503C8.03214 6.18137 8.06269 5.97707 8.13586 5.78648C8.36953 5.17786 9.2521 4.87397 11.0172 4.26618L16.242 2.46716C17.5881 2.00367 18.2611 1.77192 18.9397 1.80752C19.1633 1.81925 19.3853 1.85244 19.6025 1.90662C20.2618 2.07107 20.8377 2.48956 21.9893 3.32652L24.6492 5.25957C25.8696 6.14652 26.4798 6.58999 26.7853 7.2165C26.8853 7.42142 26.9598 7.63779 27.0072 7.8608C27.1521 8.54261 26.9443 9.26775 26.5287 10.718L25.6228 13.8789C25.2306 15.2474 25.0344 15.9317 24.6161 16.4672C24.4783 16.6437 24.3238 16.8065 24.1549 16.9534C23.642 17.3992 22.969 17.631 21.6229 18.0945L16.3981 19.8935C14.633 20.5013 13.7504 20.8052 13.1916 20.4694C13.0166 20.3643 12.8668 20.2221 12.7526 20.0529C12.388 19.5124 12.6451 18.6151 13.1595 16.8205L14.3642 12.617C14.4681 12.2544 14.52 12.0731 14.4838 11.9027C14.4719 11.8469 14.4533 11.7928 14.4283 11.7416C14.3519 11.585 14.1994 11.4741 13.8943 11.2524L10.357 8.68166Z" fill="url(#paint0_linear_433_4398)"/>
<path d="M2.56015 6.91261C1.04999 5.8151 0.294914 5.26634 0.249492 4.61599C0.235268 4.41233 0.265815 4.20803 0.338988 4.01744C0.572655 3.40882 1.45522 3.10492 3.22036 2.49714L8.44509 0.698121C9.79118 0.234624 10.4642 0.00287571 11.1428 0.0384786C11.3664 0.0502087 11.5884 0.0833945 11.8056 0.137578C12.465 0.302031 13.0408 0.720513 14.1924 1.55748L16.8523 3.49053C18.0727 4.37747 18.6829 4.82094 18.9884 5.44745C19.0884 5.65237 19.1629 5.86875 19.2103 6.09175C19.3552 6.77356 19.1474 7.49871 18.7318 8.94899L17.8259 12.1098C17.4337 13.4784 17.2376 14.1627 16.8192 14.6982C16.6814 14.8746 16.5269 15.0374 16.358 15.1843C15.8451 15.6302 15.1721 15.8619 13.826 16.3254L8.60127 18.1244C6.83613 18.7322 5.95356 19.0361 5.39473 18.7004C5.21973 18.5952 5.06988 18.453 4.9557 18.2838C4.5911 17.7434 4.84826 16.8461 5.36258 15.0515L6.56729 10.8479C6.6712 10.4854 6.72315 10.3041 6.68692 10.1336C6.67507 10.0779 6.65644 10.0238 6.63146 9.97256C6.55507 9.81594 6.40252 9.70507 6.09741 9.48333L2.56015 6.91261Z" fill="white"/>
<defs>
<linearGradient id="paint0_linear_433_4398" x1="26.3616" y1="12.6395" x2="6.52105" y2="6.12579" gradientUnits="userSpaceOnUse">
<stop stop-color="white"/>
<stop offset="1" stop-color="white" stop-opacity="0.12"/>
</linearGradient>
</defs>
</svg>
