<svg width="151" height="29" viewBox="0 0 151 29" fill="none" xmlns="http://www.w3.org/2000/svg">
<path d="M11.7121 7.00558L13.1861 9.95356C13.3847 10.3613 13.9178 10.748 14.3673 10.8317L17.0331 11.2707C18.737 11.553 19.1343 12.7865 17.9112 14.0201L15.8309 16.1004C15.4859 16.4454 15.2873 17.1249 15.4023 17.6162L15.9981 20.1879C16.4686 22.2159 15.3814 23.0104 13.5938 21.9441L11.0953 20.4597C10.6458 20.1879 9.8931 20.1879 9.44359 20.4597L6.94512 21.9441C5.15751 22.9999 4.07031 22.2159 4.54073 20.1879L5.1366 17.6162C5.23069 17.1144 5.03207 16.4349 4.68709 16.09L2.60677 14.0096C1.38368 12.7865 1.78092 11.553 3.4849 11.2603L6.15063 10.8212C6.60014 10.748 7.13329 10.3508 7.33191 9.9431L8.8059 6.99512C9.61085 5.40614 10.9071 5.40614 11.7121 7.00558Z" fill="#FEC10A"/>
<path d="M44.4679 7.00558L45.9419 9.95356C46.1405 10.3613 46.6737 10.748 47.1232 10.8317L49.7889 11.2707C51.4929 11.553 51.8902 12.7865 50.6671 14.0201L48.5867 16.1004C48.2418 16.4454 48.0431 17.1249 48.1581 17.6162L48.754 20.1879C49.2244 22.2159 48.1372 23.0104 46.3496 21.9441L43.8512 20.4597C43.4016 20.1879 42.649 20.1879 42.1994 20.4597L39.701 21.9441C37.9134 22.9999 36.8262 22.2159 37.2966 20.1879L37.8925 17.6162C37.9865 17.1144 37.7879 16.4349 37.4429 16.09L35.3626 14.0096C34.1395 12.7865 34.5368 11.553 36.2408 11.2603L38.9065 10.8212C39.356 10.748 39.8891 10.3508 40.0878 9.9431L41.5618 6.99512C42.3667 5.40614 43.663 5.40614 44.4679 7.00558Z" fill="#FEC10A"/>
<path d="M77.2238 7.00558L78.6978 9.95356C78.8964 10.3613 79.4295 10.748 79.8791 10.8317L82.5448 11.2707C84.2488 11.553 84.646 12.7865 83.4229 14.0201L81.3426 16.1004C80.9976 16.4454 80.799 17.1249 80.914 17.6162L81.5099 20.1879C81.9803 22.2159 80.8931 23.0104 79.1055 21.9441L76.607 20.4597C76.1575 20.1879 75.4048 20.1879 74.9553 20.4597L72.4568 21.9441C70.6692 22.9999 69.582 22.2159 70.0525 20.1879L70.6483 17.6162C70.7424 17.1144 70.5438 16.4349 70.1988 16.09L68.1185 14.0096C66.8954 12.7865 67.2926 11.553 68.9966 11.2603L71.6623 10.8212C72.1119 10.748 72.645 10.3508 72.8436 9.9431L74.3176 6.99512C75.1226 5.40614 76.4188 5.40614 77.2238 7.00558Z" fill="#FEC10A"/>
<path d="M109.98 7.00558L111.454 9.95356C111.652 10.3613 112.185 10.748 112.635 10.8317L115.301 11.2707C117.005 11.553 117.402 12.7865 116.179 14.0201L114.098 16.1004C113.753 16.4454 113.555 17.1249 113.67 17.6162L114.266 20.1879C114.736 22.2159 113.649 23.0104 111.861 21.9441L109.363 20.4597C108.913 20.1879 108.161 20.1879 107.711 20.4597L105.213 21.9441C103.425 22.9999 102.338 22.2159 102.808 20.1879L103.404 17.6162C103.498 17.1144 103.3 16.4349 102.955 16.09L100.874 14.0096C99.6513 12.7865 100.048 11.553 101.752 11.2603L104.418 10.8212C104.868 10.748 105.401 10.3508 105.599 9.9431L107.073 6.99512C107.878 5.40614 109.175 5.40614 109.98 7.00558Z" fill="#FEC10A"/>
<path d="M142.564 6.96206L144.016 9.86556C144.211 10.2671 144.736 10.6481 145.179 10.7304L147.805 11.1629C149.483 11.4409 149.874 12.6558 148.67 13.8707L146.621 15.9197C146.281 16.2594 146.085 16.9287 146.198 17.4126L146.785 19.9454C147.249 21.9429 146.178 22.7254 144.417 21.6752L141.956 20.2131C141.514 19.9454 140.772 19.9454 140.33 20.2131L137.869 21.6752C136.108 22.7151 135.038 21.9429 135.501 19.9454L136.088 17.4126C136.18 16.9184 135.985 16.2491 135.645 15.9094L133.596 13.8604C132.391 12.6558 132.783 11.4409 134.461 11.1526L137.086 10.7201C137.529 10.6481 138.054 10.2568 138.25 9.85527L139.702 6.95177C140.494 5.38676 141.771 5.38676 142.564 6.96206Z" fill="white"/>
<g clip-path="url(#clip0_7669_48297)">
<path d="M142.564 6.96304L144.016 9.86654C144.211 10.2681 144.736 10.649 145.179 10.7314L147.805 11.1638C149.483 11.4418 149.874 12.6568 148.67 13.8717L146.621 15.9206C146.281 16.2604 146.085 16.9297 146.198 17.4136L146.785 19.9464C147.249 21.9439 146.178 22.7264 144.417 21.6762L141.956 20.2141C141.514 19.9464 140.772 19.9464 140.33 20.2141L137.869 21.6762C136.108 22.7161 135.038 21.9439 135.501 19.9464L136.088 17.4136C136.18 16.9194 135.985 16.2501 135.645 15.9103L133.596 13.8614C132.391 12.6568 132.783 11.4418 134.461 11.1536L137.086 10.7211C137.529 10.649 138.054 10.2578 138.25 9.85624L139.702 6.95274C140.494 5.38774 141.771 5.38774 142.564 6.96304Z" fill="#FEC10A"/>
</g>
<defs>
<clipPath id="clip0_7669_48297">
<rect width="9.8491" height="19.6982" fill="white" transform="translate(131.254 4.44043)"/>
</clipPath>
</defs>
</svg>
