<svg width="140" height="34" viewBox="0 0 140 34" fill="none" xmlns="http://www.w3.org/2000/svg">
<path d="M7.16756e-07 23.2434C7.16756e-07 19.5145 6.51351e-07 17.6501 0.738129 16.116C1.06989 15.4265 1.50519 14.796 2.02775 14.248C3.19036 13.0288 4.89295 12.4271 8.29812 11.2237L15.0012 8.85464C19.8802 7.13029 22.3197 6.26812 24.1395 7.23142C24.5671 7.45776 24.9597 7.74894 25.3044 8.09536C26.7714 9.5697 26.7714 12.2411 26.7714 17.584C26.7714 21.2835 26.7714 23.1332 25.9479 24.6112C25.7482 24.9695 25.5154 25.3068 25.2526 25.6183C24.1687 26.9032 22.4796 27.5001 19.1013 28.6941L11.1421 31.507C6.84642 33.0252 4.69857 33.7843 3.04242 33.1011C0.920318 32.2257 0 30.191 0 28.4397C0 27.257 7.16756e-07 25.0781 7.16756e-07 23.2434Z" fill="url(#paint0_linear_433_4085)"/>
<path fill-rule="evenodd" clip-rule="evenodd" d="M0 14.4483C0 11.4617 -5.53648e-07 9.01319 0.479041 7.73878C0.902113 6.61327 1.5888 5.61459 2.47719 4.8328C3.48312 3.94758 4.84499 3.46026 7.56874 2.48562L8.50763 2.14965C11.6706 1.01786 13.2521 0.451957 14.5217 0.706425C15.8957 0.981815 17.0868 1.86165 17.7864 3.11795C18.4328 4.27881 18.4328 6.92266 18.4328 10.3908C18.4328 13.1273 18.4328 14.4956 18.0294 15.6752C17.5909 16.9577 16.8143 18.087 15.7879 18.9351C14.8436 19.7153 13.5958 20.1618 11.1002 21.0548C11.1002 21.0548 6.80257 22.5766 4.12543 23.5462C1.44829 24.5158 0 26.4608 0 28.4839V14.4483Z" fill="white"/>
<path d="M34.6172 10.408H39.6567C41.0133 10.408 42.0656 10.7377 42.8136 11.3969C43.5616 12.0562 43.9356 12.8929 43.9356 13.9072C43.9356 15.3905 43.0798 16.3667 41.3683 16.8358C42.2304 16.9753 42.9214 17.362 43.4412 17.9959C43.9737 18.6171 44.2399 19.3334 44.2399 20.1448C44.2399 21.1591 43.8469 21.9958 43.0608 22.6551C42.2748 23.3017 41.2225 23.625 39.904 23.625H34.6172V10.408ZM36.7851 12.1006V16.0181H39.4666C40.1766 16.0181 40.728 15.8469 41.1211 15.5046C41.5268 15.1623 41.7296 14.6869 41.7296 14.0783C41.7296 13.4571 41.5268 12.9753 41.1211 12.633C40.728 12.278 40.1766 12.1006 39.4666 12.1006H36.7851ZM36.7851 21.9324H39.7138C40.4491 21.9324 41.026 21.7486 41.4444 21.3809C41.8627 21.0133 42.0719 20.5062 42.0719 19.8596C42.0719 19.2003 41.8501 18.6805 41.4063 18.3002C40.9626 17.9071 40.3731 17.7106 39.6377 17.7106H36.7851V21.9324Z" fill="white"/>
<path d="M51.0078 23.7961C49.4864 23.7961 48.2503 23.3017 47.2994 22.3128C46.3486 21.3239 45.8731 20.0117 45.8731 18.3762C45.8731 16.7407 46.3549 15.4349 47.3185 14.4587C48.282 13.4698 49.5244 12.9753 51.0458 12.9753C52.5799 12.9753 53.8223 13.4508 54.7732 14.4016C55.7241 15.3398 56.1995 16.5696 56.1995 18.091C56.1995 18.4586 56.1741 18.8009 56.1234 19.1179H48.0982C48.1489 19.9927 48.4405 20.69 48.9729 21.2098C49.5181 21.7169 50.1964 21.9705 51.0078 21.9705C52.1869 21.9705 53.0173 21.4824 53.499 20.5062H55.8382C55.5212 21.4697 54.9443 22.2621 54.1076 22.8833C53.2708 23.4919 52.2376 23.7961 51.0078 23.7961ZM53.9364 17.6346C53.9238 16.7724 53.6385 16.0878 53.0807 15.5807C52.5228 15.0609 51.8445 14.801 51.0458 14.801C50.2471 14.801 49.5752 15.0609 49.03 15.5807C48.4975 16.0878 48.1932 16.7724 48.1172 17.6346H53.9364Z" fill="white"/>
<path d="M57.8575 16.1512C57.8575 15.2637 58.2316 14.5157 58.9796 13.9072C59.7276 13.286 60.7101 12.9753 61.9272 12.9753C63.1443 12.9753 64.1079 13.2796 64.8178 13.8882C65.5405 14.484 65.9272 15.3018 65.9779 16.3414H63.7529C63.7148 15.8216 63.531 15.4159 63.2014 15.1243C62.8844 14.8327 62.4344 14.6869 61.8512 14.6869C61.268 14.6869 60.8116 14.82 60.4819 15.0863C60.1523 15.3398 59.9875 15.6821 59.9875 16.1132C59.9875 16.5316 60.1967 16.8612 60.615 17.1021C61.0334 17.343 61.5405 17.5205 62.1364 17.6346C62.745 17.7487 63.3472 17.8881 63.9431 18.0529C64.5516 18.2178 65.0651 18.522 65.4834 18.9658C65.9018 19.3968 66.111 19.98 66.111 20.7153C66.111 21.6282 65.7243 22.3698 64.951 22.9404C64.1903 23.5109 63.2077 23.7961 62.0033 23.7961C60.7989 23.7961 59.8227 23.5045 59.0746 22.9213C58.3266 22.3381 57.9146 21.5077 57.8385 20.4301H60.0826C60.1206 20.9499 60.3108 21.3556 60.6531 21.6472C60.9954 21.9388 61.4581 22.0846 62.0413 22.0846C62.6372 22.0846 63.1063 21.9578 63.4486 21.7042C63.8036 21.438 63.9811 21.0893 63.9811 20.6583C63.9811 20.2272 63.7719 19.8913 63.3535 19.6504C62.9351 19.4095 62.4217 19.232 61.8131 19.1179C61.2173 18.9911 60.615 18.8517 60.0065 18.6995C59.4106 18.5347 58.9035 18.2431 58.4851 17.8247C58.0667 17.4064 57.8575 16.8485 57.8575 16.1512Z" fill="white"/>
<path d="M73.5692 14.9151H71.0209V20.7153C71.0209 21.1084 71.1096 21.3936 71.2871 21.5711C71.4773 21.7359 71.7942 21.8183 72.238 21.8183H73.5692V23.625H71.8576C69.8418 23.625 68.8339 22.6551 68.8339 20.7153V14.9151H67.5978V13.1465H68.8339V10.5411H71.0209V13.1465H73.5692V14.9151Z" fill="white"/>
<path d="M96.1592 10.408H98.4793L94.5618 23.625H92.1086L89.3321 13.6219L86.3844 23.625L83.9502 23.644L80.2038 10.408H82.5049L85.2434 21.1718L88.21 10.408H90.6442L93.4017 21.1147L96.1592 10.408Z" fill="white"/>
<path d="M107.171 20.9626C107.805 20.316 108.121 19.4539 108.121 18.3762C108.121 17.2986 107.805 16.4428 107.171 15.8089C106.549 15.175 105.808 14.858 104.946 14.858C104.084 14.858 103.336 15.1687 102.702 15.7899C102.08 16.4111 101.77 17.2606 101.77 18.3382C101.77 19.4158 102.08 20.2843 102.702 20.9436C103.336 21.5901 104.084 21.9134 104.946 21.9134C105.808 21.9134 106.549 21.5965 107.171 20.9626ZM104.489 23.7961C103.095 23.7961 101.922 23.289 100.971 22.2748C100.02 21.2478 99.5447 19.942 99.5447 18.3572C99.5447 16.7598 100.014 15.4666 100.952 14.4777C101.903 13.4761 103.082 12.9753 104.489 12.9753C105.313 12.9753 106.036 13.1655 106.657 13.5459C107.291 13.9135 107.779 14.4016 108.121 15.0102V13.1465H110.308V23.625H108.121V21.6662C107.767 22.3128 107.278 22.8326 106.657 23.2256C106.036 23.606 105.313 23.7961 104.489 23.7961Z" fill="white"/>
<path d="M113.156 23.625V9.55225H115.324V23.625H113.156Z" fill="white"/>
<path d="M118.17 23.625V9.55225H120.338V23.625H118.17Z" fill="white"/>
<path d="M127.597 23.7961C126.075 23.7961 124.839 23.3017 123.888 22.3128C122.937 21.3239 122.462 20.0117 122.462 18.3762C122.462 16.7407 122.944 15.4349 123.907 14.4587C124.871 13.4698 126.113 12.9753 127.635 12.9753C129.169 12.9753 130.411 13.4508 131.362 14.4016C132.313 15.3398 132.788 16.5696 132.788 18.091C132.788 18.4586 132.763 18.8009 132.712 19.1179H124.687C124.738 19.9927 125.029 20.69 125.562 21.2098C126.107 21.7169 126.785 21.9705 127.597 21.9705C128.776 21.9705 129.606 21.4824 130.088 20.5062H132.427C132.11 21.4697 131.533 22.2621 130.696 22.8833C129.86 23.4919 128.826 23.7961 127.597 23.7961ZM130.525 17.6346C130.513 16.7724 130.227 16.0878 129.669 15.5807C129.112 15.0609 128.433 14.801 127.635 14.801C126.836 14.801 126.164 15.0609 125.619 15.5807C125.086 16.0878 124.782 16.7724 124.706 17.6346H130.525Z" fill="white"/>
<path d="M139.999 14.9151H137.451V20.7153C137.451 21.1084 137.54 21.3936 137.717 21.5711C137.907 21.7359 138.224 21.8183 138.668 21.8183H139.999V23.625H138.288C136.272 23.625 135.264 22.6551 135.264 20.7153V14.9151H134.028V13.1465H135.264V10.5411H137.451V13.1465H139.999V14.9151Z" fill="white"/>
<defs>
<linearGradient id="paint0_linear_433_4085" x1="25.8278" y1="24.2775" x2="0.6615" y2="10.3249" gradientUnits="userSpaceOnUse">
<stop stop-color="white"/>
<stop offset="1" stop-color="white" stop-opacity="0.12"/>
</linearGradient>
</defs>
</svg>
